<?xml version="1.0" encoding="UTF-8" standalone="no"?>
<svg width="125px" height="87px" viewBox="0 0 125 87" version="1.1" xmlns="http://www.w3.org/2000/svg" xmlns:xlink="http://www.w3.org/1999/xlink" xmlns:sketch="http://www.bohemiancoding.com/sketch/ns">
    <!-- Generator: Sketch 3.4 (15588) - http://www.bohemiancoding.com/sketch -->
    <title>Airport</title>
    <desc>Created with Sketch.</desc>
    <defs></defs>
    <g id="Page-1" stroke="none" stroke-width="1" fill="none" fill-rule="evenodd" sketch:type="MSPage">
        <g id="HIGH-RES-DESKTOP" sketch:type="MSArtboardGroup" transform="translate(-879.000000, -2606.000000)">
            <g id="Airport" sketch:type="MSLayerGroup" transform="translate(879.000000, 2606.000000)">
                <path d="M112.49752,37.3437167 L106.175187,37.3437167 L106.175187,30.9854165 L112.49752,30.9854165 L112.49752,37.3437167 Z M112.49752,48.1448458 L106.175187,48.1448458 L106.175187,41.7798947 L112.49752,41.7798947 L112.49752,48.1448458 Z M112.49752,59.3101139 L106.175187,59.3101139 L106.175187,52.9518138 L112.49752,52.9518138 L112.49752,59.3101139 Z M102.648634,37.3437167 L96.3263012,37.3437167 L96.3263012,30.9854165 L102.648634,30.9854165 L102.648634,37.3437167 Z M102.648634,48.1448458 L96.3263012,48.1448458 L96.3263012,41.7798947 L102.648634,41.7798947 L102.648634,48.1448458 Z M102.648634,59.3101139 L96.3263012,59.3101139 L96.3263012,52.9518138 L102.648634,52.9518138 L102.648634,59.3101139 Z M72.3133391,77.1329746 L53.7464453,77.1329746 L53.7464453,53.8347263 L72.3133391,53.8347263 L72.3133391,77.1329746 Z M30.4378017,37.3437167 L24.1154686,37.3437167 L24.1154686,30.9854165 L30.4378017,30.9854165 L30.4378017,37.3437167 Z M30.4378017,48.1448458 L24.1154686,48.1448458 L24.1154686,41.7798947 L30.4378017,41.7798947 L30.4378017,48.1448458 Z M30.4378017,59.3101139 L24.1154686,59.3101139 L24.1154686,52.9518138 L30.4378017,52.9518138 L30.4378017,59.3101139 Z M20.5889161,37.3437167 L14.2665829,37.3437167 L14.2665829,30.9854165 L20.5889161,30.9854165 L20.5889161,37.3437167 Z M20.5889161,48.1448458 L14.2665829,48.1448458 L14.2665829,41.7798947 L20.5889161,41.7798947 L20.5889161,48.1448458 Z M20.5889161,59.3101139 L14.2665829,59.3101139 L14.2665829,52.9518138 L20.5889161,52.9518138 L20.5889161,59.3101139 Z M118.006415,77.425616 C118.148601,76.9833284 118.232921,76.5094488 118.232921,76.0222674 L118.232921,24.3344749 C118.232921,21.8786148 116.255539,19.8982969 113.821837,19.8982969 L89.2665829,19.8982969 L89.2665829,74.9115601 C89.2665829,75.7944726 89.1062099,76.6391422 88.8284505,77.425616 L85.9466966,77.425616 C86.088883,76.9833284 86.1732028,76.5094488 86.1732028,76.0222674 L86.1732028,5.03177976 C86.1732028,2.58257052 84.1974737,0.595601729 81.7621189,0.595601729 L43.2312678,0.595601729 C40.7975663,0.595601729 38.8201839,2.58257052 38.8201839,5.03177976 L38.8201839,76.0222674 C38.8201839,76.5094488 38.9045037,76.9833284 39.0533034,77.425616 L36.1732028,77.425616 C35.8954434,76.6391422 35.7334171,75.7944726 35.7334171,74.9115601 L35.7334171,19.8982969 L11.7667482,19.8982969 C9.32643344,19.8982969 7.35566431,21.8786148 7.35566431,24.3344749 L7.35566431,76.0222674 C7.35566431,76.5094488 7.43998413,76.9833284 7.58217049,77.425616 L0,77.425616 L0,86.5956017 L125,86.5956017 L125,77.425616 L118.006415,77.425616 Z" id="Page-1" fill="#404040" sketch:type="MSShapeGroup"></path>
                <path d="M64.551,27.567 L64.527,27.567 C64.496,27.602 64.449,27.618 64.387,27.618 L61.094,30.704 L61,35.094 L59.992,36.102 C59.961,36.133 59.902,36.149 59.805,36.149 C59.684,36.149 59.594,36.11 59.539,36.032 C59.484,35.954 59.441,35.868 59.41,35.774 L58.801,33.344 C58.785,33.266 58.746,33.211 58.684,33.18 C58.621,33.149 58.566,33.133 58.523,33.133 C58.367,33.133 58.238,33.192 58.148,33.309 C58.055,33.426 57.969,33.524 57.891,33.598 C57.625,33.821 57.297,33.926 56.906,33.926 C56.551,33.926 56.371,33.758 56.371,33.414 C56.371,33.243 56.398,33.071 56.453,32.899 C56.508,32.727 56.59,32.579 56.699,32.454 L57.094,32.012 C57.094,31.996 57.102,31.981 57.117,31.965 C57.133,31.95 57.141,31.934 57.141,31.914 C57.188,31.868 57.211,31.821 57.211,31.774 C57.211,31.715 57.18,31.657 57.117,31.602 C57.059,31.547 56.992,31.512 56.934,31.496 L54.43,30.887 C54.258,30.825 54.172,30.692 54.172,30.489 L54.172,30.465 C54.172,30.45 54.184,30.411 54.195,30.348 L55.156,29.391 C55.188,29.375 55.23,29.352 55.281,29.321 C55.336,29.289 55.371,29.274 55.391,29.274 L59.457,29.274 C59.473,29.274 59.508,29.262 59.562,29.239 C59.613,29.215 59.652,29.188 59.668,29.157 L62.684,25.93 C62.715,25.899 62.73,25.844 62.73,25.766 C62.73,25.61 62.668,25.504 62.543,25.438 L52.141,22.051 C52.062,22.036 52.023,21.993 52.012,21.922 C52.004,21.852 52,21.793 52,21.746 L52,21.633 C52,21.586 52.016,21.547 52.047,21.516 L52.867,20.723 C52.879,20.692 52.914,20.661 52.969,20.629 C53.023,20.598 53.066,20.582 53.098,20.582 L67.637,20.582 L71.191,16.821 C71.438,16.555 71.754,16.352 72.137,16.211 C72.52,16.071 72.887,16 73.246,16 C73.48,16 73.699,16.051 73.891,16.153 C74.086,16.254 74.223,16.446 74.301,16.723 L74.301,17.098 C74.301,17.395 74.254,17.723 74.16,18.082 C74.066,18.438 73.902,18.719 73.668,18.922 L69.836,22.594 C69.789,22.625 69.762,22.676 69.754,22.743 C69.746,22.813 69.742,22.864 69.742,22.895 L69.742,36.778 C69.742,36.813 69.734,36.895 69.719,37.036 C69.703,37.176 69.695,37.262 69.695,37.293 C69.695,37.325 69.684,37.36 69.66,37.399 C69.637,37.438 69.609,37.465 69.578,37.481 L68.832,38.254 C68.723,38.332 68.637,38.371 68.574,38.371 C68.418,38.371 68.309,38.286 68.246,38.114 L64.883,27.875 C64.863,27.797 64.828,27.727 64.766,27.664 C64.699,27.602 64.629,27.567 64.551,27.567" id="Page-1" fill="#FEFEFE" sketch:type="MSShapeGroup"></path>
            </g>
        </g>
    </g>
</svg>