<?xml version="1.0" encoding="UTF-8" standalone="no"?>
<svg width="82px" height="72px" viewBox="0 0 82 72" version="1.1" xmlns="http://www.w3.org/2000/svg" xmlns:xlink="http://www.w3.org/1999/xlink" xmlns:sketch="http://www.bohemiancoding.com/sketch/ns">
    <!-- Generator: Sketch 3.4 (15588) - http://www.bohemiancoding.com/sketch -->
    <title>HOME</title>
    <desc>Created with Sketch.</desc>
    <defs></defs>
    <g id="Page-1" stroke="none" stroke-width="1" fill="none" fill-rule="evenodd" sketch:type="MSPage">
        <g id="HIGH-RES-DESKTOP" sketch:type="MSArtboardGroup" transform="translate(-580.000000, -2621.000000)" fill="#404040">
            <g id="HOME" sketch:type="MSLayerGroup" transform="translate(580.000000, 2621.595602)">
                <path d="M11.0842727,69.2092 C11.0842727,69.2092 11.0239091,71 12.7933182,71 C15.0154545,71 33.3509091,70.9741 33.3509091,70.9741 L33.3810909,54.4536 C33.3810909,54.4536 33.0981364,51.7341 35.7956364,51.7341 L44.3144545,51.7341 C47.5137273,51.7341 47.3062273,54.4536 47.3062273,54.4536 L47.2760455,70.9297 L67.3922273,70.9297 C69.6634091,70.9297 69.5615455,68.7023 69.5615455,68.7023 L69.5615455,38.2365 L41.1906364,13.5057 L11.0842727,38.2365 L11.0842727,69.2092 Z" id="Fill-1" sketch:type="MSShapeGroup"></path>
                <path d="M0,35.9388 C0,35.9388 2.55036364,40.5638 8.134,35.9388 L41.4396364,8.3035 L72.6853636,35.7649 C79.1405,40.3307 81.5550455,35.7649 81.5550455,35.7649 L41.4396364,0.1376 L0,35.9388 Z" id="Fill-3" sketch:type="MSShapeGroup"></path>
                <path d="M71.9157273,8.2295 L63.8873636,8.2295 L63.9137727,17.7866 L71.9157273,24.4466 L71.9157273,8.2295 Z" id="Fill-5" sketch:type="MSShapeGroup"></path>
            </g>
        </g>
    </g>
</svg>