<?xml version="1.0" encoding="UTF-8" standalone="no"?>
<svg width="79px" height="34px" viewBox="0 0 79 34" version="1.1" xmlns="http://www.w3.org/2000/svg" xmlns:xlink="http://www.w3.org/1999/xlink" xmlns:sketch="http://www.bohemiancoding.com/sketch/ns">
    <!-- Generator: Sketch 3.4 (15588) - http://www.bohemiancoding.com/sketch -->
    <title>Page 1 Copy 2</title>
    <desc>Created with Sketch.</desc>
    <defs>
        <path id="path-1" d="M2.27373675e-13,0.183402878 L76.7960035,0.183402878 L76.7960035,37 L2.27373675e-13,37 L2.27373675e-13,0.183402878 Z"></path>
    </defs>
    <g id="Page-1" stroke="none" stroke-width="1" fill="none" fill-rule="evenodd" sketch:type="MSPage">
        <g id="HIGH-RES-DESKTOP" sketch:type="MSArtboardGroup" transform="translate(-1163.000000, -2576.000000)">
            <g id="Page-1-Copy-2" sketch:type="MSLayerGroup" transform="translate(1201.127590, 2588.500000) rotate(-10.000000) translate(-1201.127590, -2588.500000) translate(1162.627590, 2570.000000)">
                <mask id="mask-2" sketch:name="Clip 2" fill="white">
                    <use xlink:href="#path-1"></use>
                </mask>
                <g id="Clip-2"></g>
                <path d="M2.17498264,17.4467777 C2.17177431,17.4467777 2.16963542,17.4467777 2.16669444,17.4457129 C1.20900694,17.2886626 0.289819444,17.8897129 0.0558784722,18.8288209 C-0.180201389,19.7697921 0.351579861,20.7325906 1.27584722,21.0392381 L27.3382083,29.6727489 L18.6687569,33.1092237 C18.0391215,33.3597058 17.6535868,33.996159 17.7268438,34.6680151 C17.7998333,35.3385403 18.3126319,35.8791662 18.9821042,35.9883029 L24.6656667,36.9199576 C24.8284896,36.9460439 24.9945208,36.9460439 25.1576111,36.919159 L46.755309,33.3432022 L67.5573403,36.7163245 C75.508125,37.8963317 76.6088507,35.0702237 76.7561667,34.1761014 C76.8711319,33.482418 76.7917257,32.3793388 75.7639896,31.0609144 C74.721816,29.7235906 72.9264861,28.4312525 70.2769375,27.1106986 C69.393309,26.6688281 68.9714132,26.337159 68.5254549,25.9855259 C66.9568472,24.7482885 65.7900833,24.0463532 58.2999618,22.8184324 L17.3308819,16.1043964 L10.3337743,1.67120216 C10.0693542,1.12738201 9.55655556,0.744605036 8.95713194,0.646914388 L6.27924306,0.208238129 C5.72794444,0.117734532 5.16595139,0.27771295 4.74619444,0.644784892 C4.3264375,1.01185683 4.09463542,1.54742518 4.11335069,2.10269137 L4.65422222,17.8638928 L2.17498264,17.4467777 Z" id="Fill-1" fill="#404040" sketch:type="MSShapeGroup" mask="url(#mask-2)"></path>
            </g>
        </g>
    </g>
</svg>