<?xml version="1.0" encoding="UTF-8" standalone="no"?>
<svg width="79px" height="40px" viewBox="0 0 79 40" version="1.1" xmlns="http://www.w3.org/2000/svg" xmlns:xlink="http://www.w3.org/1999/xlink" xmlns:sketch="http://www.bohemiancoding.com/sketch/ns">
    <!-- Generator: Sketch 3.4 (15588) - http://www.bohemiancoding.com/sketch -->
    <title>Fill 1</title>
    <desc>Created with Sketch.</desc>
    <defs></defs>
    <g id="Page-1" stroke="none" stroke-width="1" fill="none" fill-rule="evenodd" sketch:type="MSPage">
        <g id="HIGH-RES-DESKTOP" sketch:type="MSArtboardGroup" transform="translate(-1027.000000, -2609.000000)" fill="#404040">
            <path d="M1035.12537,2643.28231 C1034.25396,2643.7365 1033.87839,2644.77762 1034.25584,2645.68008 C1034.63544,2646.58335 1035.64429,2647.04293 1036.57235,2646.73277 L1062.74174,2638.00054 L1057.84859,2646.01446 C1057.49315,2646.59708 1057.56859,2647.34581 1058.03221,2647.8455 C1058.49664,2648.34385 1059.23597,2648.47227 1059.84,2648.15781 L1064.97208,2645.48327 C1065.11893,2645.40654 1065.25315,2645.30558 1065.36752,2645.18577 L1080.56993,2629.25916 L1099.33154,2619.44166 C1106.43705,2615.59973 1105.61396,2612.64762 1105.19248,2611.83373 C1104.86631,2611.20373 1104.1353,2610.35835 1102.51195,2609.91035 C1100.8655,2609.45696 1098.64242,2609.49277 1095.71463,2610.02181 C1094.73718,2610.19735 1094.19731,2610.18254 1093.62684,2610.16693 C1091.61852,2610.11227 1090.2553,2610.24689 1083.49262,2613.77193 L1046.49799,2633.05262 L1032.15221,2625.58443 C1031.61127,2625.30362 1030.96725,2625.30362 1030.42631,2625.5855 L1028.00913,2626.8455 C1027.51087,2627.10531 1027.15544,2627.57431 1027.04,2628.12435 C1026.92483,2628.67546 1027.06121,2629.24866 1027.41235,2629.68723 L1037.3694,2642.12435 L1035.12537,2643.28231 Z" id="Fill-1" sketch:type="MSShapeGroup"></path>
        </g>
    </g>
</svg>