<?xml version="1.0" encoding="UTF-8" standalone="no"?>
<svg width="67px" height="35px" viewBox="0 0 67 35" version="1.1" xmlns="http://www.w3.org/2000/svg" xmlns:xlink="http://www.w3.org/1999/xlink" xmlns:sketch="http://www.bohemiancoding.com/sketch/ns">
    <!-- Generator: Sketch 3.4 (15588) - http://www.bohemiancoding.com/sketch -->
    <title>taxi</title>
    <desc>Created with Sketch.</desc>
    <defs>
        <path id="path-1" d="M0,0.0256092545 L66.9916693,0.0256092545 L66.9916693,34 L0,34 L0,0.0256092545 Z"></path>
    </defs>
    <g id="Page-1" stroke="none" stroke-width="1" fill="none" fill-rule="evenodd" sketch:type="MSPage">
        <g id="HIGH-RES-DESKTOP" sketch:type="MSArtboardGroup" transform="translate(-723.000000, -2657.000000)">
            <g id="taxi" sketch:type="MSLayerGroup" transform="translate(723.000000, 2657.595602)">
                <path d="M15.0630357,23.1957789 C12.0428955,23.1957789 9.58560847,25.6184319 9.58560847,28.5973213 C9.58560847,31.5772596 12.0428955,34 15.0630357,34 C18.0842394,34 20.5414378,31.5765604 20.5414378,28.5973213 C20.5421468,25.6184319 18.0842394,23.1957789 15.0630357,23.1957789" id="Fill-1" fill="#404040" sketch:type="MSShapeGroup"></path>
                <path d="M50.3738968,23.1957789 C47.3534021,23.1957789 44.8962037,25.6184319 44.8962037,28.5973213 C44.8962037,31.5772596 47.3537566,34 50.3738968,34 C53.394746,34 55.8520331,31.5765604 55.8520331,28.5973213 C55.8527421,25.6184319 53.394746,23.1957789 50.3738968,23.1957789" id="Fill-3" fill="#404040" sketch:type="MSShapeGroup"></path>
                <g id="Group-7">
                    <mask id="mask-2" sketch:name="Clip 6" fill="white">
                        <use xlink:href="#path-1"></use>
                    </mask>
                    <g id="Clip-6"></g>
                    <path d="M64.5541455,17.651419 C64.3581971,17.651419 64.1996481,17.4947044 64.1996481,17.3018046 L64.1996481,15.903347 C64.1996481,15.7100977 64.3581971,15.5537326 64.5541455,15.5537326 L65.0717116,15.5537326 C65.569869,16.164509 65.872078,16.9136452 65.9205556,17.651419 L64.5541455,17.651419 Z M64.1996481,19.399491 C64.1996481,19.5923907 64.0407447,19.7491054 63.8451508,19.7491054 L62.4271614,19.7491054 C62.231213,19.7491054 62.072664,19.5923907 62.072664,19.399491 L62.072664,18.0010334 C62.072664,17.8077841 62.231213,17.651419 62.4271614,17.651419 L63.8451508,17.651419 C64.0407447,17.651419 64.1996481,17.8077841 64.1996481,18.0010334 L64.1996481,19.399491 Z M61.7181667,17.651419 L60.3001772,17.651419 C60.1042288,17.651419 59.9456799,17.4947044 59.9456799,17.3018046 L59.9456799,15.903347 C59.9456799,15.7100977 60.1042288,15.5537326 60.3001772,15.5537326 L61.7181667,15.5537326 C61.9137606,15.5537326 62.072664,15.7100977 62.072664,15.903347 L62.072664,17.3018046 C62.072664,17.4947044 61.9137606,17.651419 61.7181667,17.651419 L61.7181667,17.651419 Z M59.9456799,19.399491 C59.9456799,19.5923907 59.7867765,19.7491054 59.5911825,19.7491054 L58.1731931,19.7491054 C57.9772447,19.7491054 57.8186958,19.5923907 57.8186958,19.399491 L57.8186958,18.0010334 C57.8186958,17.8077841 57.9772447,17.651419 58.1731931,17.651419 L59.5911825,17.651419 C59.7867765,17.651419 59.9456799,17.8077841 59.9456799,18.0010334 L59.9456799,19.399491 Z M57.4641984,17.651419 L56.046209,17.651419 C55.8502606,17.651419 55.6917116,17.4947044 55.6917116,17.3018046 L55.6917116,15.903347 C55.6917116,15.7100977 55.8502606,15.5537326 56.046209,15.5537326 L57.4641984,15.5537326 C57.6597923,15.5537326 57.8186958,15.7100977 57.8186958,15.903347 L57.8186958,17.3018046 C57.8186958,17.4947044 57.6597923,17.651419 57.4641984,17.651419 L57.4641984,17.651419 Z M55.6917116,19.399491 C55.6917116,19.5923907 55.5328082,19.7491054 55.3372143,19.7491054 L53.9192249,19.7491054 C53.7232765,19.7491054 53.5647275,19.5923907 53.5647275,19.399491 L53.5647275,18.0010334 C53.5647275,17.8077841 53.7232765,17.651419 53.9192249,17.651419 L55.3372143,17.651419 C55.5328082,17.651419 55.6917116,17.8077841 55.6917116,18.0010334 L55.6917116,19.399491 Z M53.2102302,17.651419 L51.7922407,17.651419 C51.5962923,17.651419 51.4377434,17.4947044 51.4377434,17.3018046 L51.4377434,15.903347 C51.4377434,15.7100977 51.5962923,15.5537326 51.7922407,15.5537326 L53.2102302,15.5537326 C53.4058241,15.5537326 53.5647275,15.7100977 53.5647275,15.903347 L53.5647275,17.3018046 C53.5647275,17.4947044 53.4058241,17.651419 53.2102302,17.651419 L53.2102302,17.651419 Z M51.4377434,19.399491 C51.4377434,19.5923907 51.2788399,19.7491054 51.083246,19.7491054 L49.6652566,19.7491054 C49.4693082,19.7491054 49.3107593,19.5923907 49.3107593,19.399491 L49.3107593,18.0010334 C49.3107593,17.8077841 49.4693082,17.651419 49.6652566,17.651419 L51.083246,17.651419 C51.2788399,17.651419 51.4377434,17.8077841 51.4377434,18.0010334 L51.4377434,19.399491 Z M48.9562619,17.651419 L47.5382725,17.651419 C47.3423241,17.651419 47.1837751,17.4947044 47.1837751,17.3018046 L47.1837751,15.903347 C47.1837751,15.7100977 47.3423241,15.5537326 47.5382725,15.5537326 L48.9562619,15.5537326 C49.1518558,15.5537326 49.3107593,15.7100977 49.3107593,15.903347 L49.3107593,17.3018046 C49.3107593,17.4947044 49.1518558,17.651419 48.9562619,17.651419 L48.9562619,17.651419 Z M47.1837751,19.399491 C47.1837751,19.5923907 47.0248717,19.7491054 46.8292778,19.7491054 L45.4112884,19.7491054 C45.2153399,19.7491054 45.056791,19.5923907 45.056791,19.399491 L45.056791,18.0010334 C45.056791,17.8077841 45.2153399,17.651419 45.4112884,17.651419 L46.8292778,17.651419 C47.0248717,17.651419 47.1837751,17.8077841 47.1837751,18.0010334 L47.1837751,19.399491 Z M44.7022937,17.651419 L43.2843042,17.651419 C43.0883558,17.651419 42.9298069,17.4947044 42.9298069,17.3018046 L42.9298069,15.903347 C42.9298069,15.7100977 43.0883558,15.5537326 43.2843042,15.5537326 L44.7022937,15.5537326 C44.8978876,15.5537326 45.056791,15.7100977 45.056791,15.903347 L45.056791,17.3018046 C45.056791,17.4947044 44.8978876,17.651419 44.7022937,17.651419 L44.7022937,17.651419 Z M42.9298069,19.399491 C42.9298069,19.5923907 42.7709034,19.7491054 42.5753095,19.7491054 L41.1573201,19.7491054 C40.9613717,19.7491054 40.8028228,19.5923907 40.8028228,19.399491 L40.8028228,18.0010334 C40.8028228,17.8077841 40.9613717,17.651419 41.1573201,17.651419 L42.5753095,17.651419 C42.7709034,17.651419 42.9298069,17.8077841 42.9298069,18.0010334 L42.9298069,19.399491 Z M40.4483254,17.651419 L39.030336,17.651419 C38.8343876,17.651419 38.6758386,17.4947044 38.6758386,17.3018046 L38.6758386,15.903347 C38.6758386,15.7100977 38.8343876,15.5537326 39.030336,15.5537326 L40.4483254,15.5537326 C40.6439193,15.5537326 40.8028228,15.7100977 40.8028228,15.903347 L40.8028228,17.3018046 C40.8028228,17.4947044 40.6439193,17.651419 40.4483254,17.651419 L40.4483254,17.651419 Z M38.6758386,19.399491 C38.6758386,19.5923907 38.5169352,19.7491054 38.3213413,19.7491054 L36.9033519,19.7491054 C36.7074034,19.7491054 36.5488545,19.5923907 36.5488545,19.399491 L36.5488545,18.0010334 C36.5488545,17.8077841 36.7074034,17.651419 36.9033519,17.651419 L38.3213413,17.651419 C38.5169352,17.651419 38.6758386,17.8077841 38.6758386,18.0010334 L38.6758386,19.399491 Z M36.1943571,17.651419 L34.7763677,17.651419 C34.5804193,17.651419 34.4218704,17.4947044 34.4218704,17.3018046 L34.4218704,15.903347 C34.4218704,15.7100977 34.5804193,15.5537326 34.7763677,15.5537326 L36.1943571,15.5537326 C36.3899511,15.5537326 36.5488545,15.7100977 36.5488545,15.903347 L36.5488545,17.3018046 C36.5488545,17.4947044 36.3899511,17.651419 36.1943571,17.651419 L36.1943571,17.651419 Z M34.4218704,19.399491 C34.4218704,19.5923907 34.2629669,19.7491054 34.067373,19.7491054 L32.6493836,19.7491054 C32.4534352,19.7491054 32.2948862,19.5923907 32.2948862,19.399491 L32.2948862,18.0010334 C32.2948862,17.8077841 32.4534352,17.651419 32.6493836,17.651419 L34.067373,17.651419 C34.2629669,17.651419 34.4218704,17.8077841 34.4218704,18.0010334 L34.4218704,19.399491 Z M31.9403889,17.651419 L30.5223995,17.651419 C30.3264511,17.651419 30.1679021,17.4947044 30.1679021,17.3018046 L30.1679021,15.903347 C30.1679021,15.7100977 30.3264511,15.5537326 30.5223995,15.5537326 L31.9403889,15.5537326 C32.1359828,15.5537326 32.2948862,15.7100977 32.2948862,15.903347 L32.2948862,17.3018046 C32.2948862,17.4947044 32.1359828,17.651419 31.9403889,17.651419 L31.9403889,17.651419 Z M30.1679021,19.399491 C30.1679021,19.5923907 30.0089987,19.7491054 29.8134048,19.7491054 L28.3954153,19.7491054 C28.1994669,19.7491054 28.040918,19.5923907 28.040918,19.399491 L28.040918,18.0010334 C28.040918,17.8077841 28.1994669,17.651419 28.3954153,17.651419 L29.8134048,17.651419 C30.0089987,17.651419 30.1679021,17.8077841 30.1679021,18.0010334 L30.1679021,19.399491 Z M27.6864206,17.651419 L26.2684312,17.651419 C26.0724828,17.651419 25.9139339,17.4947044 25.9139339,17.3018046 L25.9139339,15.903347 C25.9139339,15.7100977 26.0724828,15.5537326 26.2684312,15.5537326 L27.6864206,15.5537326 C27.8820146,15.5537326 28.040918,15.7100977 28.040918,15.903347 L28.040918,17.3018046 C28.040918,17.4947044 27.8820146,17.651419 27.6864206,17.651419 L27.6864206,17.651419 Z M25.9139339,19.399491 C25.9139339,19.5923907 25.7550304,19.7491054 25.5594365,19.7491054 L24.1414471,19.7491054 C23.9454987,19.7491054 23.7869497,19.5923907 23.7869497,19.399491 L23.7869497,18.0010334 C23.7869497,17.8077841 23.9454987,17.651419 24.1414471,17.651419 L25.5594365,17.651419 C25.7550304,17.651419 25.9139339,17.8077841 25.9139339,18.0010334 L25.9139339,19.399491 Z M23.4324524,17.651419 L22.014463,17.651419 C21.8185146,17.651419 21.6599656,17.4947044 21.6599656,17.3018046 L21.6599656,15.903347 C21.6599656,15.7100977 21.8185146,15.5537326 22.014463,15.5537326 L23.4324524,15.5537326 C23.6280463,15.5537326 23.7869497,15.7100977 23.7869497,15.903347 L23.7869497,17.3018046 C23.7869497,17.4947044 23.6280463,17.651419 23.4324524,17.651419 L23.4324524,17.651419 Z M21.6599656,19.399491 C21.6599656,19.5923907 21.5010622,19.7491054 21.3054683,19.7491054 L19.8874788,19.7491054 C19.6915304,19.7491054 19.5329815,19.5923907 19.5329815,19.399491 L19.5329815,18.0010334 C19.5329815,17.8077841 19.6915304,17.651419 19.8874788,17.651419 L21.3054683,17.651419 C21.5010622,17.651419 21.6599656,17.8077841 21.6599656,18.0010334 L21.6599656,19.399491 Z M19.1784841,17.651419 L17.7604947,17.651419 C17.5645463,17.651419 17.4059974,17.4947044 17.4059974,17.3018046 L17.4059974,15.903347 C17.4059974,15.7100977 17.5645463,15.5537326 17.7604947,15.5537326 L19.1784841,15.5537326 C19.374078,15.5537326 19.5329815,15.7100977 19.5329815,15.903347 L19.5329815,17.3018046 C19.5329815,17.4947044 19.374078,17.651419 19.1784841,17.651419 L19.1784841,17.651419 Z M17.4059974,19.399491 C17.4059974,19.5923907 17.2470939,19.7491054 17.0515,19.7491054 L15.6335106,19.7491054 C15.4375622,19.7491054 15.2790132,19.5923907 15.2790132,19.399491 L15.2790132,18.0010334 C15.2790132,17.8077841 15.4375622,17.651419 15.6335106,17.651419 L17.0515,17.651419 C17.2470939,17.651419 17.4059974,17.8077841 17.4059974,18.0010334 L17.4059974,19.399491 Z M14.9245159,17.651419 L13.5065265,17.651419 C13.310578,17.651419 13.1520291,17.4947044 13.1520291,17.3018046 L13.1520291,15.903347 C13.1520291,15.7100977 13.310578,15.5537326 13.5065265,15.5537326 L14.9245159,15.5537326 C15.1201098,15.5537326 15.2790132,15.7100977 15.2790132,15.903347 L15.2790132,17.3018046 C15.2790132,17.4947044 15.1201098,17.651419 14.9245159,17.651419 L14.9245159,17.651419 Z M13.1520291,19.399491 C13.1520291,19.5923907 12.9931257,19.7491054 12.7975317,19.7491054 L11.3795423,19.7491054 C11.1835939,19.7491054 11.025045,19.5923907 11.025045,19.399491 L11.025045,18.0010334 C11.025045,17.8077841 11.1835939,17.651419 11.3795423,17.651419 L12.7975317,17.651419 C12.9931257,17.651419 13.1520291,17.8077841 13.1520291,18.0010334 L13.1520291,19.399491 Z M10.6705476,17.651419 L9.2525582,17.651419 C9.05660979,17.651419 8.89806085,17.4947044 8.89806085,17.3018046 L8.89806085,15.903347 C8.89806085,15.7100977 9.05660979,15.5537326 9.2525582,15.5537326 L10.6705476,15.5537326 C10.8661415,15.5537326 11.025045,15.7100977 11.025045,15.903347 L11.025045,17.3018046 C11.025045,17.4947044 10.8661415,17.651419 10.6705476,17.651419 L10.6705476,17.651419 Z M8.89806085,19.399491 C8.89806085,19.5923907 8.73915741,19.7491054 8.54356349,19.7491054 L7.12557407,19.7491054 C6.92962566,19.7491054 6.77107672,19.5923907 6.77107672,19.399491 L6.77107672,18.0010334 C6.77107672,17.8077841 6.92962566,17.651419 7.12557407,17.651419 L8.54356349,17.651419 C8.73915741,17.651419 8.89806085,17.8077841 8.89806085,18.0010334 L8.89806085,19.399491 Z M6.41657937,17.651419 L4.99858995,17.651419 C4.80264153,17.651419 4.64409259,17.4947044 4.64409259,17.3018046 L4.64409259,15.903347 C4.64409259,15.7100977 4.80264153,15.5537326 4.99858995,15.5537326 L6.41657937,15.5537326 C6.61217328,15.5537326 6.77107672,15.7100977 6.77107672,15.903347 L6.77107672,17.3018046 C6.77107672,17.4947044 6.61217328,17.651419 6.41657937,17.651419 L6.41657937,17.651419 Z M4.64409259,19.399491 C4.64409259,19.5923907 4.48518915,19.7491054 4.28959524,19.7491054 L2.87160582,19.7491054 C2.67565741,19.7491054 2.51710847,19.5923907 2.51710847,19.399491 L2.51710847,18.0010334 C2.51710847,17.8077841 2.67565741,17.651419 2.87160582,17.651419 L4.28959524,17.651419 C4.48518915,17.651419 4.64409259,17.8077841 4.64409259,18.0010334 L4.64409259,19.399491 Z M2.16261111,17.651419 L1.06623942,17.651419 C1.08804101,16.7716144 1.24907143,16.077455 1.56129497,15.5537326 L2.16261111,15.5537326 C2.35820503,15.5537326 2.51710847,15.7100977 2.51710847,15.903347 L2.51710847,17.3018046 C2.51710847,17.4947044 2.35820503,17.651419 2.16261111,17.651419 L2.16261111,17.651419 Z M13.8673161,12.4263445 C15.0477923,10.7205758 16.0001495,9.40130591 17.5822712,7.05198458 C18.8139722,5.2213162 19.0974815,5.36133676 19.9262963,5.36133676 C20.5448942,5.36133676 29.4180516,5.39507455 29.674619,5.38825707 C30.7595582,5.36133676 30.7713452,6.25136761 30.7713452,6.25136761 L30.7467963,13.0466478 C30.7457328,13.3444319 30.5016614,13.5851414 30.1998069,13.5857532 C27.4911812,13.5925707 15.5594206,13.6690488 14.4668598,13.6229871 C13.0066852,13.5608432 13.858631,12.438581 13.8673161,12.4263445 L13.8673161,12.4263445 Z M34.4641442,5.3647455 C34.8096019,5.35792802 38.7555119,5.38484833 39.5856561,5.38484833 C40.4161548,5.38484833 40.8004299,5.34971208 42.2821402,7.21997429 L46.7714947,12.4419897 C47.1267011,12.9572339 46.8050833,13.6226375 46.4349881,13.6226375 C42.6989405,13.6226375 36.0797659,13.595018 34.142881,13.5864524 C33.840672,13.5851414 33.5966005,13.3426838 33.5973095,13.0442879 L33.6093624,6.22785604 C33.6093624,6.22785604 33.5069127,5.38353728 34.4641442,5.3647455 L34.4641442,5.3647455 Z M62.8651429,13.343383 L51.0496574,13.3768586 C49.3499312,11.7230077 46.5478955,8.57306941 44.6749974,6.4671671 C43.8423717,5.53133676 43.1849563,4.79216452 42.8620093,4.4514653 L42.8491587,4.43844216 C41.8452222,3.44833419 40.7370635,3.11506427 39.6708241,3.11506427 L38.5010714,3.11506427 L38.5010714,1.55482262 C38.5010714,0.857254499 38.2746362,0.0256092545 37.1973188,0.0256092545 L36.0718783,0.0256092545 C35.5584775,0.0256092545 34.6971376,0.224277635 34.6971376,1.55482262 L34.6971376,3.11506427 L19.4655384,3.11506427 C17.7255767,3.11506427 16.9234378,4.13252956 16.8898492,4.17588175 L10.2907923,13.0774139 C10.251709,13.1299434 10.2229947,13.1808997 10.2008386,13.2239023 C10.1972937,13.2239023 10.1935714,13.2239023 10.1894061,13.2235527 L10.1734537,13.2225039 L4.12307011,13.2436555 L4.1041045,13.2440051 C1.38094444,13.3498509 0,14.9033625 0,17.8610129 L0,24.1162262 C0,26.3597018 1.85074206,28.1849512 4.12590608,28.1849512 L7.35440212,28.1849512 C7.7923836,28.1849512 8.16247884,27.860946 8.21574206,27.4310951 C8.41479233,25.8219075 9.23004762,24.3282674 10.5116442,23.2254087 C11.7977606,22.1188792 13.4338545,21.5095013 15.1184259,21.5095013 C18.5259431,21.5095013 21.4020688,24.0540823 21.8088545,27.4286478 C21.8607884,27.8598972 22.2312381,28.1849512 22.6701944,28.1849512 L42.6982315,28.1849512 C43.1368333,28.1849512 43.5072831,27.8598972 43.5595714,27.429347 C43.9698135,24.0544319 46.8767804,21.5095013 50.3206336,21.5095013 C53.7651958,21.5095013 56.6718082,24.0544319 57.0816958,27.4289974 C57.1339841,27.8598972 57.5043452,28.1849512 57.9430357,28.1849512 L62.8661177,28.1849512 C65.1409272,28.1849512 66.9916693,26.3597018 66.9916693,24.1158766 L66.9916693,17.8613625 C66.9920238,16.7784319 66.562373,15.6592288 65.812877,14.7906118 C65.0079907,13.8575784 63.9615146,13.343383 62.8651429,13.343383 L62.8651429,13.343383 Z" id="Fill-5" fill="#404040" sketch:type="MSShapeGroup" mask="url(#mask-2)"></path>
                </g>
            </g>
        </g>
    </g>
</svg>