<?xml version="1.0" encoding="UTF-8" standalone="no"?>
<svg width="28px" height="33px" viewBox="0 0 28 33" version="1.1" xmlns="http://www.w3.org/2000/svg" xmlns:xlink="http://www.w3.org/1999/xlink" xmlns:sketch="http://www.bohemiancoding.com/sketch/ns">
    <!-- Generator: Sketch 3.4 (15588) - http://www.bohemiancoding.com/sketch -->
    <title>Page 1</title>
    <desc>Created with Sketch.</desc>
    <defs></defs>
    <g id="Page-1" stroke="none" stroke-width="1" fill="none" fill-rule="evenodd" sketch:type="MSPage">
        <g id="HIGH-RES-DESKTOP" sketch:type="MSArtboardGroup" transform="translate(-846.000000, -2659.000000)" fill="#404040">
            <g id="Page-1" sketch:type="MSLayerGroup" transform="translate(846.000000, 2659.595602)">
                <path d="M21.3325202,3.57980856 C21.3325202,5.55615113 19.7241387,7.15848866 17.7399422,7.15848866 C15.755341,7.15848866 14.1469595,5.55615113 14.1469595,3.57980856 C14.1469595,1.60338539 15.755341,0.00104785894 17.7399422,0.00104785894 C19.7241387,0.00104785894 21.3325202,1.60338539 21.3325202,3.57980856" id="Fill-1" sketch:type="MSShapeGroup"></path>
                <path d="M3.30715607,31.0965038 C3.03055491,31.0965038 2.80647399,30.8732292 2.80647399,30.5980453 C2.80647399,30.3228615 3.03055491,30.0996675 3.30715607,30.0996675 C3.58310983,30.0996675 3.80759538,30.3228615 3.80759538,30.5980453 C3.80727168,30.8732292 3.58310983,31.0965038 3.30715607,31.0965038 M26.7080347,12.3090378 C23.4975838,11.9800101 20.3845665,8.51933501 19.6012139,8.04014106 C19.1203584,7.69442821 18.5520231,7.46801008 18.008289,7.38361713 C18.008289,7.38361713 17.621711,7.30365743 17.2224277,7.34774811 C16.8399769,7.38990428 16.2589364,7.4098136 15.4076879,8.04167254 C15.3460231,8.07979849 14.9113757,8.45670529 14.7741272,8.62105793 C13.7149017,9.71486146 10.7794335,12.9491184 9.31809249,16.6078388 C9.11165318,17.1276574 9.24283237,17.6922116 9.60221965,18.0729068 L7.88636994,21.1185491 L5.46906358,19.7658438 C5.18048555,19.6040705 4.8143815,19.7051486 4.65220809,19.9929068 L0.0767976879,28.0457834 C-0.0850520231,28.3332997 0.0173988439,28.6994861 0.306624277,28.859728 L2.13657803,29.8846146 C1.84516763,30.4012897 1.91532948,31.0694207 2.35531792,31.5133904 C2.88610405,32.0530378 3.75798844,32.0596474 4.29880925,31.5294307 C4.80143353,31.035728 4.84254335,30.2513652 4.41639306,29.7107506 L6.91494798,25.3448866 L8.66494798,22.2384685 L10.8344624,18.4926146 C11.3035838,18.4182972 11.7239884,18.1068413 11.9130289,17.6342569 C12.5313757,16.0832645 13.4888786,14.5892594 14.4137688,13.350932 L14.849711,18.3395466 C14.8999653,18.925864 15.1452486,19.4173098 15.5085202,19.8055819 C14.3850405,21.834801 11.3611214,27.3849068 10.2692023,29.2705693 C9.78017341,30.1166751 10.0710173,31.1979043 10.9200809,31.6855617 C11.238763,31.8675668 11.5915145,31.942529 11.9332601,31.9179446 C12.5012717,31.8769975 13.0390173,31.5643325 13.3446705,31.0366952 C14.3616532,29.280403 17.0144509,23.9501058 18.1780694,21.9465995 C19.1108902,23.4904181 20.7003353,26.3319698 22.7168208,30.8694408 C23.0098497,31.5307204 23.6594335,31.9223778 24.3413064,31.9223778 C24.5825434,31.9223778 24.8255607,31.8741763 25.0595145,31.7705995 C25.9556763,31.3757985 26.3612717,30.3319698 25.9636069,29.4396776 C23.5857919,24.0848766 21.8351445,21.112262 20.8650173,19.5470831 C21.2484393,19.0674861 21.4795607,18.4718186 21.4191908,17.7724937 L21.0066358,13.0470529 C22.2015723,13.9972997 23.7605896,14.7980252 26.4229364,15.0722418 C26.4722197,15.0773199 26.520289,15.0798186 26.5686012,15.0798186 C27.2738613,15.0798186 27.8802312,14.5483123 27.9541965,13.8339144 C28.0316416,13.0700252 27.4749595,12.3873854 26.7080347,12.3090378" id="Fill-3" sketch:type="MSShapeGroup"></path>
            </g>
        </g>
    </g>
</svg>