<?xml version="1.0" encoding="UTF-8" standalone="no"?>
<svg width="383px" height="199px" viewBox="0 0 383 199" version="1.1" xmlns="http://www.w3.org/2000/svg" xmlns:xlink="http://www.w3.org/1999/xlink" xmlns:sketch="http://www.bohemiancoding.com/sketch/ns">
    <!-- Generator: Sketch 3.3.3 (12081) - http://www.bohemiancoding.com/sketch -->
    <title>cloudJOINT + cloudJOINT</title>
    <desc>Created with Sketch.</desc>
    <defs></defs>
    <g id="Page-1" stroke="none" stroke-width="1" fill="none" fill-rule="evenodd" sketch:type="MSPage">
        <g id="HIGH-RES-DESKTOP" sketch:type="MSArtboardGroup" transform="translate(0.000000, -97.000000)" fill="#FFFFFF">
            <g id="top-header" sketch:type="MSLayerGroup" transform="translate(-6.000000, -80.000000)">
                <g id="BANNER" sketch:type="MSShapeGroup">
                    <g id="cloudJOINT-+-cloudJOINT" transform="translate(1.000000, 177.000000)">
                        <path d="M93.64,24.6084 C100.476207,9.74568889 116.945862,-0.0894666667 133.254138,0.951955556 C149.562414,1.99337778 164.651379,13.8440444 169.546552,29.4564 C176.575517,23.2437778 188.037931,22.8397778 195.488276,28.5406667 C202.938621,34.2370667 205.561034,45.4233778 201.423448,53.8445333 C209.120345,43.0622222 226.15931,40.5753778 236.608621,48.7092444 C247.062414,56.8476 248.855517,73.9906667 240.315862,84.1220889 C231.776207,94.2535111 214.598276,95.3577778 204.834828,86.4069333 C203.969655,95.6001778 196.90931,103.419822 188.450345,107.1052 C179.986897,110.786089 170.366897,110.880356 161.244483,109.502267 C155.788966,108.6808 150.27069,107.293733 145.725172,104.160489 C141.184138,101.027244 137.741379,95.8605333 137.884828,90.3392 C137.566552,103.294133 126.148966,114.996667 113.22069,115.616133 C100.292414,116.2356 87.8124138,105.673244 86.2613793,92.8080889 C85.3244828,104.393911 72.3289655,113.214578 61.14,110.1352 C49.9465517,107.060311 43.2448276,93.2569778 47.3958621,82.4028444 C40.7524138,94.1637333 23.83,98.6032444 12.277931,91.6185333 C0.730344828,84.6383111 -3.22793103,67.5760444 4.06551724,56.2101778 C11.3589655,44.8443111 28.5010345,41.3609333 39.6406897,48.9785778 C34.4541379,35.0181333 41.7027586,17.6371556 55.2675862,11.5188 C68.827931,5.39595556 86.6334483,11.4694222 93.64,24.6084" id="cloudJOINT"></path>
                        <path d="M377.232759,103.985422 C369.163793,96.6640444 355.204483,94.9492889 346.767931,102.683644 C349.811724,90.5591556 348.574483,77.1239111 342.02069,66.4852444 C335.471379,55.8465778 323.291724,48.5027556 310.825172,49.1132444 C298.358621,49.7192444 286.434483,59.0471556 284.107931,71.3287556 C281.037241,51.2768889 263.191379,34.466 243.014483,32.6210667 C237.312414,32.1003556 231.587931,32.8275556 226.145862,34.5153778 C232.215517,35.2425778 237.922069,37.4915111 242.530345,41.0826222 C249.577241,46.5635556 254.185517,55.1597778 255.18069,64.6627556 C256.175862,74.1612444 253.445862,83.5250667 247.69,90.3526667 C241.378276,97.8446222 231.753793,102.136 221.282069,102.140489 C217.395517,102.140489 213.63,101.538978 210.111034,100.380844 C206.202069,107.033378 199.948621,112.635511 192.296552,115.966267 C183.241379,119.907511 172.37069,120.953422 159.805517,119.059111 C154.592069,118.269067 146.89069,116.697956 140.256207,112.123778 C140.018621,111.957689 139.785517,111.7916 139.552414,111.625511 C133.254138,119.440667 123.853793,124.782444 113.682414,125.267244 C113.166897,125.294178 112.646897,125.303156 112.131379,125.303156 C109.392414,125.303156 106.693793,124.935067 104.075862,124.279689 C102.69069,135.201156 107.536552,146.917156 116.672414,153.1612 C127.565517,160.608267 143.47931,159.571333 153.314483,150.773111 C155.52,167.768044 169.205862,182.6532 185.935517,186.257778 C202.66069,189.862356 221.25069,181.930489 230.243103,167.350578 C230.014483,182.145956 241.813103,196.1872 256.408966,198.494489 C271.000345,200.797289 286.546552,191.074356 290.881379,176.934356 C299.627241,186.967022 315.487241,189.916222 327.25,183.694622 C339.012759,177.473022 345.517241,162.691111 342.168621,149.799022 C344.28,158.619689 354.061379,163.831289 362.645862,163.135511 C370.078276,162.529511 376.914483,158.072044 381.235862,151.9896 C385.561724,145.907156 387.516207,138.343378 387.641724,130.878356 C387.807586,120.966889 384.566552,110.642444 377.232759,103.985422" id="cloudJOINT"></path>
                    </g>
                </g>
            </g>
        </g>
    </g>
</svg>