<?xml version="1.0" encoding="UTF-8" standalone="no"?>
<svg width="179px" height="75px" viewBox="0 0 179 75" version="1.1" xmlns="http://www.w3.org/2000/svg" xmlns:xlink="http://www.w3.org/1999/xlink" xmlns:sketch="http://www.bohemiancoding.com/sketch/ns">
    <!-- Generator: Sketch 3.3.3 (12081) - http://www.bohemiancoding.com/sketch -->
    <title>cloud3</title>
    <desc>Created with Sketch.</desc>
    <defs></defs>
    <g id="Page-1" stroke="none" stroke-width="1" fill="none" fill-rule="evenodd" sketch:type="MSPage">
        <g id="HIGH-RES-DESKTOP" sketch:type="MSArtboardGroup" transform="translate(-1388.000000, 0.000000)" fill="#FFFFFF">
            <g id="top-header" sketch:type="MSLayerGroup" transform="translate(-6.000000, -80.000000)">
                <g id="BANNER" sketch:type="MSShapeGroup">
                    <path d="M1400.25433,48.1703389 C1398.96298,57.7835545 1404.43039,68.3540644 1413.58692,71.4025349 C1411.63603,70.7519467 1403.54587,82.1186526 1402.36239,83.8504565 C1398.92292,88.8878683 1396.28475,94.4891232 1394.85472,100.437358 C1391.23033,115.506221 1399.44069,129.165476 1413.64856,134.543672 C1431.94003,141.470888 1451.56292,130.630849 1463.16344,116.596731 C1458.42646,124.976927 1460.94443,136.198025 1467.45662,143.270849 C1473.96882,150.340574 1483.66469,153.729829 1493.21262,154.594182 C1509.53472,156.075045 1526.74751,150.371555 1537.70698,138.125006 C1548.66954,125.878457 1552.38023,107.011398 1545.30711,92.1501036 C1546.48751,94.631633 1557.69662,91.5769663 1559.51807,90.8675153 C1564.03931,89.1109271 1568.05203,86.102731 1571.10934,82.3324173 C1579.32895,72.2018291 1579.23033,57.2785742 1570.52685,47.467084 C1562.7418,38.6965349 1549.04554,35.7595938 1538.49289,40.99528 C1542.81997,38.8483389 1539.24489,25.1457114 1537.99669,21.8308094 C1533.1241,8.86241729 1519.41859,0.404770234 1505.80246,0.50080945 C1487.45243,0.630927097 1472.68056,15.9259467 1468.91131,33.250182 C1463.73361,26.1649663 1455.07944,22.270731 1445.62089,21.2112016 C1425.95793,19.0115938 1402.81852,29.0678291 1400.25433,48.1703389 Z" id="cloud3"></path>
                </g>
            </g>
        </g>
    </g>
</svg>