<?xml version="1.0" encoding="UTF-8" standalone="no"?>
<svg width="539px" height="96px" viewBox="0 0 539 96" version="1.1" xmlns="http://www.w3.org/2000/svg" xmlns:xlink="http://www.w3.org/1999/xlink" xmlns:sketch="http://www.bohemiancoding.com/sketch/ns">
    <!-- Generator: Sketch 3.3.3 (12081) - http://www.bohemiancoding.com/sketch -->
    <title>Artboard 34</title>
    <desc>Created with Sketch.</desc>
    <defs></defs>
    <g id="Page-1" stroke="none" stroke-width="1" fill="none" fill-rule="evenodd" sketch:type="MSPage">
        <g id="Artboard-34" sketch:type="MSArtboardGroup" fill="#000000">
            <g id="Imported-Layers-Copy" sketch:type="MSLayerGroup" transform="translate(10.500000, 9.075145)">
                <path d="M188.22825,65.3900501 L167.4842,36.6134605 L161.70295,36.6134605 L161.70295,75.3900308 L167.73765,75.3900308 L167.63405,46.3780385 L188.6519,75.3900308 L194.2167,75.3900308 L194.2167,36.6134605 L188.182,36.6134605 L188.22825,65.3900501 L188.22825,65.3900501 Z M142.6609,75.3900308 L148.8103,75.3900308 L148.8103,36.6134605 L142.6609,36.6134605 L142.6609,75.3900308 Z M236.34675,36.6134605 L229.20945,36.6134605 L213.1644,54.8136108 L213.1644,36.6134605 L207.02425,36.6134605 L207.02425,75.3900308 L213.1644,75.3900308 L213.1644,57.4067476 L230.14185,75.3900308 L238.07095,75.3900308 L218.9919,55.9350173 L236.34675,36.6134605 L236.34675,36.6134605 Z M42.33725,75.3900308 L65.2865,75.3900308 L65.2865,69.8608478 L48.4774,69.8608478 L48.4774,58.6060039 L64.1469,58.6060039 L64.1469,53.0768208 L48.4774,53.0768208 L48.4774,42.1426435 L65.2865,42.1426435 L65.2865,36.6134605 L42.33725,36.6134605 L42.33725,75.3900308 L42.33725,75.3900308 Z M23.38215,53.0193603 L7.03555,53.0193603 L7.02445,36.6134605 L0.88615,36.6134605 L0.88615,75.3900308 L7.02445,75.3900308 L7.02445,58.5485434 L23.38215,58.5485434 L23.38215,75.3900308 L29.56855,75.3900308 L29.56855,36.6134605 L23.38215,36.6134605 L23.38215,53.0193603 L23.38215,53.0193603 Z M84.40995,36.6134605 L78.2254,36.6134605 L78.2254,75.3900308 L98.84735,75.3900308 L98.84735,69.8608478 L84.40995,69.8608478 L84.40995,36.6134605 L84.40995,36.6134605 Z M245.9427,75.3900308 L252.0736,75.3900308 L252.0736,36.6227283 L245.9427,36.6227283 L245.9427,75.3900308 Z M291.62475,36.6134605 L274.98585,75.3900308 L281.65325,75.3900308 L281.89745,74.8043044 L285.99335,65.0304586 L302.3788,65.0304586 L306.79475,75.3900308 L313.5084,75.3900308 L297.0212,36.6134605 L291.62475,36.6134605 L291.62475,36.6134605 Z M288.0561,59.7385318 L294.16665,44.7469017 L300.3253,59.7385318 L288.0561,59.7385318 L288.0561,59.7385318 Z M482.4319,57.5772755 C485.06075,55.5680116 486.68875,52.5670906 486.70725,48.8117688 C486.698,45.0953719 485.0885,41.4253141 482.28205,39.2918613 C479.71055,37.3771291 476.8671,36.7357958 471.491,36.7357958 L460.52975,36.7357958 L460.52975,75.5123661 L466.73465,75.5123661 L466.73465,42.2742466 L471.6982,42.2742466 C474.87095,42.2742466 476.54705,42.6041811 478.25275,43.6607129 C479.56995,44.4447707 480.67255,46.5374451 480.67255,48.9063006 C480.6818,51.2176956 479.5607,53.3122235 478.299,54.0962813 C477.3851,54.6708863 476.4527,55.0008208 475.3427,55.2176879 C475.20025,55.2380771 475.07815,55.2658805 474.9283,55.2844162 C474.74885,55.3214875 474.56015,55.3214875 474.37145,55.3511445 C473.26145,55.4549441 472.1126,55.4920154 471.0951,55.4827476 L468.08145,55.4827476 L480.7854,75.5123661 L487.72475,75.5123661 L476.87635,59.5198112 C479.05195,59.256605 480.91675,58.7468748 482.4319,57.5772755 L482.4319,57.5772755 Z M492.87515,36.6134605 L492.87515,42.1426435 L502.21765,42.1426435 L502.21765,75.3900308 L508.40405,75.3900308 L508.40405,42.1426435 L517.7632,42.1426435 L517.7632,36.6134605 L492.87515,36.6134605 L492.87515,36.6134605 Z M321.7668,75.3900308 L327.8866,75.3900308 L327.8866,36.6227283 L321.7668,36.6227283 L321.7668,75.3900308 Z M431.3571,35.9721272 C420.1609,35.9906628 410.6223,44.2186358 410.59455,56.1055453 L410.59455,56.1611522 C410.6223,67.182447 419.61515,76.0220963 431.3571,76.0498998 C443.02505,76.0220963 452.08265,67.3325857 452.1104,56.0017457 C452.08265,44.6894412 442.97695,35.9906628 431.3571,35.9721272 L431.3571,35.9721272 Z M431.41445,70.5225703 C423.07095,70.5021811 416.8087,64.2093295 416.8087,56.0017457 L416.8087,55.9554066 C416.8087,47.9072293 422.98585,41.510578 431.3571,41.5013102 C439.8227,41.510578 445.9536,48.057368 445.9721,56.0017457 C445.9536,63.9461233 439.8227,70.5225703 431.41445,70.5225703 L431.41445,70.5225703 Z M400.0847,39.1509904 C397.53355,37.2547938 394.679,36.6134605 389.3029,36.6134605 L378.34165,36.6134605 L378.34165,75.3900308 L384.5484,75.3900308 L384.5484,60.8877418 L389.67105,60.8877418 C394.642,60.8988632 397.5428,60.2575299 400.24565,58.1908054 C402.8634,56.1908092 404.50065,52.4447553 404.51915,48.6894335 C404.51915,44.9730366 402.89115,41.2844432 400.0847,39.1509904 L400.0847,39.1509904 Z M396.1109,53.9832139 C394.40705,55.02121 392.7402,55.3511445 389.60445,55.3604123 L384.5484,55.3604123 L384.5484,42.1426435 L389.5101,42.1426435 C392.7032,42.1519114 394.35895,42.4818459 396.0554,43.5476455 C397.38185,44.3409711 398.50295,46.3965742 398.4937,48.7839653 C398.50295,51.1046281 397.38185,53.1806204 396.1109,53.9832139 L396.1109,53.9832139 Z M362.65365,57.5772755 C365.28065,55.5680116 366.91975,52.5670906 366.929,48.8117688 C366.91975,45.0953719 365.3084,41.4253141 362.5223,39.2918613 C359.94155,37.3771291 357.08885,36.7357958 351.722,36.7357958 L340.76075,36.7357958 L340.76075,75.5123661 L346.9564,75.5123661 L346.9564,42.2742466 L351.9292,42.2742466 C355.10195,42.2742466 356.7688,42.6041811 358.4634,43.6607129 C359.7917,44.4447707 360.91095,46.5374451 360.89245,48.9063006 C360.91095,51.2176956 359.7917,53.3122235 358.52075,54.0962813 C357.6161,54.6708863 356.6837,55.0008208 355.5737,55.2176879 C355.43125,55.2380771 355.29065,55.2658805 355.1593,55.2844162 C354.97985,55.3214875 354.77265,55.3214875 354.60245,55.3511445 C353.4721,55.4549441 352.3436,55.4920154 351.31685,55.4827476 L348.3032,55.4827476 L361.0053,75.5123661 L367.965,75.5123661 L357.10735,59.5198112 C359.2737,59.256605 361.1385,58.7468748 362.65365,57.5772755 L362.65365,57.5772755 Z M121.22125,53.340027 C118.3297,52.3872948 116.0135,51.6421618 114.5631,50.670894 C113.10345,49.708894 112.45225,48.7746975 112.406,46.8210405 L112.406,46.7468979 C112.4245,43.4438459 114.996,41.3975106 118.3667,41.3493179 C121.6449,41.3771214 122.93435,43.0008439 123.5837,44.7747052 C123.7058,45.0953719 123.78165,45.3975029 123.8464,45.8127013 L130.10865,45.8127013 C130.0994,45.3215067 129.9588,44.6319807 129.9588,44.6319807 C128.62125,38.4151252 123.14155,35.9053988 118.50915,35.9721272 C112.406,35.9906628 106.28435,39.8775877 106.27695,46.8970366 C106.27695,46.9915684 106.27695,47.0582967 106.28435,47.1139037 C106.3047,54.8136108 113.63995,56.8877495 116.6536,57.7478035 C118.8477,58.4447437 121.0233,59.0860771 122.5292,60.0777341 C124.0166,61.0971946 124.89165,62.2667938 124.92125,64.5781888 C124.92125,68.0777187 121.7855,70.6727091 118.32045,70.6819769 C116.38905,70.6152486 112.8574,69.7477803 111.888,65.143526 L105.58875,65.143526 C106.24735,72.0499075 111.82325,76.0498998 118.23535,76.0498998 L118.3667,76.0498998 C125.89065,76.0220963 131.04105,70.81358 131.0614,64.2760578 C131.0614,56.8414104 124.7233,54.6152794 121.22125,53.340027 L121.22125,53.340027 Z" id="Fill-1" sketch:type="MSShapeGroup"></path>
                <path d="M188.4743,18.5412062 L192.04665,1.69045087 C192.1595,0.936050096 192.64235,0.496755299 193.4064,0.496755299 L203.8663,0.496755299 C204.462,0.496755299 204.7876,0.643186898 204.7876,0.991657033 L204.40095,2.09452794 L203.64245,2.30768786 L193.9022,2.30768786 L192.3741,9.46800771 L199.64275,9.46800771 C200.2218,9.46800771 200.5141,9.60887861 200.5141,9.92954528 L200.1589,11.0212948 L199.4411,11.2122119 L192.00225,11.2122119 L190.42975,18.6542736 C190.2725,19.312289 190.00795,19.5717881 189.4289,19.5717881 L189.1662,19.5717881 C188.5816,19.5717881 188.31705,19.2047823 188.4743,18.5412062" id="Fill-2" sketch:type="MSShapeGroup"></path>
                <path d="M212.3171,18.5412062 L215.97825,1.28452023 C216.1244,0.670990366 216.3945,0.383687861 216.968,0.383687861 L217.23625,0.383687861 C217.8264,0.383687861 218.07985,0.77849711 217.9226,1.40870906 L214.2818,18.6542736 C214.13565,19.312289 213.86555,19.5717881 213.28835,19.5717881 L213.04045,19.5717881 C212.4392,19.5717881 212.1802,19.2047823 212.3171,18.5412062" id="Fill-3" sketch:type="MSShapeGroup"></path>
                <path d="M227.50005,18.5412062 L231.06685,1.71825434 C231.24815,0.902685934 231.73655,0.383687861 232.48395,0.383687861 L232.9668,0.383687861 C233.61245,0.383687861 233.8696,0.726597303 234.2248,1.44207322 L241.29735,16.4930173 L244.51635,1.28452023 C244.6625,0.643186898 244.9252,0.383687861 245.49315,0.383687861 L245.6837,0.383687861 C246.2572,0.383687861 246.5051,0.756254335 246.37005,1.40870906 L242.75145,18.3725318 C242.6053,19.0694721 242.18535,19.5717881 241.47125,19.5717881 L241.2807,19.5717881 C240.685,19.5717881 240.39825,19.2288786 240.0449,18.5189634 L232.6745,2.8600501 L229.3371,18.6542736 C229.20205,19.312289 228.9153,19.5717881 228.3714,19.5717881 L228.16235,19.5717881 C227.6129,19.5717881 227.34835,19.2047823 227.50005,18.5412062" id="Fill-4" sketch:type="MSShapeGroup"></path>
                <path d="M266.7626,11.5180501 L265.09945,2.57274759 L259.94165,11.5180501 L266.7626,11.5180501 L266.7626,11.5180501 Z M253.95875,18.4855992 C253.95875,18.1352755 254.08825,17.7534412 254.5045,17.0379653 L264.0431,0.958292871 C264.3354,0.474512524 264.6277,0.294716763 265.29,0.294716763 C266.30195,0.294716763 266.5591,0.61538343 266.6664,1.17145279 L270.2332,18.9471368 C270.2776,19.1046898 269.7448,19.542131 269.13245,19.542131 C268.65515,19.542131 268.22225,19.2511214 268.0872,18.4689171 L267.1215,13.2733757 L258.92045,13.2733757 L255.32405,19.542131 C255.29075,19.5662274 253.95875,19.712659 253.95875,18.4855992 L253.95875,18.4855992 Z" id="Fill-5" sketch:type="MSShapeGroup"></path>
                <path d="M285.14235,18.737684 L281.74945,0.958292871 C281.72725,0.811861272 282.25635,0.383687861 282.8613,0.383687861 C283.32935,0.383687861 283.78445,0.67655106 283.91765,1.46431599 L286.7278,17.3363892 L296.3219,0.383687861 C296.3219,0.350323699 297.68165,0.2038921 297.68165,1.44207322 C297.68165,1.77942197 297.5577,2.16867052 297.13035,2.8600501 L287.7786,18.9471368 C287.48075,19.4475992 287.18845,19.6329557 286.51875,19.6329557 C285.51975,19.6329557 285.24965,19.312289 285.14235,18.737684" id="Fill-6" sketch:type="MSShapeGroup"></path>
                <path d="M305.46645,18.5412062 L309.12945,1.28452023 C309.2756,0.670990366 309.54015,0.383687861 310.1303,0.383687861 L310.4004,0.383687861 C310.97205,0.383687861 311.24215,0.77849711 311.09045,1.40870906 L307.4219,18.6542736 C307.28685,19.312289 307.0297,19.5717881 306.434,19.5717881 L306.175,19.5717881 C305.5904,19.5717881 305.3277,19.2047823 305.46645,18.5412062" id="Fill-7" sketch:type="MSShapeGroup"></path>
                <path d="M331.56625,11.5180501 L329.90495,2.57274759 L324.75825,11.5180501 L331.56625,11.5180501 L331.56625,11.5180501 Z M318.7587,18.4855992 C318.7587,18.1352755 318.89375,17.7534412 319.2989,17.0379653 L328.85415,0.958292871 C329.13535,0.474512524 329.4443,0.294716763 330.1066,0.294716763 C331.10005,0.294716763 331.3646,0.61538343 331.47745,1.17145279 L335.0387,18.9471368 C335.072,19.1046898 334.55585,19.542131 333.9324,19.542131 C333.4662,19.542131 333.0222,19.2511214 332.8816,18.4689171 L331.927,13.2733757 L323.7463,13.2733757 L320.12955,19.542131 C320.09625,19.5662274 318.7587,19.712659 318.7587,18.4855992 L318.7587,18.4855992 Z" id="Fill-8" sketch:type="MSShapeGroup"></path>
            </g>
        </g>
    </g>
</svg>