<?xml version="1.0" encoding="UTF-8" standalone="no"?>
<svg width="1085px" height="193px" viewBox="0 0 1085 193" version="1.1" xmlns="http://www.w3.org/2000/svg" xmlns:xlink="http://www.w3.org/1999/xlink" xmlns:sketch="http://www.bohemiancoding.com/sketch/ns">
    <!-- Generator: Sketch 3.3.3 (12081) - http://www.bohemiancoding.com/sketch -->
    <title>Artboard 34</title>
    <desc>Created with Sketch.</desc>
    <defs></defs>
    <g id="Page-1" stroke="none" stroke-width="1" fill="none" fill-rule="evenodd" sketch:type="MSPage">
        <g id="Artboard-34" sketch:type="MSArtboardGroup" fill="#000000">
            <g id="Imported-Layers-Copy" sketch:type="MSLayerGroup" transform="translate(14.230769, 16.037572)">
                <path d="M389.090769,135.169216 L346.210286,75.6844922 L334.259736,75.6844922 L334.259736,155.840396 L346.734198,155.840396 L346.520044,95.8690669 L389.966505,155.840396 L401.469626,155.840396 L401.469626,75.6844922 L388.995165,75.6844922 L389.090769,135.169216 L389.090769,135.169216 Z M294.897495,155.840396 L307.609055,155.840396 L307.609055,75.6844922 L294.897495,75.6844922 L294.897495,155.840396 Z M488.557582,75.6844922 L473.803912,75.6844922 L440.636835,113.306424 L440.636835,75.6844922 L427.944396,75.6844922 L427.944396,155.840396 L440.636835,155.840396 L440.636835,118.666755 L475.731297,155.840396 L492.121714,155.840396 L452.682989,115.624509 L488.557582,75.6844922 L488.557582,75.6844922 Z M87.5162637,155.840396 L134.955165,155.840396 L134.955165,144.4109 L100.208703,144.4109 L100.208703,121.145764 L132.599473,121.145764 L132.599473,109.716268 L100.208703,109.716268 L100.208703,87.1139884 L134.955165,87.1139884 L134.955165,75.6844922 L87.5162637,75.6844922 L87.5162637,155.840396 L87.5162637,155.840396 Z M48.3337582,109.59749 L14.5433407,109.59749 L14.5203956,75.6844922 L1.83178022,75.6844922 L1.83178022,155.840396 L14.5203956,155.840396 L14.5203956,121.026986 L48.3337582,121.026986 L48.3337582,155.840396 L61.1218022,155.840396 L61.1218022,75.6844922 L48.3337582,75.6844922 L48.3337582,109.59749 L48.3337582,109.59749 Z M174.48567,75.6844922 L161.701451,75.6844922 L161.701451,155.840396 L204.329538,155.840396 L204.329538,144.4109 L174.48567,144.4109 L174.48567,75.6844922 L174.48567,75.6844922 Z M508.393582,155.840396 L521.066901,155.840396 L521.066901,75.7036499 L508.393582,75.7036499 L508.393582,155.840396 Z M602.823956,75.6844922 L568.429319,155.840396 L582.211648,155.840396 L582.71644,154.629628 L591.183165,134.425896 L625.05389,134.425896 L634.182198,155.840396 L648.060132,155.840396 L613.979077,75.6844922 L602.823956,75.6844922 L602.823956,75.6844922 Z M595.447121,123.486837 L608.078374,92.497308 L620.809055,123.486837 L595.447121,123.486837 L595.447121,123.486837 Z M997.245626,119.019257 C1002.67978,114.865863 1006.04505,108.662593 1006.0833,100.899884 C1006.06418,93.2176383 1002.73714,85.6311808 996.935868,81.2210735 C991.620264,77.2630884 985.742505,75.9373741 974.629451,75.9373741 L951.971209,75.9373741 L951.971209,156.093278 L964.797495,156.093278 L964.797495,87.3860281 L975.057758,87.3860281 C981.61622,87.3860281 985.080923,88.0680429 988.606813,90.2520231 C991.329626,91.8727663 993.608835,96.1985797 993.608835,101.095293 C993.627956,105.873229 991.310505,110.202874 988.702418,111.823617 C986.813275,113.011396 984.88589,113.69341 982.591385,114.141701 C982.296923,114.183848 982.044527,114.241321 981.734769,114.279637 C981.363824,114.356268 980.973758,114.356268 980.583692,114.417572 C978.289187,114.632139 975.914374,114.70877 973.811077,114.689612 L967.581495,114.689612 L993.84211,156.093278 L1008.18659,156.093278 L985.761626,123.034715 C990.258857,122.490636 994.113626,121.436961 997.245626,119.019257 L997.245626,119.019257 Z M1018.8331,75.6844922 L1018.8331,87.1139884 L1038.14519,87.1139884 L1038.14519,155.840396 L1050.93323,155.840396 L1050.93323,87.1139884 L1070.27974,87.1139884 L1070.27974,75.6844922 L1018.8331,75.6844922 L1018.8331,75.6844922 Z M665.131253,155.840396 L677.781626,155.840396 L677.781626,75.7036499 L665.131253,75.7036499 L665.131253,155.840396 Z M891.66778,74.3587779 C868.523868,74.3970933 848.806418,91.4053179 848.749055,115.977011 L848.749055,116.091957 C848.806418,138.874319 867.395736,157.146953 891.66778,157.204426 C915.786857,157.146953 934.510022,139.184674 934.567385,115.762444 C934.510022,92.3785301 915.687429,74.3970933 891.66778,74.3587779 L891.66778,74.3587779 Z M891.78633,145.778761 C874.539297,145.736614 861.594462,132.728522 861.594462,115.762444 L861.594462,115.666656 C861.594462,99.0300908 874.363385,85.8074319 891.66778,85.7882742 C909.167209,85.8074319 921.840527,99.3404459 921.878769,115.762444 C921.840527,132.184443 909.167209,145.778761 891.78633,145.778761 L891.78633,145.778761 Z M827.023912,80.9298761 C821.750374,77.0102064 815.84967,75.6844922 804.736615,75.6844922 L782.078374,75.6844922 L782.078374,155.840396 L794.908484,155.840396 L794.908484,125.862395 L805.497626,125.862395 C815.773187,125.885384 821.769495,124.55967 827.356615,120.287498 C832.767824,116.153262 836.15222,108.409711 836.190462,100.647002 C836.190462,92.9647564 832.825187,85.3399835 827.023912,80.9298761 L827.023912,80.9298761 Z M818.809582,111.589893 C815.287516,113.735557 811.841934,114.417572 805.359956,114.43673 L794.908484,114.43673 L794.908484,87.1139884 L805.164923,87.1139884 C811.765451,87.1331462 815.188088,87.815161 818.694857,90.0182989 C821.436791,91.6581998 823.754242,95.9073823 823.735121,100.842411 C823.754242,105.639505 821.436791,109.930834 818.809582,111.589893 L818.809582,111.589893 Z M749.649363,119.019257 C755.079692,114.865863 758.467912,108.662593 758.487033,100.899884 C758.467912,93.2176383 755.137055,85.6311808 749.377846,81.2210735 C744.043121,77.2630884 738.146242,75.9373741 727.052308,75.9373741 L704.394066,75.9373741 L704.394066,156.093278 L717.201231,156.093278 L717.201231,87.3860281 L727.480615,87.3860281 C734.039077,87.3860281 737.484659,88.0680429 740.987604,90.2520231 C743.733363,91.8727663 746.046989,96.1985797 746.008747,101.095293 C746.046989,105.873229 743.733363,110.202874 741.106154,111.823617 C739.236132,113.011396 737.308747,113.69341 735.014242,114.141701 C734.71978,114.183848 734.429143,114.241321 734.157626,114.279637 C733.786681,114.356268 733.358374,114.356268 733.006549,114.417572 C730.669978,114.632139 728.337231,114.70877 726.214813,114.689612 L719.985231,114.689612 L746.242022,156.093278 L760.628571,156.093278 L738.184484,123.034715 C742.662593,122.490636 746.517363,121.436961 749.649363,119.019257 L749.649363,119.019257 Z M250.579121,110.260347 C244.601934,108.290933 239.814066,106.750652 236.815912,104.742923 C233.798637,102.754352 232.452527,100.823254 232.356923,96.7848059 L232.356923,96.6315442 C232.395165,89.8037325 237.710769,85.5737077 244.678418,85.4740875 C251.454857,85.5315607 254.120308,88.8879934 255.462593,92.5547812 C255.714989,93.2176383 255.87178,93.84218 256.005626,94.7004459 L268.950462,94.7004459 C268.931341,93.6850867 268.640703,92.2597523 268.640703,92.2597523 C265.875824,79.4087531 254.548615,74.2208423 244.972879,74.3587779 C232.356923,74.3970933 219.702725,82.4318415 219.687429,96.9418993 C219.687429,97.137308 219.687429,97.2752436 219.702725,97.3901899 C219.744791,113.306424 234.907648,117.593922 241.137231,119.371759 C245.672703,120.812419 250.169934,122.138134 253.282813,124.18801 C256.357451,126.295359 258.166286,128.713064 258.227473,133.490999 C258.227473,140.724955 251.745495,146.089116 244.582813,146.108274 C240.590374,145.970339 233.290022,144.177176 231.286154,134.65962 L218.264835,134.65962 C219.626242,148.935954 231.152308,157.204426 244.406901,157.204426 L244.678418,157.204426 C260.231341,157.146953 270.877846,146.380314 270.919912,132.866457 C270.919912,117.498134 257.818286,112.896449 250.579121,110.260347 L250.579121,110.260347 Z" id="Fill-1" sketch:type="MSShapeGroup"></path>
                <path d="M389.599385,38.3269364 L396.983868,3.49436829 C397.217143,1.93492981 398.215253,1.02685384 399.794637,1.02685384 L421.416527,1.02685384 C422.647912,1.02685384 423.320967,1.32954583 423.320967,2.04987614 L422.521714,4.32964492 L420.953802,4.7702725 L400.819516,4.7702725 L397.660747,19.5715277 L412.685934,19.5715277 C413.882901,19.5715277 414.487121,19.862725 414.487121,20.5255822 L413.752879,22.7823617 L412.269099,23.1770107 L396.892088,23.1770107 L393.641538,38.5606606 C393.316484,39.9208588 392.769626,40.457275 391.572659,40.457275 L391.029626,40.457275 C389.821187,40.457275 389.27433,39.6986292 389.599385,38.3269364" id="Fill-2" sketch:type="MSShapeGroup"></path>
                <path d="M438.885363,38.3269364 L446.453407,2.65526012 C446.755516,1.38701899 447.313846,0.793129645 448.499341,0.793129645 L449.053846,0.793129645 C450.273758,0.793129645 450.79767,1.60924855 450.472615,2.91197358 L442.946637,38.5606606 C442.644527,39.9208588 442.086198,40.457275 440.893055,40.457275 L440.380615,40.457275 C439.137758,40.457275 438.602374,39.6986292 438.885363,38.3269364" id="Fill-3" sketch:type="MSShapeGroup"></path>
                <path d="M470.270374,38.3269364 L477.643385,3.55184145 C478.018154,1.86596201 479.027736,0.793129645 480.572703,0.793129645 L481.570813,0.793129645 C482.905451,0.793129645 483.437011,1.50196532 484.171253,2.98094137 L498.791077,34.0930801 L505.445143,2.65526012 C505.747253,1.32954583 506.290286,0.793129645 507.464308,0.793129645 L507.858198,0.793129645 C509.043692,0.793129645 509.556132,1.56327002 509.276967,2.91197358 L501.796879,37.9782659 C501.494769,39.4189265 500.626681,40.457275 499.150549,40.457275 L498.756659,40.457275 C497.525275,40.457275 496.932527,39.7484393 496.20211,38.2809579 L480.966593,5.91207267 L474.06778,38.5606606 C473.788615,39.9208588 473.195868,40.457275 472.07156,40.457275 L471.639429,40.457275 C470.503648,40.457275 469.956791,39.6986292 470.270374,38.3269364" id="Fill-4" sketch:type="MSShapeGroup"></path>
                <path d="M551.430857,23.8092155 L547.992923,5.31818332 L537.331121,23.8092155 L551.430857,23.8092155 L551.430857,23.8092155 Z M524.963736,38.2119901 C524.963736,37.4878282 525.231429,36.6985301 526.091868,35.2195541 L545.809319,1.98090834 C546.413538,0.98087531 547.017758,0.609215524 548.386813,0.609215524 C550.478637,0.609215524 551.010198,1.27207267 551.232,2.42153592 L558.605011,39.1660446 C558.696791,39.4917258 557.595429,40.3959703 556.329626,40.3959703 C555.342989,40.3959703 554.448132,39.7944178 554.168967,38.1775062 L552.172747,27.4376879 L535.220176,27.4376879 L527.785978,40.3959703 C527.717143,40.4457803 524.963736,40.7484723 524.963736,38.2119901 L524.963736,38.2119901 Z" id="Fill-5" sketch:type="MSShapeGroup"></path>
                <path d="M589.424044,38.7330801 L582.410505,1.98090834 C582.364615,1.67821635 583.45833,0.793129645 584.708835,0.793129645 C585.676352,0.793129645 586.617099,1.39851363 586.89244,3.0269199 L592.701363,35.8364327 L612.533538,0.793129645 C612.533538,0.72416185 615.344308,0.42146986 615.344308,2.98094137 C615.344308,3.67828241 615.088088,4.48290669 614.204703,5.91207267 L594.873495,39.1660446 C594.257802,40.2005615 593.653582,40.5837159 592.269231,40.5837159 C590.204176,40.5837159 589.645846,39.9208588 589.424044,38.7330801" id="Fill-6" sketch:type="MSShapeGroup"></path>
                <path d="M631.43644,38.3269364 L639.008308,2.65526012 C639.310418,1.38701899 639.857275,0.793129645 641.077187,0.793129645 L641.635516,0.793129645 C642.817187,0.793129645 643.375516,1.60924855 643.061934,2.91197358 L635.478593,38.5606606 C635.199429,39.9208588 634.667868,40.457275 633.436484,40.457275 L632.901099,40.457275 C631.692659,40.457275 631.149626,39.6986292 631.43644,38.3269364" id="Fill-7" sketch:type="MSShapeGroup"></path>
                <path d="M685.387912,23.8092155 L681.953802,5.31818332 L671.314945,23.8092155 L685.387912,23.8092155 L685.387912,23.8092155 Z M658.913143,38.2119901 C658.913143,37.4878282 659.192308,36.6985301 660.029802,35.2195541 L679.78167,1.98090834 C680.362945,0.98087531 681.001582,0.609215524 682.370637,0.609215524 C684.42422,0.609215524 684.971077,1.27207267 685.204352,2.42153592 L692.56589,39.1660446 C692.634725,39.4917258 691.56778,40.3959703 690.279033,40.3959703 C689.315341,40.3959703 688.397538,39.7944178 688.106901,38.1775062 L686.133626,27.4376879 L669.223121,27.4376879 L661.746857,40.3959703 C661.678022,40.4457803 658.913143,40.7484723 658.913143,38.2119901 L658.913143,38.2119901 Z" id="Fill-8" sketch:type="MSShapeGroup"></path>
            </g>
        </g>
    </g>
</svg>