<?xml version="1.0" encoding="UTF-8" standalone="no"?>
<svg width="96px" height="15px" viewBox="0 0 96 15" version="1.1" xmlns="http://www.w3.org/2000/svg" xmlns:xlink="http://www.w3.org/1999/xlink" xmlns:sketch="http://www.bohemiancoding.com/sketch/ns">
    <!-- Generator: Sketch 3.3.3 (12081) - http://www.bohemiancoding.com/sketch -->
    <title>FINAVIA LOGO</title>
    <desc>Created with Sketch.</desc>
    <defs></defs>
    <g id="Page-1" stroke="none" stroke-width="1" fill="none" fill-rule="evenodd" sketch:type="MSPage">
        <g id="HIGH-RES-DESKTOP" sketch:type="MSArtboardGroup" transform="translate(-1139.000000, -132.000000)" fill="#000000">
            <g id="top-header" sketch:type="MSLayerGroup" transform="translate(-6.000000, -80.000000)">
                <g id="LOGOS" transform="translate(845.000000, 159.000000)" sketch:type="MSShapeGroup">
                    <g id="REAKTOR">
                        <g id="logos-copy" transform="translate(0.000000, 46.000000)">
                            <g id="LOGOS" transform="translate(0.000000, 0.482143)">
                                <path d="M304.092945,12.6837548 L311.731527,12.6837548 L311.500268,14.444997 L303.860983,14.444997 L303.05966,20.5355495 L300.725277,20.5355495 L302.544423,6.70012315 L312.728261,6.70012315 L312.48435,8.55057535 L304.637002,8.55057535 L304.092945,12.6837548 L304.092945,12.6837548 Z M317.624067,20.5355495 L315.289685,20.5355495 L317.10883,6.70012315 L319.444618,6.70012315 L317.624067,20.5355495 L317.624067,20.5355495 Z M335.371979,18.3295691 L336.902929,6.70012315 L339.237311,6.70012315 L337.41676,20.5355495 L334.082832,20.5355495 L327.173876,8.98744212 L325.654876,20.5355495 L323.319791,20.5355495 L325.139639,6.70012315 L328.495357,6.70012315 L335.371979,18.3295691 L335.371979,18.3295691 Z M363.974311,18.4640401 L370.259781,6.70012315 L372.764268,6.70012315 L365.159426,20.5355495 L362.247248,20.5355495 L358.239927,6.70012315 L360.74582,6.70012315 L363.974311,18.4640401 L363.974311,18.4640401 Z M377.222861,20.5355495 L374.887776,20.5355495 L376.70903,6.70012315 L379.043412,6.70012315 L377.222861,20.5355495 L377.222861,20.5355495 Z M389.936492,8.89495231 L383.379697,20.5355495 L380.982053,20.5355495 L388.738724,6.70012315 L391.624895,6.70012315 L395.8937,20.5355495 L393.448961,20.5355495 L392.611788,17.7608551 L387.449577,17.762823 L388.452638,15.8093857 L392.023448,15.8093857 L389.936492,8.89495231 L389.936492,8.89495231 Z M350.09876,8.89495231 L343.541965,20.5355495 L341.144321,20.5355495 L348.901695,6.70012315 L351.787866,6.70012315 L356.055968,20.5355495 L353.611229,20.5355495 L352.774759,17.7608551 L347.611845,17.762823 L348.615609,15.8093857 L352.185716,15.8093857 L350.09876,8.89495231 L350.09876,8.89495231 Z" id="FINAVIA-LOGO"></path>
                            </g>
                        </g>
                    </g>
                </g>
            </g>
        </g>
    </g>
</svg>