<?xml version="1.0" encoding="UTF-8" standalone="no"?>
<svg width="120px" height="13px" viewBox="0 0 120 13" version="1.1" xmlns="http://www.w3.org/2000/svg" xmlns:xlink="http://www.w3.org/1999/xlink" xmlns:sketch="http://www.bohemiancoding.com/sketch/ns">
    <!-- Generator: Sketch 3.3.3 (12081) - http://www.bohemiancoding.com/sketch -->
    <title>FINNAIR LOGO Copy 4</title>
    <desc>Created with Sketch.</desc>
    <defs></defs>
    <g id="Page-1" stroke="none" stroke-width="1" fill="none" fill-rule="evenodd" sketch:type="MSPage">
        <g id="HIGH-RES-DESKTOP" sketch:type="MSArtboardGroup" transform="translate(-960.000000, -133.000000)" fill="#000000">
            <g id="top-header" sketch:type="MSLayerGroup" transform="translate(-6.000000, -80.000000)">
                <g id="LOGOS" transform="translate(845.000000, 159.000000)" sketch:type="MSShapeGroup">
                    <g id="REAKTOR">
                        <g id="logos-copy" transform="translate(0.000000, 46.000000)">
                            <g id="LOGOS" transform="translate(0.000000, 0.482143)">
                                <g id="FINNAIR-LOGO-Copy-4" transform="translate(136.434967, 7.797414)">
                                    <path d="M17.4370566,11.8934363 L21.1190125,11.8934363 C22.0279232,11.8934363 22.6625768,11.5505694 22.999892,10.9126837 C23.3998127,10.155861 28.7697027,0.000546837229 28.7697027,0.000546837229 L25.0883502,0.000546837229 C24.1789868,0.000546837229 23.5447859,0.343277071 23.2070181,0.981436117 C22.8072482,1.73825884 17.4370566,11.8934363 17.4370566,11.8934363" id="Fill-1"></path>
                                    <path d="M88.06538,11.8934363 L91.7473359,11.8934363 C92.6562466,11.8934363 93.2901459,11.5505694 93.6280646,10.9126837 C94.028287,10.155861 99.3981769,0.000546837229 99.3981769,0.000546837229 L95.7165227,0.000546837229 C94.8068577,0.000546837229 94.1731093,0.343277071 93.8362466,0.981436117 C93.4352699,1.73825884 88.06538,11.8934363 88.06538,11.8934363" id="Fill-2"></path>
                                    <path d="M12.7722702,0.000273418615 C11.8766348,0.000273418615 11.3667397,0.0993876664 10.7135308,0.410811469 C10.4982585,0.513480158 8.13916368,1.63148887 6.4328252,2.45133459 C5.08326246,3.09961013 4.14312441,4.01460552 3.55071072,5.13425475 C1.84361795,8.36155136 -0.000150856554,11.8932996 0,11.8934363 L3.68180507,11.8934363 C4.59116838,11.8934363 5.22506762,11.5505694 5.56283545,10.9126837 C5.71158001,10.631336 6.54083849,9.06355366 7.37673466,7.48360419 L13.3699639,7.48360419 C14.1912269,7.48360419 14.5071206,7.34921894 14.8233159,6.75111572 L15.1318176,6.15273909 C15.1318176,6.15246567 10.9523367,6.15246567 7.91800798,6.15246567 C8.57287628,4.91497302 9.54952161,3.05408593 9.54952161,3.05408593 C9.96090744,2.27511629 10.4463638,1.96191527 11.5400738,1.96191527 L15.6201402,1.96191527 L19.3017944,1.96191527 C20.210856,1.96191527 20.8452078,1.61904833 21.1829757,0.981025989 L21.7043359,0.000683546537 C21.7043359,0.000273418615 15.4338324,0.000273418615 12.7722702,0.000273418615" id="Fill-3"></path>
                                    <path d="M69.2285254,0.00601520952 L67.5360657,0.00601520952 C66.6270041,0.00601520952 65.9931049,0.348472024 65.6553371,0.986494362 C65.4249791,1.42314389 62.9930206,6.03872352 61.7475489,8.40065023 C61.6961068,8.15334309 61.5072344,7.82865848 61.3397836,7.62113376 C59.0669788,4.8031448 56.3888224,1.47222253 55.4937904,0.341909978 C55.190267,-0.0416963387 54.6797685,-0.0880407939 54.1816401,0.149559982 C53.762108,0.34942899 53.5659945,0.44416854 53.1274545,0.654700873 C51.8510572,1.26702186 51.1112567,2.04954594 50.4959128,3.2123953 C48.7889709,6.4394185 45.9685567,11.8930262 45.9685567,11.8932996 L47.6497022,11.8932996 C48.5590655,11.8932996 49.1929647,11.5504327 49.5304308,10.912547 C49.7137215,10.5655788 51.7778918,6.63108495 52.9788608,4.35241422 C53.0046573,4.55255664 53.1260968,4.76103834 53.2392392,4.89843119 C55.1036754,7.15932972 57.9652734,10.6301056 58.2511465,10.9735194 C58.7402235,11.5617795 59.2464981,11.8932996 60.155258,11.8932996 L62.9289066,11.8932996 L69.2285254,0.00601520952" id="Fill-4"></path>
                                    <path d="M48.7293825,0.00601520952 L47.0372245,0.00601520952 C46.1283138,0.00601520952 45.4938111,0.348472024 45.156345,0.986494362 C44.9258362,1.42314389 42.4941794,6.03872352 41.2487077,8.40065023 C41.196813,8.15334309 41.0082423,7.82865848 40.8409424,7.62113376 C38.5678359,4.8031448 35.8895286,1.47222253 34.9944967,0.341909978 C34.691275,-0.0416963387 34.1810781,-0.0880407939 33.6829498,0.149559982 C33.2634177,0.34942899 33.0670025,0.44416854 32.6287642,0.654700873 C31.3519143,1.26702186 30.6125663,2.04954594 29.9972224,3.2123953 C28.289828,6.4394185 25.4694138,11.8930262 25.4698664,11.8932996 L27.150861,11.8932996 C28.0600734,11.8932996 28.6938218,11.5504327 29.0312879,10.912547 C29.2147295,10.5655788 31.2788997,6.63108495 32.4797179,4.35241422 C32.5059669,4.55255664 32.6269539,4.76103834 32.7400963,4.89843119 C34.6045325,7.15932972 37.4661304,10.6301056 37.7517019,10.9735194 C38.2407789,11.5617795 38.7469026,11.8932996 39.6562659,11.8932996 L42.4300654,11.8932996 L48.7293825,0.00601520952" id="Fill-5"></path>
                                    <path d="M88.502864,2.73295576 C88.3165561,2.61114777 85.7572747,0.853066078 85.6014399,0.746842946 C84.874613,0.249631195 83.9510692,0.000273418615 82.9797038,0.000273418615 L78.924227,0.000273418615 C78.0285917,0.000273418615 77.5183948,0.0993876664 76.8648842,0.410811469 C76.6500645,0.513480158 74.3457306,1.60811158 72.6401464,2.4279573 C71.2107806,3.1139646 70.3074515,4.00243839 69.6824528,5.18388023 C67.9755109,8.41117684 66.1512026,11.8934363 66.151806,11.893573 L69.8337619,11.893573 C70.7428235,11.893573 71.3765719,11.5508428 71.7143397,10.9128205 C71.8484512,10.6593614 72.6526675,9.14393873 73.5332172,7.4837409 L81.9686632,7.4837409 C81.3487936,8.65698018 80.7681467,9.75530275 80.3483129,10.5502674 C79.9773566,11.2513127 80.3802945,11.8937097 81.3674998,11.8937097 L84.6762366,11.8937097 C84.6762366,11.8937097 88.5713528,4.52070338 88.7769703,4.14256543 C89.1345004,3.48567721 89.0910537,3.11738234 88.502864,2.73295576 L88.502864,2.73295576 Z M74.2402819,6.15260238 C75.1985227,4.34530533 75.8423785,3.1168355 75.8423785,3.1168355 C76.2934396,2.26376942 76.7206653,1.96177856 77.8857305,1.96177856 L81.3810769,1.96177856 L83.920747,1.96177856 C84.5347332,1.96177856 84.726321,2.26554664 84.5099927,2.6747176 C83.9927056,3.65287269 83.3342167,4.8985679 82.6722581,6.15273909 C80.2958148,6.15232896 76.804089,6.15232896 74.2402819,6.15260238 L74.2402819,6.15260238 Z" id="Fill-6"></path>
                                    <path d="M118.675231,2.73295576 C118.488018,2.61114777 116.112932,0.963937326 115.958003,0.857304066 C115.18607,0.330289687 114.166883,0.000273418615 113.092482,0.000273418615 L109.270532,0.000273418615 C108.374444,0.000273418615 107.864699,0.0993876664 107.211641,0.410811469 C106.996218,0.513480158 104.886942,1.51391887 103.180905,2.334038 C101.492971,3.14404065 100.691923,3.91863559 99.9777678,5.26781974 C98.270675,8.49497965 96.4973562,11.8934363 96.4973562,11.893573 L100.179765,11.893573 C101.089731,11.893573 101.722876,11.5508428 102.060795,10.9128205 C102.209841,10.6314727 103.183922,8.81952754 104.019969,7.23971479 C104.019969,7.23971479 104.608008,7.24012492 106.164093,7.24026163 L106.163792,7.24026163 C107.184789,7.24026163 107.538849,7.52598408 107.949028,8.15607728 C108.723677,9.3461318 109.602265,10.6857463 109.750557,10.9128205 C110.235561,11.6558355 110.664295,11.893573 111.753178,11.893573 L115.956796,11.893573 C115.956796,11.893573 114.865499,10.2962615 113.616709,8.37645268 C113.420746,8.07555549 113.196573,7.86598013 112.570066,7.77192412 C112.378177,7.74335188 111.591761,7.62550845 110.770347,7.50233337 L110.809419,7.24149201 C112.401258,7.24203885 113.750217,7.24203885 114.213648,7.24203885 C116.51587,7.24203885 117.540337,6.78652343 118.038616,5.90830284 C118.274405,5.49325339 118.883262,4.26218607 118.949186,4.14256543 C119.306566,3.48567721 119.262968,3.11738234 118.675231,2.73295576 L118.675231,2.73295576 Z M114.681605,2.67458089 C114.29677,3.40296808 113.978463,4.03429166 113.493912,4.95161111 C113.142567,5.61670189 112.502332,5.90802943 110.987883,5.90802943 L104.555359,5.90802943 C105.210077,4.67040007 106.124267,2.94922989 106.124267,2.94922989 C106.487379,2.26267575 107.030764,1.96191527 107.982367,1.96191527 L111.552388,1.96191527 L114.092209,1.96191527 C114.706497,1.96177856 114.897783,2.26554664 114.681605,2.67458089 L114.681605,2.67458089 Z" id="Fill-7"></path>
                                </g>
                            </g>
                        </g>
                    </g>
                </g>
            </g>
        </g>
    </g>
</svg>