<?xml version="1.0" encoding="UTF-8" standalone="no"?>
<svg width="2048px" height="522px" viewBox="0 0 2048 522" version="1.1" xmlns="http://www.w3.org/2000/svg" xmlns:xlink="http://www.w3.org/1999/xlink" xmlns:sketch="http://www.bohemiancoding.com/sketch/ns">
    <!-- Generator: Sketch 3.3.3 (12081) - http://www.bohemiancoding.com/sketch -->
    <title>HILL</title>
    <desc>Created with Sketch.</desc>
    <defs></defs>
    <g id="Page-1" stroke="none" stroke-width="1" fill="none" fill-rule="evenodd" sketch:type="MSPage">
        <g id="HIGH-RES-DESKTOP" sketch:type="MSArtboardGroup" transform="translate(0.000000, -1812.000000)">
            <g id="FOOTER" sketch:type="MSLayerGroup" transform="translate(-287.000000, 1533.000000)">
                <g id="HILL" transform="translate(0.000000, 271.500000)" sketch:type="MSShapeGroup">
                    <path d="M1459.97508,216.009364 C1459.97508,216.009364 1168.28686,317.622145 979.65545,191.54958 C979.65545,191.54958 670.969444,-6.31284551 0.0682807322,2.30308499 L0.0682807322,555.885802 L2620.74812,555.885802 L2620.74812,71.9787518 C2620.74812,71.9787518 1952.37275,81.1620583 1459.97508,216.009364 Z" id="Fill-1" fill="#F4FFD2"></path>
                    <path d="M2620.74812,70.2297504 C2620.74812,70.2297504 1952.37275,79.4130569 1459.97508,214.260362 C1459.97508,214.260362 1168.28686,315.873144 979.65545,189.800578 C979.65545,189.800578 670.969444,-8.06184687 0.0682807322,0.554083631 L0.0682807322,554.1368 L2620.74812,554.1368 L2620.74812,70.2297504 L2620.74812,70.2297504 Z" id="Stroke-2" stroke="#A3BF5E" stroke-width="4" stroke-linecap="round" stroke-linejoin="round"></path>
                </g>
            </g>
        </g>
    </g>
</svg>