<?xml version="1.0" encoding="UTF-8" standalone="no"?>
<svg width="128px" height="253px" viewBox="0 0 128 253" version="1.1" xmlns="http://www.w3.org/2000/svg" xmlns:xlink="http://www.w3.org/1999/xlink" xmlns:sketch="http://www.bohemiancoding.com/sketch/ns">
    <!-- Generator: Sketch 3.3.3 (12081) - http://www.bohemiancoding.com/sketch -->
    <title>NY CITY</title>
    <desc>Created with Sketch.</desc>
    <defs></defs>
    <g id="Page-1" stroke="none" stroke-width="1" fill="none" fill-rule="evenodd" sketch:type="MSPage">
        <g id="HIGH-RES-DESKTOP" sketch:type="MSArtboardGroup" transform="translate(-1279.000000, -1767.000000)">
            <g id="FOOTER" sketch:type="MSLayerGroup" transform="translate(-287.000000, 1533.000000)">
                <g id="NY-CITY" transform="translate(1565.000000, 232.500000)" sketch:type="MSShapeGroup">
                    <path d="M112.884,142.996 L128.076,142.996 L128.076,243.408 L112.884,243.408 L112.884,142.996 Z" id="Fill-1" fill="#6B82A2"></path>
                    <path d="M102.346,1.562 L106.032,1.562 L106.032,45.536 L102.346,45.536 L102.346,1.562 Z" id="Fill-2" fill="#E4CC98"></path>
                    <path d="M95.492,51.038 L112.884,51.038 L112.884,132.822 L95.492,132.822 L95.492,51.038 Z" id="Fill-3" fill="#EEDEBD"></path>
                    <path d="M112.884,51.038 L95.492,51.038 L102.346,23.548 L106.032,23.548 L112.884,51.038" id="Fill-4" fill="#D2AA53"></path>
                    <path d="M92.212,64.44 L116.168,64.44 L116.168,177.082 L92.212,177.082 L92.212,64.44 Z" id="Fill-5" fill="#D2AA53"></path>
                    <path d="M88.478,93.05 L119.9,93.05 L119.9,246.222 L88.478,246.222 L88.478,93.05 Z" id="Fill-6" fill="#E4CC98"></path>
                    <path d="M92.212,97.37 L97.276,97.37 L97.276,103.602 L92.212,103.602 L92.212,97.37 Z" id="Fill-7" fill="#BA9953"></path>
                    <path d="M101.22,97.37 L106.282,97.37 L106.282,103.602 L101.22,103.602 L101.22,97.37 Z" id="Fill-8" fill="#BA9953"></path>
                    <path d="M110.226,97.37 L115.29,97.37 L115.29,103.602 L110.226,103.602 L110.226,97.37 Z" id="Fill-9" fill="#BA9953"></path>
                    <path d="M92.212,108.568 L97.276,108.568 L97.276,114.804 L92.212,114.804 L92.212,108.568 Z" id="Fill-10" fill="#BA9953"></path>
                    <path d="M101.22,108.568 L106.282,108.568 L106.282,114.804 L101.22,114.804 L101.22,108.568 Z" id="Fill-11" fill="#BA9953"></path>
                    <path d="M110.226,108.568 L115.29,108.568 L115.29,114.804 L110.226,114.804 L110.226,108.568 Z" id="Fill-12" fill="#BA9953"></path>
                    <path d="M92.212,119.766 L97.276,119.766 L97.276,126.002 L92.212,126.002 L92.212,119.766 Z" id="Fill-13" fill="#BA9953"></path>
                    <path d="M101.22,119.766 L106.282,119.766 L106.282,126.002 L101.22,126.002 L101.22,119.766 Z" id="Fill-14" fill="#BA9953"></path>
                    <path d="M110.226,119.766 L115.29,119.766 L115.29,126.002 L110.226,126.002 L110.226,119.766 Z" id="Fill-15" fill="#BA9953"></path>
                    <path d="M92.212,130.968 L97.276,130.968 L97.276,137.204 L92.212,137.204 L92.212,130.968 Z" id="Fill-16" fill="#BA9953"></path>
                    <path d="M101.22,130.968 L106.282,130.968 L106.282,137.204 L101.22,137.204 L101.22,130.968 Z" id="Fill-17" fill="#BA9953"></path>
                    <path d="M110.226,130.968 L115.29,130.968 L115.29,137.204 L110.226,137.204 L110.226,130.968 Z" id="Fill-18" fill="#BA9953"></path>
                    <path d="M92.212,142.168 L97.276,142.168 L97.276,148.4 L92.212,148.4 L92.212,142.168 Z" id="Fill-19" fill="#BA9953"></path>
                    <path d="M101.22,142.168 L106.282,142.168 L106.282,148.4 L101.22,148.4 L101.22,142.168 Z" id="Fill-20" fill="#BA9953"></path>
                    <path d="M110.226,142.168 L115.29,142.168 L115.29,148.4 L110.226,148.4 L110.226,142.168 Z" id="Fill-21" fill="#BA9953"></path>
                    <path d="M92.212,153.366 L97.276,153.366 L97.276,159.602 L92.212,159.602 L92.212,153.366 Z" id="Fill-22" fill="#BA9953"></path>
                    <path d="M101.22,153.366 L106.282,153.366 L106.282,159.602 L101.22,159.602 L101.22,153.366 Z" id="Fill-23" fill="#BA9953"></path>
                    <path d="M110.226,153.366 L115.29,153.366 L115.29,159.602 L110.226,159.602 L110.226,153.366 Z" id="Fill-24" fill="#BA9953"></path>
                    <path d="M92.212,164.566 L97.276,164.566 L97.276,170.802 L92.212,170.802 L92.212,164.566 Z" id="Fill-25" fill="#BA9953"></path>
                    <path d="M101.22,164.566 L106.282,164.566 L106.282,170.802 L101.22,170.802 L101.22,164.566 Z" id="Fill-26" fill="#BA9953"></path>
                    <path d="M110.226,164.566 L115.29,164.566 L115.29,170.802 L110.226,170.802 L110.226,164.566 Z" id="Fill-27" fill="#BA9953"></path>
                    <path d="M92.212,175.766 L97.276,175.766 L97.276,182.002 L92.212,182.002 L92.212,175.766 Z" id="Fill-28" fill="#BA9953"></path>
                    <path d="M101.22,175.766 L106.282,175.766 L106.282,182.002 L101.22,182.002 L101.22,175.766 Z" id="Fill-29" fill="#BA9953"></path>
                    <path d="M110.226,175.766 L115.29,175.766 L115.29,182.002 L110.226,182.002 L110.226,175.766 Z" id="Fill-30" fill="#BA9953"></path>
                    <path d="M92.212,186.968 L97.276,186.968 L97.276,193.2 L92.212,193.2 L92.212,186.968 Z" id="Fill-31" fill="#BA9953"></path>
                    <path d="M101.22,186.968 L106.282,186.968 L106.282,193.2 L101.22,193.2 L101.22,186.968 Z" id="Fill-32" fill="#BA9953"></path>
                    <path d="M110.226,186.968 L115.29,186.968 L115.29,193.2 L110.226,193.2 L110.226,186.968 Z" id="Fill-33" fill="#BA9953"></path>
                    <path d="M92.212,198.162 L97.276,198.162 L97.276,204.398 L92.212,204.398 L92.212,198.162 Z" id="Fill-34" fill="#BA9953"></path>
                    <path d="M101.22,198.162 L106.282,198.162 L106.282,204.398 L101.22,204.398 L101.22,198.162 Z" id="Fill-35" fill="#BA9953"></path>
                    <path d="M110.226,198.162 L115.29,198.162 L115.29,204.398 L110.226,204.398 L110.226,198.162 Z" id="Fill-36" fill="#BA9953"></path>
                    <path d="M92.212,209.364 L97.276,209.364 L97.276,215.6 L92.212,215.6 L92.212,209.364 Z" id="Fill-37" fill="#BA9953"></path>
                    <path d="M101.22,209.364 L106.282,209.364 L106.282,215.6 L101.22,215.6 L101.22,209.364 Z" id="Fill-38" fill="#BA9953"></path>
                    <path d="M110.226,209.364 L115.29,209.364 L115.29,215.6 L110.226,215.6 L110.226,209.364 Z" id="Fill-39" fill="#BA9953"></path>
                    <path d="M92.212,220.566 L97.276,220.566 L97.276,226.802 L92.212,226.802 L92.212,220.566 Z" id="Fill-40" fill="#BA9953"></path>
                    <path d="M101.22,220.566 L106.282,220.566 L106.282,226.802 L101.22,226.802 L101.22,220.566 Z" id="Fill-41" fill="#BA9953"></path>
                    <path d="M110.226,220.566 L115.29,220.566 L115.29,226.802 L110.226,226.802 L110.226,220.566 Z" id="Fill-42" fill="#BA9953"></path>
                    <path d="M92.212,231.766 L97.276,231.766 L97.276,237.996 L92.212,237.996 L92.212,231.766 Z" id="Fill-43" fill="#BA9953"></path>
                    <path d="M101.22,231.766 L106.282,231.766 L106.282,237.996 L101.22,237.996 L101.22,231.766 Z" id="Fill-44" fill="#BA9953"></path>
                    <path d="M110.226,231.766 L115.29,231.766 L115.29,237.996 L110.226,237.996 L110.226,231.766 Z" id="Fill-45" fill="#BA9953"></path>
                    <path d="M1.64,131.644 L48.646,131.644 L48.646,245.038 L1.64,245.038 L1.64,131.644 Z" id="Fill-46" fill="#DBB13F"></path>
                    <path d="M89.194,208.338 L128.768,208.338 L128.768,253.582 L89.194,253.582 L89.194,208.338 Z" id="Fill-47" fill="#24386D"></path>
                    <path d="M16.874,131.644 L48.648,131.644 L48.648,245.038 L16.874,245.038 L16.874,131.644 Z" id="Fill-48" fill="#B9752F"></path>
                    <path d="M48.646,119.262 L98.276,119.262 L98.276,250.72 L48.646,250.72 L48.646,119.262 Z" id="Fill-49" fill="#24386D"></path>
                    <path d="M60.6,76.964 C57.084,74.912 53.008,73.722 48.642,73.722 C44.28,73.722 40.204,74.912 36.688,76.964 L36.688,92.028 L60.6,92.028 L60.6,76.964" id="Fill-50" fill="#408BB8"></path>
                    <path d="M36.688,78.292 L60.6,78.292 L60.6,97.37 L36.688,97.37 L36.688,78.292 Z" id="Fill-51" fill="#4B6375"></path>
                    <path d="M30.328,87.832 L66.958,87.832 L66.958,236.342 L30.328,236.342 L30.328,87.832 Z" id="Fill-52" fill="#408BB8"></path>
                    <path d="M30.328,92.736 L48.646,92.736 L48.646,96.934 L30.328,96.934 L30.328,92.736 Z" id="Fill-53" fill="#4BDCDC"></path>
                    <path d="M30.328,101.504 L48.646,101.504 L48.646,105.7 L30.328,105.7 L30.328,101.504 Z" id="Fill-54" fill="#4BDCDC"></path>
                    <path d="M30.328,110.276 L48.646,110.276 L48.646,114.474 L30.328,114.474 L30.328,110.276 Z" id="Fill-55" fill="#4BDCDC"></path>
                    <path d="M30.328,119.044 L48.646,119.044 L48.646,123.242 L30.328,123.242 L30.328,119.044 Z" id="Fill-56" fill="#4BDCDC"></path>
                    <path d="M30.328,127.812 L48.646,127.812 L48.646,132.01 L30.328,132.01 L30.328,127.812 Z" id="Fill-57" fill="#4BDCDC"></path>
                    <path d="M30.328,136.582 L48.646,136.582 L48.646,140.78 L30.328,140.78 L30.328,136.582 Z" id="Fill-58" fill="#4BDCDC"></path>
                    <path d="M30.328,145.352 L48.646,145.352 L48.646,149.55 L30.328,149.55 L30.328,145.352 Z" id="Fill-59" fill="#4BDCDC"></path>
                    <path d="M30.328,154.12 L48.646,154.12 L48.646,158.318 L30.328,158.318 L30.328,154.12 Z" id="Fill-60" fill="#4BDCDC"></path>
                    <path d="M30.328,162.888 L48.646,162.888 L48.646,167.088 L30.328,167.088 L30.328,162.888 Z" id="Fill-61" fill="#4BDCDC"></path>
                    <path d="M30.328,171.658 L48.646,171.658 L48.646,175.856 L30.328,175.856 L30.328,171.658 Z" id="Fill-62" fill="#4BDCDC"></path>
                    <path d="M30.328,180.428 L48.646,180.428 L48.646,184.626 L30.328,184.626 L30.328,180.428 Z" id="Fill-63" fill="#4BDCDC"></path>
                    <path d="M30.328,189.196 L48.646,189.196 L48.646,193.394 L30.328,193.394 L30.328,189.196 Z" id="Fill-64" fill="#4BDCDC"></path>
                    <path d="M30.328,197.966 L48.646,197.966 L48.646,202.164 L30.328,202.164 L30.328,197.966 Z" id="Fill-65" fill="#4BDCDC"></path>
                    <path d="M30.328,206.734 L48.646,206.734 L48.646,210.932 L30.328,210.932 L30.328,206.734 Z" id="Fill-66" fill="#4BDCDC"></path>
                    <path d="M30.328,215.504 L48.646,215.504 L48.646,219.702 L30.328,219.702 L30.328,215.504 Z" id="Fill-67" fill="#4BDCDC"></path>
                    <path d="M30.328,224.274 L48.646,224.274 L48.646,228.47 L30.328,228.47 L30.328,224.274 Z" id="Fill-68" fill="#4BDCDC"></path>
                </g>
            </g>
        </g>
    </g>
</svg>