<?xml version="1.0" encoding="UTF-8" standalone="no"?>
<svg width="176px" height="107px" viewBox="0 0 176 107" version="1.1" xmlns="http://www.w3.org/2000/svg" xmlns:xlink="http://www.w3.org/1999/xlink" xmlns:sketch="http://www.bohemiancoding.com/sketch/ns">
    <!-- Generator: Sketch 3.3.3 (12081) - http://www.bohemiancoding.com/sketch -->
    <title>PLANE</title>
    <desc>Created with Sketch.</desc>
    <defs></defs>
    <g id="Page-1" stroke="none" stroke-width="1" fill="none" fill-rule="evenodd" sketch:type="MSPage">
        <g id="HIGH-RES-DESKTOP" sketch:type="MSArtboardGroup" transform="translate(-1398.000000, -294.000000)">
            <g id="top-header" sketch:type="MSLayerGroup" transform="translate(-6.000000, -80.000000)">
                <g id="BANNER" sketch:type="MSShapeGroup">
                    <g id="PLANES" transform="translate(484.000000, 222.000000)">
                        <g id="PLANE" transform="translate(920.000000, 152.500000)">
                            <path d="M3.0391322,33.8527079 L10.6542644,29.7806404 L14.4624271,25.4370225 L21.5334508,19.7362472 L30.7809085,15.9351348 L42.7477153,14.306427 L56.3462508,14.8495281 L64.7775458,10.2343596 L77.2890576,4.2614382 L84.9041898,0.460921348 L92.7913763,0.189370787 L93.3348881,2.63332584 L90.3434847,8.33410112 L81.9121898,14.8495281 L94.6951593,15.3920337 L111.829207,16.478236 L130.868231,18.921 L141.747417,19.4646966 L153.170115,11.0490112 L163.505193,3.98988764 L171.39238,2.09022472 L173.568217,6.16229213 L170.032705,14.5779775 L161.872868,27.608236 L167.856868,33.3096067 L173.568217,36.838573 L175.472,41.4531461 L173.568217,46.0683146 L167.313356,44.9827079 L148.002278,38.4678764 L127.332122,41.182191 L111.013641,44.4402022 L100.678563,44.4402022 L111.557749,54.2130449 L125.156285,64.7999438 L139.298929,75.3880337 L153.170115,88.1467416 L168.673031,103.078449 L168.400976,105.792169 L158.337953,105.521213 L146.098495,101.720697 L135.764014,95.7483708 L116.997641,82.9884719 L97.6865627,71.5869213 L91.4311051,72.1300225 L82.1842441,73.2156292 L72.6647322,71.8584719 L66.1378169,69.6872584 L64.7775458,64.7999438 L64.7775458,60.4563258 L66.9533831,56.3848539 L70.4888949,54.7555506 L65.3216542,49.869427 L54.9865763,52.5843371 L44.3794441,53.3983933 L37.8519322,52.041236 L34.3164203,50.4119326 L25.8851254,51.2265843 L13.3742102,50.1409775 L3.85529492,47.1545169 L0.319186441,41.182191 L0.591240678,35.2098652 L3.0391322,33.8527079" id="Fill-1" fill="#FFFFFF"></path>
                            <path d="M77.3880949,17.7073596 C84.0874305,17.8199101 89.6752814,18.0450112 95.5978305,18.5374944 C100.379661,18.9346966 105.224136,18.5351124 110.149749,18.9519663 C113.438861,19.2306629 116.82522,19.3652472 120.21158,19.6159551 C123.06278,19.8279551 133.696163,21.0040787 135.927485,21.359 C136.901749,21.514427 141.743241,22.152809 143.160786,21.7746629 C144.087322,21.5263371 145.338414,20.2013371 146.237505,19.5331798 C149.346441,17.226191 151.972719,14.9591011 155.301803,12.8099213 C158.386875,10.8191461 161.386034,8.427 164.863675,6.58569663 C165.973966,5.99733708 167.687431,5.04691011 168.523281,5.00820225 C170.641844,4.91232584 171.861315,7.30625843 170.851254,9.07491011 C170.370983,9.91576404 169.66579,10.6363258 169.187308,11.4819438 C166.294942,16.6003146 162.97421,21.4548764 159.957749,26.6709101 C159.495973,27.4706742 158.602847,28.8171124 158.627308,29.410236 C158.664895,30.3040899 160.818061,31.7035281 161.621098,32.3151124 C163.792163,33.9664494 166.139227,35.5731236 168.439159,37.2953258 C169.522603,38.1052135 170.937763,38.8376854 171.765858,39.7845393 C173.318237,41.5609326 172.499092,42.934764 169.603146,42.4410899 C168.32461,42.2219438 167.381369,41.7389888 166.527024,41.5275843 C161.815593,40.3627753 157.307607,38.6286629 152.723851,37.045809 C151.381478,36.5825056 149.6352,35.4218652 148.39962,35.302764 C147.606129,35.2265393 146.591892,35.5868202 145.65581,35.718427 C144.641573,35.8601573 137.218549,36.9082472 135.428122,37.1291798 C130.115308,37.7848315 124.960597,38.9037865 119.795742,39.5362135 C116.211905,39.9751011 112.711593,40.4830674 109.15162,41.1125169 C104.339363,41.9634944 99.1554169,41.714573 94.8496814,43.1050787 C100.663647,48.6980674 106.211525,53.5091573 112.653125,58.3625281 C119.035064,63.1706404 138.183864,79.4696292 139.443308,80.4676966 C140.489763,81.297236 149.258739,88.6838876 152.540692,91.0450674 C154.680136,92.5838539 162.066169,98.7693708 165.030129,101.70164 C165.348719,102.016663 165.709668,103.182663 165.518156,103.641798 C160.091986,103.458382 153.661125,101.999989 149.231892,99.8758202 C148.37158,99.4631348 147.651471,98.6979101 146.820393,98.2983258 C141.827363,95.9008202 137.24301,92.8256292 132.684312,89.8332135 C121.135132,82.252427 109.066305,75.2665506 97.3447051,67.7554382 C94.1253966,70.8788652 85.6350373,70.5501461 79.0508475,70.0796966 C75.9025356,69.854 71.6063458,69.9320112 69.4054508,68.8350899 C66.9504,67.6095393 67.1067119,62.6596966 68.157939,60.4515618 C68.7145763,59.2819888 69.8684203,58.2303258 70.9017492,57.7956067 C72.1015322,57.290618 73.1205424,57.7461798 74.5607593,57.9611573 C77.0104407,58.3279888 79.5281356,58.0087978 82.1275661,58.2106742 C77.981722,55.5326854 74.0858576,53.1143371 69.7377627,50.4083596 C68.6119593,49.7086404 65.5799864,47.8351798 65.5799864,47.8351798 C65.5799864,47.8351798 60.6000814,48.5694382 59.1938712,48.8546854 C57.1767322,49.2643933 54.7950644,49.5156966 52.8835254,49.6872022 C48.4495186,50.0832135 43.7154169,51.1128427 39.3100475,49.8057079 C37.723661,49.3352584 36.4695864,47.8405393 34.7853559,48.0233596 C30.3799864,48.4979775 23.5738576,48.9547303 18.0170305,48.0846966 C16.1991593,47.8006404 14.3908339,47.3557978 12.4452881,46.8394944 C9.28743051,46.002809 5.54728136,44.6700674 4.1303322,42.772191 C2.89475254,41.1178764 2.22535593,39.7494045 3.11430508,37.6436966 C3.61844068,36.4491124 6.52810847,33.8866517 7.78874576,33.2280225 C9.69014237,32.2347191 11.6464271,31.5731124 13.1111051,30.4059213 C17.0069695,27.3027416 20.2334373,23.6433596 24.7527593,21.1100787 C30.7385492,17.755 39.3571797,16.5991236 48.1201898,16.7075056 C51.6366102,16.7509775 54.792678,17.1094719 57.9302508,16.7116742 C59.4110373,16.5228989 61.3864136,15.0942809 62.8845017,14.5088989 C64.6814915,13.8067978 71.7489356,9.99913483 73.5411525,9.0421573 C77.3326102,7.0168427 80.9080949,5.42267416 84.3761898,3.45691011 C84.8099254,3.21037079 85.5175051,2.98229213 86.0353627,2.85068539 C86.849139,2.64404494 89.6257627,2.54519101 89.8608271,3.34852809 C89.9777627,3.74632584 88.6347932,5.13385393 88.3048678,5.59596629 C85.2060746,9.93601124 80.386061,13.3297978 77.3880949,17.7073596 L77.3880949,17.7073596 Z M82.459878,5.42326966 C74.8184949,9.05466292 67.6603661,13.1565056 60.2582237,16.7116742 C63.2609627,17.123764 66.4558102,17.3601798 69.6548339,17.3756629 C71.6015729,17.384 75.8912,17.7073596 75.8912,17.7073596 C75.8912,17.7073596 77.7090712,15.8124607 78.3026983,15.1341798 C81.677722,11.2782809 85.8235661,7.79219101 88.5303864,3.59744944 C85.7818034,3.23955056 84.2628339,4.56633708 82.459878,5.42326966 L82.459878,5.42326966 Z M167.607485,38.1248652 C165.115444,36.2924944 162.919919,34.7882472 160.374183,32.8957303 C159.709559,32.4020562 157.313573,30.7525056 157.213939,29.8247079 C157.141153,29.1398764 158.425654,27.3640787 158.877288,26.504764 C159.547878,25.2297865 160.19699,24.2853146 160.79002,23.3515618 C163.615566,18.8959888 166.120136,14.6160899 168.854997,10.071191 C169.271431,9.38040449 170.157993,8.35494382 170.101912,7.58078652 C170.036285,6.6571573 168.718373,5.96458427 167.857464,6.41895506 C161.714169,9.66565169 155.712271,14.4439888 150.229424,18.6208652 C148.344732,20.0554382 146.594278,21.6716404 144.741207,23.1020449 C142.999702,24.4466966 142.030807,24.1525169 139.751756,23.8494045 C138.826414,23.7261348 137.908231,23.6975506 137.091471,23.5171124 C131.889627,22.368382 127.008759,22.0283483 121.125586,21.6085169 C107.228746,20.614618 91.9937085,19.6701461 77.5539525,18.9519663 C65.9367593,18.3743258 52.3549288,17.8937528 40.7174508,18.5374944 C33.0187932,18.9626854 27.5687593,20.6253371 22.7565017,23.7660337 C21.4660339,24.6080787 20.0377492,25.4066517 19.1810169,26.5881348 C22.1443797,26.8328876 26.2204203,27.0454831 28.9934644,26.7542809 C29.4260068,26.708427 30.3567186,26.2885955 31.2379119,26.504764 C33.5205424,27.0669213 32.2068068,30.5839775 31.3214373,31.4016067 C28.0878102,34.3886629 20.6206373,34.5798202 15.439078,33.7264607 C14.4081356,33.5561461 12.3390915,32.5562921 11.4477559,32.646809 C10.9489898,32.697427 7.46776949,34.7489438 6.84490847,35.1878315 C5.49537627,36.1388539 4.36539661,37.4888652 4.1303322,38.1248652 C3.42752542,40.0251236 5.08371525,41.3697753 6.29185085,41.6937303 C9.69252881,42.6066404 14.1247458,42.4041685 18.3493424,42.1082022 C21.8538305,41.8634494 25.1238508,41.7413708 28.3276475,41.5275843 C35.8598508,41.025573 43.1814508,40.5902584 50.0305356,39.8673146 C56.1821831,39.2182135 62.3439729,38.3803371 68.4902508,37.7931685 C74.5589695,37.2119551 80.4636203,36.0167753 86.4512,35.302764 C98.6745492,33.8467528 110.977844,31.6618427 123.537085,30.8209888 C127.303485,30.5690899 130.417193,30.6018427 134.098278,30.4059213 C136.374942,30.2850337 138.26918,30.5804045 141.748014,30.4059213 C143.300393,30.3279101 145.972014,30.3154045 145.988122,31.4016067 C147.153302,32.5146067 148.537437,33.5585281 150.146495,34.0575618 C156.862536,36.1430225 163.082793,39.8137191 170.851254,41.0291461 C170.246888,39.6094607 168.740447,38.957382 167.607485,38.1248652 L167.607485,38.1248652 Z M17.434739,27.6665955 C16.0834169,29.0571011 14.6748203,30.3898427 13.1934373,31.6505281 C14.5847322,32.1715955 16.2325695,32.436 17.8499797,32.7301798 C18.6941831,31.054427 19.9106712,29.7508652 20.5943864,27.9161124 C19.5049763,27.7106629 18.5861966,27.828573 17.434739,27.6665955 L17.434739,27.6665955 Z M31.4872949,29.3268652 C32.0141017,26.9144719 29.4976,28.2412584 27.6624271,28.247809 C27.5765153,29.6371236 27.1547119,31.1044494 27.0807322,32.2317416 C28.9105356,31.9744831 31.1448407,30.896618 31.4872949,29.3268652 L31.4872949,29.3268652 Z M21.5089898,28.3305843 C20.5556068,29.623427 19.6773966,31.2342697 19.0974915,32.8957303 C21.5346441,33.0636629 24.2152136,33.068427 25.999078,32.4812584 C26.2735186,31.1705506 26.7806373,29.6144944 26.5813695,28.3305843 C25.4991186,28.730764 22.0453424,27.6046629 21.5089898,28.3305843 L21.5089898,28.3305843 Z M136.842088,31.1532809 C132.312027,31.2283146 126.836936,30.9805843 122.206644,31.6505281 C118.251715,32.2234045 114.247864,32.3693034 110.316203,32.8957303 C95.5280271,34.876382 80.523878,37.1732472 65.8293695,38.9544045 C53.5278644,40.4455506 40.3129492,41.497809 27.6624271,42.4410899 C19.9249898,43.0175393 13.0418983,43.8959101 5.62722712,42.5232697 C9.06131525,45.7693708 17.2211525,44.6807865 23.5887729,44.2669101 C31.3858712,43.7595393 38.6490034,42.9431011 46.122739,42.1082022 C49.4190102,41.7413708 52.7099119,41.4501685 55.6846102,40.9475618 C56.3265627,40.8379888 56.8623186,40.7826067 57.3485559,40.7808202 C58.6509559,40.7742697 59.0286102,41.3650112 59.9253153,42.0260225 C63.1016678,44.363382 66.8364475,46.4941011 69.9871458,48.5825393 C75.904922,52.5045393 81.5160407,55.9084494 87.2828746,59.7042022 C96.9616814,66.0755169 106.851092,71.6274157 116.552569,77.8808202 C120.38758,80.3539551 124.381288,82.7228764 128.193627,85.2680674 C134.685939,89.6009663 141.990237,93.6825618 148.483146,98.1327753 C152.343214,100.778607 158.541397,101.771315 163.866142,102.449 C162.699173,100.740494 160.901586,99.5185169 159.292529,98.2161461 C154.35021,94.2137528 149.317207,90.4531348 144.408298,86.4304944 C137.942834,81.1310899 131.637261,75.4076854 124.951051,70.4107978 C118.354332,65.4817978 112.024895,59.8030562 105.410875,54.4762584 C99.7914034,49.9510112 94.0979525,45.0756067 88.2810034,40.6146742 C87.6116068,40.1019438 86.2238915,38.8186292 85.8695051,38.5393371 C85.0306712,37.8813034 87.4594712,37.3536854 88.0316203,37.2953258 C93.6176814,36.7206629 99.8283932,36.1454045 106.075498,35.3861348 C113.740746,34.453573 121.722197,33.182764 128.942373,32.646809 C133.102536,32.3383371 137.220339,32.1096629 140.915742,31.8994494 C142.057058,31.8351348 144.166671,31.7845169 144.741207,31.4016067 C142.179363,31.0395393 139.454047,31.109809 136.842088,31.1532809 L136.842088,31.1532809 Z M145.239973,32.4812584 C143.349315,32.2543708 140.924095,32.5312809 138.754224,32.7301798 C136.419688,32.9427753 134.008786,33.2214719 131.686183,33.3107978 C126.178875,33.5227978 120.237831,34.4148652 114.556908,35.0538427 C105.56301,36.0656067 95.965939,37.1244157 87.2828746,38.374382 C87.7899932,39.063382 88.4749017,39.5278764 89.2785356,40.1168315 C89.9246644,40.5908539 90.6704271,41.6091685 91.357722,41.7771011 C92.7096407,42.1064157 94.9785492,41.3030787 96.4295051,41.1125169 C112.629858,38.9841798 130.421369,36.0763258 146.820393,33.6430899 C146.357424,33.0082809 145.87238,32.5568876 145.239973,32.4812584 L145.239973,32.4812584 Z M60.0923661,44.1835393 C59.1944678,43.5588539 58.1408542,42.4964719 57.1815051,42.2743483 C55.4203119,41.8670225 53.2778847,42.2284944 51.1951186,42.3577191 C38.4652475,43.1473596 25.4895729,45.7681798 12.3623593,45.5948876 C18.1834847,47.0324382 24.6340339,47.6845169 30.9885288,47.1717865 C32.1906983,47.0747191 33.5366508,46.6268989 34.7304678,46.6739438 C35.8300203,46.7162247 36.8669288,47.3992697 38.0565695,47.8351798 C39.9114305,48.5164382 42.9177492,48.8195506 45.0410847,48.6659101 C50.9982373,48.2353596 57.0550237,46.9633596 63.0026305,46.0921348 C62.3445695,45.2161461 61.1227119,44.9023146 60.0923661,44.1835393 L60.0923661,44.1835393 Z M68.9896136,60.7004831 C68.0463729,62.6299213 68.020122,67.367764 69.9042169,68.0043596 C71.3772475,68.5022022 73.237478,67.3403708 73.8120136,66.5108315 C75.3906441,64.2318315 75.0637017,59.6381011 72.980339,58.3762247 C71.4285559,58.5912022 69.7294102,59.1861124 68.9896136,60.7004831 L68.9896136,60.7004831 Z M73.6461559,68.1705056 C79.9600814,68.4063258 86.0508746,69.0476854 91.9394169,68.5022022 C93.1356203,68.3920337 96.0321627,67.9025281 95.930739,66.9258989 C95.8901695,66.5292921 93.9303051,65.6431798 93.4363119,65.3484045 C90.7277017,63.7310112 88.224922,62.1684045 85.8695051,60.6177079 C85.0521492,60.0799663 84.4394305,59.3212921 83.7079864,59.1235843 C82.4073763,58.7716404 80.8675254,59.1616966 79.4666847,59.0402135 C77.9178847,58.9068202 76.2473763,58.7019663 74.8930712,58.7912921 C76.7962576,61.536573 75.6107932,66.5465618 73.6461559,68.1705056 L73.6461559,68.1705056 Z" id="Fill-2" fill="#000000"></path>
                            <path d="M119.61139,25.9301011 C120.431132,25.7919438 121.077858,27.2288989 120.693044,27.9220674 C120.250956,28.7170674 117.931336,28.9701573 117.865708,27.6731461 C117.825139,26.8817191 118.894861,26.0509888 119.61139,25.9301011 L119.61139,25.9301011 Z M118.863241,27.5897753 C119.017166,27.9762584 119.685966,27.8375056 119.860773,27.507 C119.973532,27.2955955 119.948475,26.8882697 119.778441,26.8430112 C119.333966,26.7251011 118.698576,27.1776854 118.863241,27.5897753 L118.863241,27.5897753 Z" id="Fill-3" fill="#000000"></path>
                            <path d="M111.812502,26.504764 C113.830237,26.129 114.630888,28.726 112.560651,28.9117978 C111.001708,29.0517416 109.793573,26.8811236 111.812502,26.504764 L111.812502,26.504764 Z M111.728976,27.4182697 C111.281519,27.9113483 113.0624,28.3246292 112.976488,27.6665955 C112.932339,27.3247753 112.035037,27.081809 111.728976,27.4182697 L111.728976,27.4182697 Z" id="Fill-4" fill="#000000"></path>
                            <path d="M124.285831,28.4973258 C123.258468,25.968809 127.815376,25.7115506 126.946115,28.247809 C126.668095,29.0630562 124.85082,29.1279663 124.285831,28.4973258 L124.285831,28.4973258 Z M125.116908,27.5010449 C125.039946,27.6481348 125.02861,27.8589438 125.116908,27.9994831 C125.339444,28.3496404 126.535647,28.0691573 126.115037,27.5010449 C125.97722,27.3158427 125.224895,27.297382 125.116908,27.5010449 L125.116908,27.5010449 Z" id="Fill-5" fill="#000000"></path>
                            <path d="M131.686183,26.6709101 C132.161681,26.5601461 132.445071,26.5238202 132.684312,26.6709101 C134.146603,27.5713146 131.019173,29.3917753 130.688651,27.7499663 C130.552027,27.0728764 131.177275,26.7900112 131.686183,26.6709101" id="Fill-6" fill="#000000"></path>
                            <path d="M138.006075,26.7542809 C140.159837,26.5672921 137.421993,29.3941573 137.091471,27.5838202 C136.981695,26.9829551 137.479268,26.8001348 138.006075,26.7542809" id="Fill-7" fill="#000000"></path>
                            <path d="M90.442522,26.8370562 C90.9412881,26.7137865 91.8075661,26.6089775 92.1893966,26.7542809 C93.4142373,27.2199663 92.6827932,29.0267303 92.0223458,29.410236 C89.4414102,30.9097191 87.6306983,27.5320112 90.442522,26.8370562 L90.442522,26.8370562 Z M89.8608271,28.5801011 C90.2158102,29.304236 93.0503051,28.3788202 91.8564881,27.5838202 C91.1166915,27.0913371 89.3990508,27.6374157 89.8608271,28.5801011 L89.8608271,28.5801011 Z" id="Fill-8" fill="#000000"></path>
                            <path d="M106.159024,26.9198315 C106.749668,26.9317416 107.623105,27.5135506 107.654725,28.1650337 C107.729898,29.6657079 104.237342,29.9176067 104.163363,28.3305843 C104.119214,27.3992135 104.92941,26.8960112 106.159024,26.9198315 L106.159024,26.9198315 Z M106.740122,28.1650337 C106.756827,27.5832247 104.92762,27.4438764 105.077966,28.247809 C105.188339,28.8391461 106.72461,28.7396966 106.740122,28.1650337 L106.740122,28.1650337 Z" id="Fill-9" fill="#000000"></path>
                            <path d="M143.078454,26.8370562 C143.339173,27.0383371 143.394658,27.4742472 143.160786,27.7499663 C142.957939,27.9899551 142.379824,27.8994382 142.24678,27.6665955 C141.89478,27.0490562 142.528976,26.4124607 143.078454,26.8370562" id="Fill-10" fill="#000000"></path>
                            <path d="M80.9450847,27.5963258 C82.2570305,27.1032472 83.5677831,28.0375955 83.5224407,29.0076742 C83.4257898,31.0722921 79.2793492,31.2598764 79.8634305,28.7581573 C79.8849085,28.671809 80.3132746,27.8339326 80.9450847,27.5963258 L80.9450847,27.5963258 Z M81.0286102,29.7544382 C82.1126508,30.5595618 83.5677831,28.2102921 81.7761627,28.4264607 C80.9832678,28.5223371 80.4618305,29.3340112 81.0286102,29.7544382 L81.0286102,29.7544382 Z" id="Fill-11" fill="#000000"></path>
                            <path d="M98.3422373,27.1687528 C99.6285288,26.8465843 100.371308,27.3104831 100.503756,28.1650337 C100.826522,30.2350112 97.4908746,30.4160449 97.0947254,29.0779438 C96.7683797,27.9768539 97.6513627,27.3420449 98.3422373,27.1687528 L98.3422373,27.1687528 Z M98.0093288,28.7462472 C98.2420068,29.5680449 100.7776,28.6539438 99.4226983,27.8327416 C98.8976814,27.5141461 97.8255729,28.0917865 98.0093288,28.7462472 L98.0093288,28.7462472 Z" id="Fill-12" fill="#000000"></path>
                            <path d="M72.980339,27.5010449 C75.2241898,27.4724607 74.8859119,31.1884157 72.3151186,30.9865393 C69.9776,30.8037191 70.6070237,27.5308202 72.980339,27.5010449 L72.980339,27.5010449 Z M71.8163525,28.828427 C70.9787119,30.1903483 73.659878,31.0288202 73.5626305,29.0779438 C73.5357831,28.5396067 72.2107119,28.1876629 71.8163525,28.828427 L71.8163525,28.828427 Z" id="Fill-13" fill="#000000"></path>
                            <path d="M52.6914169,28.3305843 C53.9562305,28.0399775 55.4549153,28.6271461 55.6846102,29.5757865 C56.4417085,32.6980225 51.2273356,32.8742921 51.1115932,30.157 C51.0757966,29.3221011 51.5751593,28.5872472 52.6914169,28.3305843 L52.6914169,28.3305843 Z M54.7700068,30.5720674 C55.136922,29.3375843 53.7957424,28.7164719 52.8572746,28.9951685 C50.322278,29.7484831 54.0958373,32.8415393 54.7700068,30.5720674 L54.7700068,30.5720674 Z" id="Fill-14" fill="#000000"></path>
                            <path d="M63.1690847,28.4139551 C64.3169627,28.2859213 65.5137627,28.6902697 65.6635119,29.7419326 C65.8430915,31.003809 64.6260068,31.8857528 63.8337085,31.9828202 C61.2533695,32.2996292 60.3393627,28.729573 63.1690847,28.4139551 L63.1690847,28.4139551 Z M64.0001627,31.0699101 C65.2816814,30.6423371 64.673139,28.6551348 62.9191051,29.2434944 C61.5057356,29.7187079 62.8045559,31.4688989 64.0001627,31.0699101 L64.0001627,31.0699101 Z" id="Fill-15" fill="#000000"></path>
                            <path d="M41.2162169,28.4973258 C42.7936542,28.0995281 44.4969763,28.3305843 44.5429153,29.7419326 C44.6312136,32.487809 40.8773424,32.9415843 40.1351593,30.737618 C39.751539,29.5984157 40.2145085,28.7492247 41.2162169,28.4973258 L41.2162169,28.4973258 Z M40.9674305,29.410236 C40.5301153,30.0480225 41.3092881,31.2646404 41.7985085,31.4016067 C42.9762169,31.7321124 44.4939932,30.4881011 43.7112407,29.410236 C43.3276203,28.8820225 41.2818441,28.9493146 40.9674305,29.410236 L40.9674305,29.410236 Z" id="Fill-16" fill="#000000"></path>
                        </g>
                    </g>
                </g>
            </g>
        </g>
    </g>
</svg>