<?xml version="1.0" encoding="UTF-8" standalone="no"?>
<svg width="88px" height="21px" viewBox="0 0 88 21" version="1.1" xmlns="http://www.w3.org/2000/svg" xmlns:xlink="http://www.w3.org/1999/xlink" xmlns:sketch="http://www.bohemiancoding.com/sketch/ns">
    <!-- Generator: Sketch 3.3.3 (12081) - http://www.bohemiancoding.com/sketch -->
    <title>REAKTOR LOGO</title>
    <desc>Created with Sketch.</desc>
    <defs></defs>
    <g id="Page-1" stroke="none" stroke-width="1" fill="none" fill-rule="evenodd" sketch:type="MSPage">
        <g id="HIGH-RES-DESKTOP" sketch:type="MSArtboardGroup" transform="translate(-839.000000, -130.000000)" fill="#000000">
            <g id="top-header" sketch:type="MSLayerGroup" transform="translate(-6.000000, -80.000000)">
                <g id="LOGOS" transform="translate(845.000000, 159.000000)" sketch:type="MSShapeGroup">
                    <g id="REAKTOR">
                        <g id="logos-copy" transform="translate(0.000000, 46.000000)">
                            <g id="LOGOS" transform="translate(0.000000, 0.482143)">
                                <path d="M87.7777778,12.8549953 L87.7777778,9.18903739 C86.0226334,9.18903739 84.4622646,10.2671352 83.9980495,10.9858671 L83.9980495,9.54840333 L80.4141789,9.54840333 L80.4141789,21.8146898 L83.9980495,21.8146898 L83.9980495,15.8734565 C83.9980495,13.8607946 85.5346124,12.8549953 87.7777778,12.8549953 L87.7777778,12.8549953 Z M78.3755279,15.6097797 C78.3755279,12.0161203 75.4982598,9.18903739 71.8159193,9.18903739 C68.1584668,9.18903739 65.2573928,12.0161203 65.2573928,15.6097797 C65.2573928,19.7063388 68.4517122,22.1506651 71.8159193,22.1506651 C75.2050143,22.1506651 78.3755279,19.7063388 78.3755279,15.6097797 L78.3755279,15.6097797 Z M74.887963,15.6097797 C74.887963,17.6947401 73.5472577,19.0120608 71.8159193,19.0120608 C70.0845808,19.0120608 68.7438756,17.6947401 68.7438756,15.6097797 C68.7438756,13.5492732 70.2068566,12.304251 71.8159193,12.304251 C73.424982,12.304251 74.887963,13.5492732 74.887963,15.6097797 L74.887963,15.6097797 Z M60.8100171,22.210205 C62.3022144,22.210205 63.5531065,21.8497758 63.9199338,21.730696 L63.9199338,18.7271197 C63.7002702,18.7994182 62.7415416,18.9674059 61.9104991,18.9674059 C60.7375173,18.9674059 60.2235262,18.198703 60.2235262,17.045117 L60.2235262,12.5051982 L63.7002702,12.5051982 L63.7002702,9.59837434 L60.2235262,9.59837434 L60.2235262,6.48422394 L56.6288347,6.48422394 L56.6288347,18.0785599 C56.6288347,20.5526562 58.3893895,22.210205 60.8100171,22.210205 L60.8100171,22.210205 Z M50.5204562,14.4795845 L55.1388016,9.54946655 L50.6156798,9.54946655 L46.6303551,13.7055655 L46.6303551,4.83624404 L43.0356637,4.83624404 L43.0356637,21.8742297 L46.6303551,21.8742297 L46.6303551,18.6548213 L47.9753887,17.2131047 L47.9981125,17.1886508 L52.6413458,24.7736111 L56.895028,24.7736111 L50.5204562,14.4795845 Z M36.7963527,21.8497758 L40.2925743,21.8497758 L40.2925743,14.2105916 C40.2925743,11.6875876 38.6294073,9.18903739 34.7414704,9.18903739 C31.2214428,9.18903739 29.4360001,11.2314693 28.9717849,12.6965765 L32.3219249,13.3461996 C32.6151703,12.7933289 33.4213248,12.2170676 34.5705007,12.2170676 C35.9642281,12.2170676 36.7963527,12.9368626 36.7963527,13.6821748 C36.062698,13.777864 33.1529673,14.2584362 32.3944247,14.4030331 C30.1696547,14.8346976 28.4577938,16.060582 28.4577938,18.3911445 C28.4577938,20.5048116 30.3406244,22.1389697 32.78614,22.1389697 C34.4731129,22.1389697 35.6222888,21.5616452 36.6243009,20.5771101 L36.7963527,20.5771101 L36.7963527,21.8497758 Z M36.8201586,17.1652601 C36.8201586,17.5256892 36.8201586,17.6702862 36.6491889,17.9828708 C36.1849738,18.8228089 34.7912463,19.2321458 33.9353159,19.2321458 C33.0058035,19.2321458 32.1498731,18.942952 32.1498731,18.0785599 C32.1498731,16.9738818 33.4949067,16.7335957 34.4980009,16.5167003 C35.6222888,16.2764142 36.062698,16.2041157 36.8201586,16.060582 L36.8201586,17.1652601 Z M26.8573878,16.924974 C26.9060817,16.6368433 26.9309697,16.060582 26.9309697,15.6278543 C26.9309697,12.1203152 24.3631784,9.21349129 20.5737113,9.21349129 C16.8816321,9.21349129 14.192647,12.0969245 14.192647,15.6523082 C14.192647,19.7116548 17.3220413,22.1868143 20.6959871,22.1868143 C22.9694509,22.1868143 25.0481392,20.9853838 26.2708969,19.2321458 L23.3611662,17.7425847 C22.7497873,18.4623798 21.9187449,19.0152504 20.744681,19.0152504 C19.2535657,19.0152504 18.1530837,18.1264045 17.9572261,16.924974 L26.8573878,16.924974 Z M23.458554,14.4264238 L17.8836442,14.4264238 C18.055696,13.3695903 19.106402,12.2404582 20.6710991,12.2404582 C22.2606842,12.2404582 23.3124723,13.3461996 23.458554,14.4264238 L23.458554,14.4264238 Z M13.8885807,21.8497758 L9.60892845,14.8591515 C11.3456773,14.0181501 12.592241,12.5051982 12.592241,10.1501818 C12.592241,6.71494112 9.75609222,4.69696316 6.38214639,4.69696316 L0,4.69696316 L0,21.8497758 L3.83924303,21.8497758 L3.83924303,15.6756989 L5.81946139,15.6756989 L9.58512254,21.8497758 L13.8885807,21.8497758 Z M8.72919209,10.3181694 C8.72919209,11.4473015 7.87326164,12.2404582 6.25987062,12.2404582 L3.83924303,12.2404582 L3.83924303,8.44478841 L6.25987062,8.44478841 C7.87326164,8.44478841 8.72919209,9.18903739 8.72919209,10.3181694 L8.72919209,10.3181694 Z" id="REAKTOR-LOGO"></path>
                            </g>
                        </g>
                    </g>
                </g>
            </g>
        </g>
    </g>
</svg>