<?xml version="1.0" encoding="UTF-8" standalone="no"?>
<svg width="97px" height="190px" viewBox="0 0 97 190" version="1.1" xmlns="http://www.w3.org/2000/svg" xmlns:xlink="http://www.w3.org/1999/xlink" xmlns:sketch="http://www.bohemiancoding.com/sketch/ns">
    <!-- Generator: Sketch 3.3.3 (12081) - http://www.bohemiancoding.com/sketch -->
    <title>NY CITY</title>
    <desc>Created with Sketch.</desc>
    <defs></defs>
    <g id="Page-1" stroke="none" stroke-width="1" fill="none" fill-rule="evenodd" sketch:type="MSPage">
        <g id="HIGH-RES-TABLET" sketch:type="MSArtboardGroup" transform="translate(-957.500000, -1340.000000)">
            <g id="FOOTER-Copy" sketch:type="MSLayerGroup" transform="translate(-217.000000, 1165.000000)">
                <g id="NY-CITY" transform="translate(1175.048436, 175.375000)" sketch:type="MSShapeGroup">
                    <path d="M83.6845263,106.247 L95.0814233,106.247 L95.0814233,181.556 L83.6845263,181.556 L83.6845263,106.247 Z" id="Fill-1" fill="#6B82A2"></path>
                    <path d="M75.7790168,0.1715 L78.5442197,0.1715 L78.5442197,33.152 L75.7790168,33.152 L75.7790168,0.1715 Z" id="Fill-2" fill="#E4CC98"></path>
                    <path d="M70.6372098,37.2785 L83.6845263,37.2785 L83.6845263,98.6165 L70.6372098,98.6165 L70.6372098,37.2785 Z" id="Fill-3" fill="#EEDEBD"></path>
                    <path d="M83.6845263,37.2785 L70.6372098,37.2785 L75.7790168,16.661 L78.5442197,16.661 L83.6845263,37.2785" id="Fill-4" fill="#D2AA53"></path>
                    <path d="M68.1765843,47.33 L86.1481526,47.33 L86.1481526,131.8115 L68.1765843,131.8115 L68.1765843,47.33 Z" id="Fill-5" fill="#D2AA53"></path>
                    <path d="M65.3753722,68.7875 L88.9478642,68.7875 L88.9478642,183.6665 L65.3753722,183.6665 L65.3753722,68.7875 Z" id="Fill-6" fill="#E4CC98"></path>
                    <path d="M68.1765843,72.0275 L71.97555,72.0275 L71.97555,76.7015 L68.1765843,76.7015 L68.1765843,72.0275 Z" id="Fill-7" fill="#BA9953"></path>
                    <path d="M74.9343021,72.0275 L78.7317674,72.0275 L78.7317674,76.7015 L74.9343021,76.7015 L74.9343021,72.0275 Z" id="Fill-8" fill="#BA9953"></path>
                    <path d="M81.6905195,72.0275 L85.4894851,72.0275 L85.4894851,76.7015 L81.6905195,76.7015 L81.6905195,72.0275 Z" id="Fill-9" fill="#BA9953"></path>
                    <path d="M68.1765843,80.426 L71.97555,80.426 L71.97555,85.103 L68.1765843,85.103 L68.1765843,80.426 Z" id="Fill-10" fill="#BA9953"></path>
                    <path d="M74.9343021,80.426 L78.7317674,80.426 L78.7317674,85.103 L74.9343021,85.103 L74.9343021,80.426 Z" id="Fill-11" fill="#BA9953"></path>
                    <path d="M81.6905195,80.426 L85.4894851,80.426 L85.4894851,85.103 L81.6905195,85.103 L81.6905195,80.426 Z" id="Fill-12" fill="#BA9953"></path>
                    <path d="M68.1765843,88.8245 L71.97555,88.8245 L71.97555,93.5015 L68.1765843,93.5015 L68.1765843,88.8245 Z" id="Fill-13" fill="#BA9953"></path>
                    <path d="M74.9343021,88.8245 L78.7317674,88.8245 L78.7317674,93.5015 L74.9343021,93.5015 L74.9343021,88.8245 Z" id="Fill-14" fill="#BA9953"></path>
                    <path d="M81.6905195,88.8245 L85.4894851,88.8245 L85.4894851,93.5015 L81.6905195,93.5015 L81.6905195,88.8245 Z" id="Fill-15" fill="#BA9953"></path>
                    <path d="M68.1765843,97.226 L71.97555,97.226 L71.97555,101.903 L68.1765843,101.903 L68.1765843,97.226 Z" id="Fill-16" fill="#BA9953"></path>
                    <path d="M74.9343021,97.226 L78.7317674,97.226 L78.7317674,101.903 L74.9343021,101.903 L74.9343021,97.226 Z" id="Fill-17" fill="#BA9953"></path>
                    <path d="M81.6905195,97.226 L85.4894851,97.226 L85.4894851,101.903 L81.6905195,101.903 L81.6905195,97.226 Z" id="Fill-18" fill="#BA9953"></path>
                    <path d="M68.1765843,105.626 L71.97555,105.626 L71.97555,110.3 L68.1765843,110.3 L68.1765843,105.626 Z" id="Fill-19" fill="#BA9953"></path>
                    <path d="M74.9343021,105.626 L78.7317674,105.626 L78.7317674,110.3 L74.9343021,110.3 L74.9343021,105.626 Z" id="Fill-20" fill="#BA9953"></path>
                    <path d="M81.6905195,105.626 L85.4894851,105.626 L85.4894851,110.3 L81.6905195,110.3 L81.6905195,105.626 Z" id="Fill-21" fill="#BA9953"></path>
                    <path d="M68.1765843,114.0245 L71.97555,114.0245 L71.97555,118.7015 L68.1765843,118.7015 L68.1765843,114.0245 Z" id="Fill-22" fill="#BA9953"></path>
                    <path d="M74.9343021,114.0245 L78.7317674,114.0245 L78.7317674,118.7015 L74.9343021,118.7015 L74.9343021,114.0245 Z" id="Fill-23" fill="#BA9953"></path>
                    <path d="M81.6905195,114.0245 L85.4894851,114.0245 L85.4894851,118.7015 L81.6905195,118.7015 L81.6905195,114.0245 Z" id="Fill-24" fill="#BA9953"></path>
                    <path d="M68.1765843,122.4245 L71.97555,122.4245 L71.97555,127.1015 L68.1765843,127.1015 L68.1765843,122.4245 Z" id="Fill-25" fill="#BA9953"></path>
                    <path d="M74.9343021,122.4245 L78.7317674,122.4245 L78.7317674,127.1015 L74.9343021,127.1015 L74.9343021,122.4245 Z" id="Fill-26" fill="#BA9953"></path>
                    <path d="M81.6905195,122.4245 L85.4894851,122.4245 L85.4894851,127.1015 L81.6905195,127.1015 L81.6905195,122.4245 Z" id="Fill-27" fill="#BA9953"></path>
                    <path d="M68.1765843,130.8245 L71.97555,130.8245 L71.97555,135.5015 L68.1765843,135.5015 L68.1765843,130.8245 Z" id="Fill-28" fill="#BA9953"></path>
                    <path d="M74.9343021,130.8245 L78.7317674,130.8245 L78.7317674,135.5015 L74.9343021,135.5015 L74.9343021,130.8245 Z" id="Fill-29" fill="#BA9953"></path>
                    <path d="M81.6905195,130.8245 L85.4894851,130.8245 L85.4894851,135.5015 L81.6905195,135.5015 L81.6905195,130.8245 Z" id="Fill-30" fill="#BA9953"></path>
                    <path d="M68.1765843,139.226 L71.97555,139.226 L71.97555,143.9 L68.1765843,143.9 L68.1765843,139.226 Z" id="Fill-31" fill="#BA9953"></path>
                    <path d="M74.9343021,139.226 L78.7317674,139.226 L78.7317674,143.9 L74.9343021,143.9 L74.9343021,139.226 Z" id="Fill-32" fill="#BA9953"></path>
                    <path d="M81.6905195,139.226 L85.4894851,139.226 L85.4894851,143.9 L81.6905195,143.9 L81.6905195,139.226 Z" id="Fill-33" fill="#BA9953"></path>
                    <path d="M68.1765843,147.6215 L71.97555,147.6215 L71.97555,152.2985 L68.1765843,152.2985 L68.1765843,147.6215 Z" id="Fill-34" fill="#BA9953"></path>
                    <path d="M74.9343021,147.6215 L78.7317674,147.6215 L78.7317674,152.2985 L74.9343021,152.2985 L74.9343021,147.6215 Z" id="Fill-35" fill="#BA9953"></path>
                    <path d="M81.6905195,147.6215 L85.4894851,147.6215 L85.4894851,152.2985 L81.6905195,152.2985 L81.6905195,147.6215 Z" id="Fill-36" fill="#BA9953"></path>
                    <path d="M68.1765843,156.023 L71.97555,156.023 L71.97555,160.7 L68.1765843,160.7 L68.1765843,156.023 Z" id="Fill-37" fill="#BA9953"></path>
                    <path d="M74.9343021,156.023 L78.7317674,156.023 L78.7317674,160.7 L74.9343021,160.7 L74.9343021,156.023 Z" id="Fill-38" fill="#BA9953"></path>
                    <path d="M81.6905195,156.023 L85.4894851,156.023 L85.4894851,160.7 L81.6905195,160.7 L81.6905195,156.023 Z" id="Fill-39" fill="#BA9953"></path>
                    <path d="M68.1765843,164.4245 L71.97555,164.4245 L71.97555,169.1015 L68.1765843,169.1015 L68.1765843,164.4245 Z" id="Fill-40" fill="#BA9953"></path>
                    <path d="M74.9343021,164.4245 L78.7317674,164.4245 L78.7317674,169.1015 L74.9343021,169.1015 L74.9343021,164.4245 Z" id="Fill-41" fill="#BA9953"></path>
                    <path d="M81.6905195,164.4245 L85.4894851,164.4245 L85.4894851,169.1015 L81.6905195,169.1015 L81.6905195,164.4245 Z" id="Fill-42" fill="#BA9953"></path>
                    <path d="M68.1765843,172.8245 L71.97555,172.8245 L71.97555,177.497 L68.1765843,177.497 L68.1765843,172.8245 Z" id="Fill-43" fill="#BA9953"></path>
                    <path d="M74.9343021,172.8245 L78.7317674,172.8245 L78.7317674,177.497 L74.9343021,177.497 L74.9343021,172.8245 Z" id="Fill-44" fill="#BA9953"></path>
                    <path d="M81.6905195,172.8245 L85.4894851,172.8245 L85.4894851,177.497 L81.6905195,177.497 L81.6905195,172.8245 Z" id="Fill-45" fill="#BA9953"></path>
                    <path d="M0.230312738,97.733 L35.4937765,97.733 L35.4937765,182.7785 L0.230312738,182.7785 L0.230312738,97.733 Z" id="Fill-46" fill="#DBB13F"></path>
                    <path d="M65.9125088,155.2535 L95.6005553,155.2535 L95.6005553,189.1865 L65.9125088,189.1865 L65.9125088,155.2535 Z" id="Fill-47" fill="#24386D"></path>
                    <path d="M11.6587178,97.733 L35.4952769,97.733 L35.4952769,182.7785 L11.6587178,182.7785 L11.6587178,97.733 Z" id="Fill-48" fill="#B9752F"></path>
                    <path d="M35.4937765,88.4465 L72.7257407,88.4465 L72.7257407,187.04 L35.4937765,187.04 L35.4937765,88.4465 Z" id="Fill-49" fill="#24386D"></path>
                    <path d="M44.4615561,56.723 C41.8238856,55.184 38.7661083,54.2915 35.4907757,54.2915 C32.2184439,54.2915 29.1606667,55.184 26.5229962,56.723 L26.5229962,68.021 L44.4615561,68.021 L44.4615561,56.723" id="Fill-50" fill="#408BB8"></path>
                    <path d="M26.5229962,57.719 L44.4615561,57.719 L44.4615561,72.0275 L26.5229962,72.0275 L26.5229962,57.719 Z" id="Fill-51" fill="#4B6375"></path>
                    <path d="M21.7517834,64.874 L49.2312685,64.874 L49.2312685,176.2565 L21.7517834,176.2565 L21.7517834,64.874 Z" id="Fill-52" fill="#408BB8"></path>
                    <path d="M21.7517834,68.552 L35.4937765,68.552 L35.4937765,71.7005 L21.7517834,71.7005 L21.7517834,68.552 Z" id="Fill-53" fill="#4BDCDC"></path>
                    <path d="M21.7517834,75.128 L35.4937765,75.128 L35.4937765,78.275 L21.7517834,78.275 L21.7517834,75.128 Z" id="Fill-54" fill="#4BDCDC"></path>
                    <path d="M21.7517834,81.707 L35.4937765,81.707 L35.4937765,84.8555 L21.7517834,84.8555 L21.7517834,81.707 Z" id="Fill-55" fill="#4BDCDC"></path>
                    <path d="M21.7517834,88.283 L35.4937765,88.283 L35.4937765,91.4315 L21.7517834,91.4315 L21.7517834,88.283 Z" id="Fill-56" fill="#4BDCDC"></path>
                    <path d="M21.7517834,94.859 L35.4937765,94.859 L35.4937765,98.0075 L21.7517834,98.0075 L21.7517834,94.859 Z" id="Fill-57" fill="#4BDCDC"></path>
                    <path d="M21.7517834,101.4365 L35.4937765,101.4365 L35.4937765,104.585 L21.7517834,104.585 L21.7517834,101.4365 Z" id="Fill-58" fill="#4BDCDC"></path>
                    <path d="M21.7517834,108.014 L35.4937765,108.014 L35.4937765,111.1625 L21.7517834,111.1625 L21.7517834,108.014 Z" id="Fill-59" fill="#4BDCDC"></path>
                    <path d="M21.7517834,114.59 L35.4937765,114.59 L35.4937765,117.7385 L21.7517834,117.7385 L21.7517834,114.59 Z" id="Fill-60" fill="#4BDCDC"></path>
                    <path d="M21.7517834,121.166 L35.4937765,121.166 L35.4937765,124.316 L21.7517834,124.316 L21.7517834,121.166 Z" id="Fill-61" fill="#4BDCDC"></path>
                    <path d="M21.7517834,127.7435 L35.4937765,127.7435 L35.4937765,130.892 L21.7517834,130.892 L21.7517834,127.7435 Z" id="Fill-62" fill="#4BDCDC"></path>
                    <path d="M21.7517834,134.321 L35.4937765,134.321 L35.4937765,137.4695 L21.7517834,137.4695 L21.7517834,134.321 Z" id="Fill-63" fill="#4BDCDC"></path>
                    <path d="M21.7517834,140.897 L35.4937765,140.897 L35.4937765,144.0455 L21.7517834,144.0455 L21.7517834,140.897 Z" id="Fill-64" fill="#4BDCDC"></path>
                    <path d="M21.7517834,147.4745 L35.4937765,147.4745 L35.4937765,150.623 L21.7517834,150.623 L21.7517834,147.4745 Z" id="Fill-65" fill="#4BDCDC"></path>
                    <path d="M21.7517834,154.0505 L35.4937765,154.0505 L35.4937765,157.199 L21.7517834,157.199 L21.7517834,154.0505 Z" id="Fill-66" fill="#4BDCDC"></path>
                    <path d="M21.7517834,160.628 L35.4937765,160.628 L35.4937765,163.7765 L21.7517834,163.7765 L21.7517834,160.628 Z" id="Fill-67" fill="#4BDCDC"></path>
                    <path d="M21.7517834,167.2055 L35.4937765,167.2055 L35.4937765,170.3525 L21.7517834,170.3525 L21.7517834,167.2055 Z" id="Fill-68" fill="#4BDCDC"></path>
                </g>
            </g>
        </g>
    </g>
</svg>