<?xml version="1.0" encoding="UTF-8" standalone="no"?>
<svg width="458px" height="155px" viewBox="0 0 458 155" version="1.1" xmlns="http://www.w3.org/2000/svg" xmlns:xlink="http://www.w3.org/1999/xlink" xmlns:sketch="http://www.bohemiancoding.com/sketch/ns">
    <!-- Generator: Sketch 3.3.3 (12081) - http://www.bohemiancoding.com/sketch -->
    <title>CITYSCAPE</title>
    <desc>Created with Sketch.</desc>
    <defs></defs>
    <g id="Page-1" stroke="none" stroke-width="1" fill="none" fill-rule="evenodd" sketch:type="MSPage">
        <g id="HIGH-RES-DESKTOP" sketch:type="MSArtboardGroup" transform="translate(-993.000000, -1915.000000)">
            <g id="FOOTER" sketch:type="MSLayerGroup" transform="translate(-287.000000, 1533.000000)">
                <g id="CITYSCAPE" transform="translate(1279.000000, 382.500000)" sketch:type="MSShapeGroup">
                    <path d="M2.148,115.34 L35.386,115.34 L35.386,82.104 C35.386,100.46 20.504,115.34 2.148,115.34" id="Fill-1" fill="#A7AEB3"></path>
                    <path d="M34.75,81.26 L45.588,81.26 L45.588,143.572 L34.75,143.572 L34.75,81.26 Z" id="Fill-2" fill="#65727A"></path>
                    <path d="M1.75,114.926 L67.256,114.926 L67.256,123.316 L1.75,123.316 L1.75,114.926 Z" id="Fill-3" fill="#65727A"></path>
                    <path d="M78.976,65.678 L78.976,77.784 L63.372,77.784 L63.372,87.732 L55.832,87.732 L55.832,139.518 L115.042,139.518 L115.042,65.678 L78.976,65.678" id="Fill-4" fill="#4B91B4"></path>
                    <path d="M55.832,87.732 L110.042,87.732 L110.042,139.52 L55.832,139.52 L55.832,87.732 Z" id="Fill-5" fill="#4BB6CF"></path>
                    <path d="M58.976,94.928 L63.444,94.928 L63.444,102.372 L58.976,102.372 L58.976,94.928 Z" id="Fill-6" fill="#4B76A6"></path>
                    <path d="M67.704,94.928 L72.174,94.928 L72.174,102.372 L67.704,102.372 L67.704,94.928 Z" id="Fill-7" fill="#4B76A6"></path>
                    <path d="M76.432,94.928 L80.9,94.928 L80.9,102.372 L76.432,102.372 L76.432,94.928 Z" id="Fill-8" fill="#4B76A6"></path>
                    <path d="M85.16,94.928 L89.63,94.928 L89.63,102.372 L85.16,102.372 L85.16,94.928 Z" id="Fill-9" fill="#4B76A6"></path>
                    <path d="M58.976,106.962 L63.444,106.962 L63.444,114.406 L58.976,114.406 L58.976,106.962 Z" id="Fill-10" fill="#4B76A6"></path>
                    <path d="M67.704,106.962 L72.174,106.962 L72.174,114.406 L67.704,114.406 L67.704,106.962 Z" id="Fill-11" fill="#4B76A6"></path>
                    <path d="M76.432,106.962 L80.9,106.962 L80.9,114.406 L76.432,114.406 L76.432,106.962 Z" id="Fill-12" fill="#4B76A6"></path>
                    <path d="M85.16,106.962 L89.63,106.962 L89.63,114.406 L85.16,114.406 L85.16,106.962 Z" id="Fill-13" fill="#4B76A6"></path>
                    <path d="M58.976,118.998 L63.444,118.998 L63.444,126.442 L58.976,126.442 L58.976,118.998 Z" id="Fill-14" fill="#4B76A6"></path>
                    <path d="M67.704,118.998 L72.174,118.998 L72.174,126.442 L67.704,126.442 L67.704,118.998 Z" id="Fill-15" fill="#4B76A6"></path>
                    <path d="M76.432,118.998 L80.9,118.998 L80.9,126.442 L76.432,126.442 L76.432,118.998 Z" id="Fill-16" fill="#4B76A6"></path>
                    <path d="M85.16,118.998 L89.63,118.998 L89.63,126.442 L85.16,126.442 L85.16,118.998 Z" id="Fill-17" fill="#4B76A6"></path>
                    <path d="M93.07,40.528 L120.898,40.528 L120.898,141.636 L93.07,141.636 L93.07,40.528 Z" id="Fill-18" fill="#65727A"></path>
                    <path d="M90.242,40.562 L123.726,40.562 L123.726,46.48 L90.242,46.48 L90.242,40.562 Z" id="Fill-19" fill="#65727A"></path>
                    <path d="M93.07,50.47 L120.898,50.47 L120.898,54.106 L93.07,54.106 L93.07,50.47 Z" id="Fill-20" fill="#4F5E67"></path>
                    <path d="M93.07,59.242 L120.898,59.242 L120.898,62.874 L93.07,62.874 L93.07,59.242 Z" id="Fill-21" fill="#4F5E67"></path>
                    <path d="M93.07,68.01 L120.898,68.01 L120.898,71.646 L93.07,71.646 L93.07,68.01 Z" id="Fill-22" fill="#4F5E67"></path>
                    <path d="M93.07,76.782 L120.898,76.782 L120.898,80.414 L93.07,80.414 L93.07,76.782 Z" id="Fill-23" fill="#4F5E67"></path>
                    <path d="M93.07,85.55 L120.898,85.55 L120.898,89.186 L93.07,89.186 L93.07,85.55 Z" id="Fill-24" fill="#4F5E67"></path>
                    <path d="M93.07,94.322 L120.898,94.322 L120.898,97.956 L93.07,97.956 L93.07,94.322 Z" id="Fill-25" fill="#4F5E67"></path>
                    <path d="M93.07,103.092 L120.898,103.092 L120.898,106.728 L93.07,106.728 L93.07,103.092 Z" id="Fill-26" fill="#4F5E67"></path>
                    <path d="M93.07,111.862 L120.898,111.862 L120.898,115.494 L93.07,115.494 L93.07,111.862 Z" id="Fill-27" fill="#4F5E67"></path>
                    <path d="M93.07,120.63 L120.898,120.63 L120.898,124.266 L93.07,124.266 L93.07,120.63 Z" id="Fill-28" fill="#4F5E67"></path>
                    <path d="M119.37,81.26 L117.264,76.758 L125.816,68.598 L142.264,68.598 L150.644,76.758 L138.194,84.744 L119.37,81.26" id="Fill-29" fill="#B73C1B"></path>
                    <path d="M117.264,76.758 L150.642,76.758 L150.642,154.498 L117.264,154.498 L117.264,76.758 Z" id="Fill-30" fill="#DF611B"></path>
                    <path d="M123.726,82.104 L127.694,82.104 L127.694,89.482 L123.726,89.482 L123.726,82.104 Z" id="Fill-31" fill="#B73C1B"></path>
                    <path d="M129.988,82.104 L133.954,82.104 L133.954,89.482 L129.988,89.482 L129.988,82.104 Z" id="Fill-32" fill="#B73C1B"></path>
                    <path d="M136.248,82.104 L140.216,82.104 L140.216,89.482 L136.248,89.482 L136.248,82.104 Z" id="Fill-33" fill="#B73C1B"></path>
                    <path d="M123.726,94.104 L127.694,94.104 L127.694,101.48 L123.726,101.48 L123.726,94.104 Z" id="Fill-34" fill="#B73C1B"></path>
                    <path d="M129.988,94.104 L133.954,94.104 L133.954,101.48 L129.988,101.48 L129.988,94.104 Z" id="Fill-35" fill="#B73C1B"></path>
                    <path d="M136.248,94.104 L140.216,94.104 L140.216,101.48 L136.248,101.48 L136.248,94.104 Z" id="Fill-36" fill="#B73C1B"></path>
                    <path d="M123.726,106.102 L127.694,106.102 L127.694,113.478 L123.726,113.478 L123.726,106.102 Z" id="Fill-37" fill="#B73C1B"></path>
                    <path d="M129.988,106.102 L133.954,106.102 L133.954,113.478 L129.988,113.478 L129.988,106.102 Z" id="Fill-38" fill="#B73C1B"></path>
                    <path d="M136.248,106.102 L140.216,106.102 L140.216,113.478 L136.248,113.478 L136.248,106.102 Z" id="Fill-39" fill="#B73C1B"></path>
                    <path d="M123.726,118.106 L127.694,118.106 L127.694,125.482 L123.726,125.482 L123.726,118.106 Z" id="Fill-40" fill="#B73C1B"></path>
                    <path d="M129.988,118.106 L133.954,118.106 L133.954,125.482 L129.988,125.482 L129.988,118.106 Z" id="Fill-41" fill="#B73C1B"></path>
                    <path d="M136.248,118.106 L140.216,118.106 L140.216,125.482 L136.248,125.482 L136.248,118.106 Z" id="Fill-42" fill="#B73C1B"></path>
                    <path d="M145.966,34.384 L192.972,34.384 L192.972,147.778 L145.966,147.778 L145.966,34.384 Z" id="Fill-43" fill="#DBB13F"></path>
                    <path d="M411.966,0.284 L458.972,0.284 L458.972,113.678 L411.966,113.678 L411.966,0.284 Z" id="Fill-43-Copy" fill="#DBB13F"></path>
                    <path d="M1.75,137.588 L78.976,137.588 L78.976,148.126 L1.75,148.126 L1.75,137.588 Z" id="Fill-44" fill="#65727A"></path>
                    <path d="M113.488,30.656 C113.488,34.25 110.574,37.16 106.984,37.16 C103.392,37.16 100.48,34.25 100.48,30.656 C100.48,27.068 103.392,24.154 106.984,24.154 C110.574,24.154 113.488,27.068 113.488,30.656" id="Fill-45" fill="#65727A"></path>
                </g>
            </g>
        </g>
    </g>
</svg>