<?xml version="1.0" encoding="UTF-8" standalone="no"?>
<svg width="458px" height="303px" viewBox="0 0 458 303" version="1.1" xmlns="http://www.w3.org/2000/svg" xmlns:xlink="http://www.w3.org/1999/xlink" xmlns:sketch="http://www.bohemiancoding.com/sketch/ns">
    <!-- Generator: Sketch 3.3.3 (12081) - http://www.bohemiancoding.com/sketch -->
    <title>NY STATUE + CITYSCAPE + NY CITY</title>
    <desc>Created with Sketch.</desc>
    <defs></defs>
    <g id="Page-1" stroke="none" stroke-width="1" fill="none" fill-rule="evenodd" sketch:type="MSPage">
        <g id="HIGH-RES-DESKTOP" sketch:type="MSArtboardGroup" transform="translate(-993.000000, -1767.000000)">
            <g id="FOOTER" sketch:type="MSLayerGroup" transform="translate(-287.000000, 1533.000000)">
                <g id="NY-STATUE-+-CITYSCAPE-+-NY-CITY" transform="translate(1279.000000, 232.000000)" sketch:type="MSShapeGroup">
                    <g id="NY-STATUE" transform="translate(164.000000, 56.500000)">
                        <path d="M83.6722632,125.758343 L124.631421,125.758343 L124.631421,217.856836 L83.6722632,217.856836 L83.6722632,125.758343 Z" id="Fill-1" fill="#1F3857"></path>
                        <path d="M28.4351579,103.068448 L71.7584737,103.068448 L71.7584737,217.858463 L28.4351579,217.858463 L28.4351579,103.068448 Z" id="Fill-2" fill="#1F3857"></path>
                        <path d="M33.5028421,108.62094 L67.3058947,108.62094 L67.3058947,112.803612 L33.5028421,112.803612 L33.5028421,108.62094 Z" id="Fill-3" fill="#305079"></path>
                        <path d="M33.5028421,116.000403 L67.3058947,116.000403 L67.3058947,120.184701 L33.5028421,120.184701 L33.5028421,116.000403 Z" id="Fill-4" fill="#305079"></path>
                        <path d="M33.5028421,123.381493 L67.3058947,123.381493 L67.3058947,127.565791 L33.5028421,127.565791 L33.5028421,123.381493 Z" id="Fill-5" fill="#305079"></path>
                        <path d="M33.5028421,130.762582 L67.3058947,130.762582 L67.3058947,134.946881 L33.5028421,134.946881 L33.5028421,130.762582 Z" id="Fill-6" fill="#305079"></path>
                        <path d="M33.5028421,138.143672 L67.3058947,138.143672 L67.3058947,142.32797 L33.5028421,142.32797 L33.5028421,138.143672 Z" id="Fill-7" fill="#305079"></path>
                        <path d="M33.5028421,145.524761 L67.3058947,145.524761 L67.3058947,149.70906 L33.5028421,149.70906 L33.5028421,145.524761 Z" id="Fill-8" fill="#305079"></path>
                        <path d="M33.5028421,152.905851 L67.3058947,152.905851 L67.3058947,157.090149 L33.5028421,157.090149 L33.5028421,152.905851 Z" id="Fill-9" fill="#305079"></path>
                        <path d="M33.5028421,160.28694 L67.3058947,160.28694 L67.3058947,164.471239 L33.5028421,164.471239 L33.5028421,160.28694 Z" id="Fill-10" fill="#305079"></path>
                        <path d="M33.5028421,167.669657 L67.3058947,167.669657 L67.3058947,171.853955 L33.5028421,171.853955 L33.5028421,167.669657 Z" id="Fill-11" fill="#305079"></path>
                        <path d="M33.5028421,175.050746 L67.3058947,175.050746 L67.3058947,179.235045 L33.5028421,179.235045 L33.5028421,175.050746 Z" id="Fill-12" fill="#305079"></path>
                        <path d="M33.5028421,182.431836 L67.3058947,182.431836 L67.3058947,186.616134 L33.5028421,186.616134 L33.5028421,182.431836 Z" id="Fill-13" fill="#305079"></path>
                        <path d="M33.5028421,189.812925 L67.3058947,189.812925 L67.3058947,193.997224 L33.5028421,193.997224 L33.5028421,189.812925 Z" id="Fill-14" fill="#305079"></path>
                        <path d="M33.5028421,197.194015 L67.3058947,197.194015 L67.3058947,201.378313 L33.5028421,201.378313 L33.5028421,197.194015 Z" id="Fill-15" fill="#305079"></path>
                        <path d="M33.5028421,204.575104 L67.3058947,204.575104 L67.3058947,208.759403 L33.5028421,208.759403 L33.5028421,204.575104 Z" id="Fill-16" fill="#305079"></path>
                        <path d="M33.5028421,211.956194 L67.3058947,211.956194 L67.3058947,216.140493 L33.5028421,216.140493 L33.5028421,211.956194 Z" id="Fill-17" fill="#305079"></path>
                        <path d="M53.6153158,202.321896 L102.071579,202.321896 L102.071579,195.456522 L77.8426316,193.333463 L53.6153158,195.456522 L53.6153158,202.321896" id="Fill-18" fill="#C29C3F"></path>
                        <path d="M55.3186842,24.2565672 L50.7127368,24.2565672 L50.7127368,47.7501343 L58.7629474,47.7501343 L58.7629474,27.6941343 L55.3186842,24.2565672" id="Fill-19" fill="#1EAFAF"></path>
                        <path d="M58.7629474,47.7501343 L55.3186842,43.7138806 L50.7127368,47.7501343 L50.7127368,57.1713134 L58.7629474,57.1713134 L58.7629474,47.7501343" id="Fill-20" fill="#4B608C"></path>
                        <path d="M59.6423684,76.1161642 L52.9855263,70.1423134 L52.9855263,55.2499851 L60.3994211,55.2499851 L59.6423684,76.1161642" id="Fill-21" fill="#513554"></path>
                        <path d="M59.4416842,58.3198806 L68.6894737,57.249403 L64.0508947,52.622597 L58.9783158,55.2825224 L59.4416842,58.3198806" id="Fill-22" fill="#513554"></path>
                        <path d="M50.7127368,17.6124478 L55.3186842,17.6124478 L55.3186842,30.9006866 L50.7127368,30.9006866 L50.7127368,17.6124478 Z" id="Fill-23" fill="#513554"></path>
                        <path d="M58.7629474,21.1346119 L47.2064737,21.1346119 L47.2064737,15.2795224 L52.9561579,15.2795224 L58.7629474,21.1346119" id="Fill-24" fill="#1EAFAF"></path>
                        <path d="M53.0116316,15.2795224 L58.7613158,15.2795224 L58.7613158,21.1362388 L53.0116316,21.1362388 L53.0116316,15.2795224 Z" id="Fill-25" fill="#4B608C"></path>
                        <path d="M47.2064737,23.252791 L52.9855263,23.252791 L52.9855263,29.0135224 L47.2064737,29.0135224 L47.2064737,23.252791 Z" id="Fill-26" fill="#1EAFAF"></path>
                        <path d="M73.3378421,57.3226119 L62.3246842,64.1961194 L59.4775789,71.1444627 L59.4775789,105.839 L73.3378421,105.839 L73.3378421,57.3226119" id="Fill-27" fill="#1EAFAF"></path>
                        <path d="M84.0932105,50.8574478 L78.957,65.6830746 L96.9157895,63.6397313 L84.0932105,50.8574478" id="Fill-28" fill="#513554"></path>
                        <path d="M103.494316,75.4247463 L75.2761579,79.8547015 L87.2291053,108.18006 L108.469,86.9998955 L103.494316,75.4247463" id="Fill-29" fill="#513554"></path>
                        <path d="M90.0044211,139.292239 L62.3246842,139.305254 L64.3706842,134.707731 L62.3246842,132.900284 L62.3246842,61.5410746 L93.2871579,61.5410746 L90.0044211,113.407179 L90.0044211,139.292239" id="Fill-30" fill="#1EAFAF"></path>
                        <path d="M83.3638947,68.2161045 L96.4377368,68.2161045 L96.4377368,80.0482985 L83.3638947,80.0482985 L83.3638947,68.2161045 Z" id="Fill-31" fill="#1EAFAF"></path>
                        <path d="M62.3246842,33.5183134 L71.3946316,42.5571791 L80.4596842,33.5183134 L62.3246842,33.5183134" id="Fill-32" fill="#1EAFAF"></path>
                        <path d="M75.2761579,33.5183134 L84.3412105,42.5571791 L93.4078947,33.5183134 L75.2761579,33.5183134" id="Fill-33" fill="#4B608C"></path>
                        <path d="M90.0044211,85.4966716 L93.2855263,85.4966716 L93.2855263,113.407179 L90.0044211,115.177209 L90.0044211,85.4966716" id="Fill-34" fill="#4B608C"></path>
                        <path d="M80.4596842,113.407179 L83.7407895,113.407179 L83.7407895,140.317164 L80.4596842,140.317164 L80.4596842,113.407179 Z" id="Fill-35" fill="#4B608C"></path>
                        <path d="M86.8701579,113.407179 L93.2855263,113.407179 L93.2855263,139.292239 L86.8701579,142.085567 L86.8701579,113.407179" id="Fill-36" fill="#4B608C"></path>
                        <path d="M71.3946316,37.5480597 L84.2155789,37.5480597 L84.2155789,24.7625224 L71.3946316,37.5480597" id="Fill-37" fill="#4B608C"></path>
                        <path d="M71.2706316,37.5480597 L84.3428421,37.5480597 L84.3428421,58.9852687 L71.2706316,58.9852687 L71.2706316,37.5480597 Z" id="Fill-38" fill="#513554"></path>
                        <path d="M73.3378421,39.7313134 L73.3378421,47.6297463 C73.3378421,50.079806 75.3365263,52.066209 77.7904211,52.066209 L77.8051053,52.066209 L77.8214211,52.066209 C80.2785789,52.066209 82.2723684,50.079806 82.2723684,47.6297463 L82.2723684,39.7313134 L73.3378421,39.7313134" id="Fill-39" fill="#1EAFAF"></path>
                        <path d="M73.3378421,39.7215522 L82.2723684,39.7215522 L82.2723684,42.5571791 L73.3378421,42.5571791 L73.3378421,39.7215522 Z" id="Fill-40" fill="#FFFFFF"></path>
                        <path d="M71.2706316,24.7625224 L71.2706316,37.5480597 L84.0932105,37.5480597 L71.2706316,24.7625224" id="Fill-41" fill="#1EAFAF"></path>
                        <path d="M47.3533158,12.0615821 L58.7629474,12.0615821 L58.7629474,0.684910448 L47.3533158,12.0615821" id="Fill-42" fill="#FF6E00"></path>
                        <path d="M72.2985263,76.1161642 L59.4775789,76.1161642 L59.4775789,88.9049552 L72.2985263,76.1161642" id="Fill-43" fill="#4B608C"></path>
                        <path d="M72.2985263,105.839 L59.4775789,105.839 L59.4775789,118.62291 L72.2985263,105.839" id="Fill-44" fill="#4B608C"></path>
                        <path d="M99.6927368,80.6697612 L86.8701579,80.6697612 L86.8701579,93.4552985 L99.6927368,80.6697612" id="Fill-45" fill="#4B608C"></path>
                        <path d="M93.2822632,113.407179 L80.4596842,113.407179 L80.4596842,126.19109 L93.2822632,113.407179" id="Fill-46" fill="#4B608C"></path>
                        <path d="M83.7407895,126.508328 L70.9198421,126.508328 L70.9198421,139.292239 L83.7407895,126.508328" id="Fill-47" fill="#4B608C"></path>
                        <path d="M68.7498421,86.2043582 L62.3246842,86.2043582 L62.3246842,92.6125821 L68.7498421,86.2043582" id="Fill-48" fill="#4B608C"></path>
                        <path d="M80.4482632,87.3512985 L87.8605263,87.3512985 L86.8701579,80.9479552 L80.4482632,87.3512985" id="Fill-49" fill="#4B608C"></path>
                        <path d="M68.7498421,132.900284 L62.3246842,132.900284 L62.3246842,139.305254 L68.7498421,132.900284" id="Fill-50" fill="#4B608C"></path>
                        <path d="M93.2855263,62.9027612 L62.3246842,62.9027612 L73.3378421,57.249403 L93.2855263,57.249403 L93.2855263,62.9027612" id="Fill-51" fill="#1EAFAF"></path>
                        <path d="M101.897,65.836 C101.897,61.0936866 98.0415789,57.249403 93.2855263,57.249403 C88.5294737,57.249403 84.6724211,61.0936866 84.6724211,65.836 C84.6724211,70.5783134 88.5294737,74.422597 93.2855263,74.422597 C98.0415789,74.422597 101.897,70.5783134 101.897,65.836" id="Fill-52" fill="#1EAFAF"></path>
                        <path d="M101.898632,65.836 C101.898632,61.0936866 98.0415789,57.249403 93.2871579,57.249403 L93.2871579,65.836 L101.898632,65.836" id="Fill-53" fill="#4B608C"></path>
                        <path d="M98.0905263,91.7373284 L95.17,88.8268657 L110.213158,73.828791 L113.133684,76.7376269 L98.0905263,91.7373284" id="Fill-54" fill="#513554"></path>
                        <path d="M95.3103158,88.9635224 L87.0561579,80.733209 L102.097684,65.7351343 L110.351842,73.9638209 L95.3103158,88.9635224" id="Fill-55" fill="#3BF3CE"></path>
                        <path d="M109.576842,84.4912687 C109.576842,86.6728955 107.801684,88.4412985 105.612105,88.4412985 C103.424158,88.4412985 101.649,86.6728955 101.649,84.4912687 C101.649,82.3063881 103.424158,80.5363582 105.612105,80.5363582 C107.801684,80.5363582 109.576842,82.3063881 109.576842,84.4912687" id="Fill-56" fill="#1EAFAF"></path>
                        <path d="M62.3246842,139.292239 L93.2871579,139.292239 L93.2871579,145.967269 L62.3246842,145.967269 L62.3246842,139.292239 Z" id="Fill-57" fill="#4B608C"></path>
                        <path d="M59.1757368,142.632194 L96.4361053,142.632194 L96.4361053,149.305597 L59.1757368,149.305597 L59.1757368,142.632194 Z" id="Fill-58" fill="#1EAFAF"></path>
                        <path d="M59.4775789,57.249403 L59.4775789,71.1444627 L73.4112632,57.249403 L59.4775789,57.249403" id="Fill-59" fill="#4B608C"></path>
                        <path d="M64.0508947,52.622597 L52.9349474,63.704806 L47.7644737,58.5508955 L58.8804211,47.4686866 L64.0508947,52.622597" id="Fill-60" fill="#1EAFAF"></path>
                        <path d="M58.9,159.397045 L96.7901579,159.397045 L96.7901579,193.030866 L58.9,193.030866 L58.9,159.397045 Z" id="Fill-61" fill="#C29C3F"></path>
                        <path d="M96.7885263,150.507851 L77.8426316,151.905328 L58.9,150.507851 L58.9,147.740552 L96.7885263,147.740552 L96.7885263,150.507851" id="Fill-62" fill="#FFFFFF"></path>
                        <path d="M58.9,150.507851 L96.7901579,150.507851 L96.7901579,154.649851 L58.9,154.649851 L58.9,150.507851 Z" id="Fill-63" fill="#C29C3F"></path>
                        <path d="M53.6153158,154.649851 L102.071579,154.649851 L102.071579,159.397045 L53.6153158,159.397045 L53.6153158,154.649851 Z" id="Fill-64" fill="#E4CC98"></path>
                        <path d="M58.9,159.397045 L96.7901579,159.397045 L96.7901579,161.562403 L58.9,161.562403 L58.9,159.397045 Z" id="Fill-65" fill="#6B5032"></path>
                        <path d="M58.9,183.595045 L96.7901579,183.595045 L96.7901579,185.757149 L58.9,185.757149 L58.9,183.595045 Z" id="Fill-66" fill="#E4CC98"></path>
                        <path d="M58.9,185.758776 L96.7901579,185.758776 L96.7901579,187.922507 L58.9,187.922507 L58.9,185.758776 Z" id="Fill-67" fill="#6B5032"></path>
                        <path d="M64.0345789,165.406687 L69.9327368,165.406687 L69.9327368,180.90909 L64.0345789,180.90909 L64.0345789,165.406687 Z" id="Fill-68" fill="#6B5032"></path>
                        <path d="M74.896,165.406687 L80.7908947,165.406687 L80.7908947,180.90909 L74.896,180.90909 L74.896,165.406687 Z" id="Fill-69" fill="#6B5032"></path>
                        <path d="M85.7541579,165.406687 L91.6523158,165.406687 L91.6523158,180.90909 L85.7541579,180.90909 L85.7541579,165.406687 Z" id="Fill-70" fill="#6B5032"></path>
                        <path d="M96.7885263,191.213657 L102.071579,195.456522 L53.6153158,195.456522 L58.9,191.213657 L96.7885263,191.213657" id="Fill-71" fill="#E4CC98"></path>
                        <path d="M45.1278421,200.667373 L110.559053,200.667373 L110.559053,214.188254 L45.1278421,214.188254 L45.1278421,200.667373 Z" id="Fill-72" fill="#E4CC98"></path>
                        <path d="M1.40478947,213.579806 L154.282105,213.579806 L154.282105,217.856836 L1.40478947,217.856836 L1.40478947,213.579806 Z" id="Fill-73" fill="#C29C3F"></path>
                        <path d="M8.94757895,200.667373 L45.1278421,200.667373 L45.1278421,214.188254 L8.94757895,214.188254 L8.94757895,200.667373 Z" id="Fill-74" fill="#C29C3F"></path>
                    </g>
                    <g id="CITYSCAPE" transform="translate(0.000000, 150.500000)">
                        <path d="M2.148,115.34 L35.386,115.34 L35.386,82.104 C35.386,100.46 20.504,115.34 2.148,115.34" id="Fill-1" fill="#A7AEB3"></path>
                        <path d="M34.75,81.26 L45.588,81.26 L45.588,143.572 L34.75,143.572 L34.75,81.26 Z" id="Fill-2" fill="#65727A"></path>
                        <path d="M1.75,114.926 L67.256,114.926 L67.256,123.316 L1.75,123.316 L1.75,114.926 Z" id="Fill-3" fill="#65727A"></path>
                        <path d="M78.976,65.678 L78.976,77.784 L63.372,77.784 L63.372,87.732 L55.832,87.732 L55.832,139.518 L115.042,139.518 L115.042,65.678 L78.976,65.678" id="Fill-4" fill="#4B91B4"></path>
                        <path d="M55.832,87.732 L110.042,87.732 L110.042,139.52 L55.832,139.52 L55.832,87.732 Z" id="Fill-5" fill="#4BB6CF"></path>
                        <path d="M58.976,94.928 L63.444,94.928 L63.444,102.372 L58.976,102.372 L58.976,94.928 Z" id="Fill-6" fill="#4B76A6"></path>
                        <path d="M67.704,94.928 L72.174,94.928 L72.174,102.372 L67.704,102.372 L67.704,94.928 Z" id="Fill-7" fill="#4B76A6"></path>
                        <path d="M76.432,94.928 L80.9,94.928 L80.9,102.372 L76.432,102.372 L76.432,94.928 Z" id="Fill-8" fill="#4B76A6"></path>
                        <path d="M85.16,94.928 L89.63,94.928 L89.63,102.372 L85.16,102.372 L85.16,94.928 Z" id="Fill-9" fill="#4B76A6"></path>
                        <path d="M58.976,106.962 L63.444,106.962 L63.444,114.406 L58.976,114.406 L58.976,106.962 Z" id="Fill-10" fill="#4B76A6"></path>
                        <path d="M67.704,106.962 L72.174,106.962 L72.174,114.406 L67.704,114.406 L67.704,106.962 Z" id="Fill-11" fill="#4B76A6"></path>
                        <path d="M76.432,106.962 L80.9,106.962 L80.9,114.406 L76.432,114.406 L76.432,106.962 Z" id="Fill-12" fill="#4B76A6"></path>
                        <path d="M85.16,106.962 L89.63,106.962 L89.63,114.406 L85.16,114.406 L85.16,106.962 Z" id="Fill-13" fill="#4B76A6"></path>
                        <path d="M58.976,118.998 L63.444,118.998 L63.444,126.442 L58.976,126.442 L58.976,118.998 Z" id="Fill-14" fill="#4B76A6"></path>
                        <path d="M67.704,118.998 L72.174,118.998 L72.174,126.442 L67.704,126.442 L67.704,118.998 Z" id="Fill-15" fill="#4B76A6"></path>
                        <path d="M76.432,118.998 L80.9,118.998 L80.9,126.442 L76.432,126.442 L76.432,118.998 Z" id="Fill-16" fill="#4B76A6"></path>
                        <path d="M85.16,118.998 L89.63,118.998 L89.63,126.442 L85.16,126.442 L85.16,118.998 Z" id="Fill-17" fill="#4B76A6"></path>
                        <path d="M93.07,40.528 L120.898,40.528 L120.898,141.636 L93.07,141.636 L93.07,40.528 Z" id="Fill-18" fill="#65727A"></path>
                        <path d="M90.242,40.562 L123.726,40.562 L123.726,46.48 L90.242,46.48 L90.242,40.562 Z" id="Fill-19" fill="#65727A"></path>
                        <path d="M93.07,50.47 L120.898,50.47 L120.898,54.106 L93.07,54.106 L93.07,50.47 Z" id="Fill-20" fill="#4F5E67"></path>
                        <path d="M93.07,59.242 L120.898,59.242 L120.898,62.874 L93.07,62.874 L93.07,59.242 Z" id="Fill-21" fill="#4F5E67"></path>
                        <path d="M93.07,68.01 L120.898,68.01 L120.898,71.646 L93.07,71.646 L93.07,68.01 Z" id="Fill-22" fill="#4F5E67"></path>
                        <path d="M93.07,76.782 L120.898,76.782 L120.898,80.414 L93.07,80.414 L93.07,76.782 Z" id="Fill-23" fill="#4F5E67"></path>
                        <path d="M93.07,85.55 L120.898,85.55 L120.898,89.186 L93.07,89.186 L93.07,85.55 Z" id="Fill-24" fill="#4F5E67"></path>
                        <path d="M93.07,94.322 L120.898,94.322 L120.898,97.956 L93.07,97.956 L93.07,94.322 Z" id="Fill-25" fill="#4F5E67"></path>
                        <path d="M93.07,103.092 L120.898,103.092 L120.898,106.728 L93.07,106.728 L93.07,103.092 Z" id="Fill-26" fill="#4F5E67"></path>
                        <path d="M93.07,111.862 L120.898,111.862 L120.898,115.494 L93.07,115.494 L93.07,111.862 Z" id="Fill-27" fill="#4F5E67"></path>
                        <path d="M93.07,120.63 L120.898,120.63 L120.898,124.266 L93.07,124.266 L93.07,120.63 Z" id="Fill-28" fill="#4F5E67"></path>
                        <path d="M119.37,81.26 L117.264,76.758 L125.816,68.598 L142.264,68.598 L150.644,76.758 L138.194,84.744 L119.37,81.26" id="Fill-29" fill="#B73C1B"></path>
                        <path d="M117.264,76.758 L150.642,76.758 L150.642,154.498 L117.264,154.498 L117.264,76.758 Z" id="Fill-30" fill="#DF611B"></path>
                        <path d="M123.726,82.104 L127.694,82.104 L127.694,89.482 L123.726,89.482 L123.726,82.104 Z" id="Fill-31" fill="#B73C1B"></path>
                        <path d="M129.988,82.104 L133.954,82.104 L133.954,89.482 L129.988,89.482 L129.988,82.104 Z" id="Fill-32" fill="#B73C1B"></path>
                        <path d="M136.248,82.104 L140.216,82.104 L140.216,89.482 L136.248,89.482 L136.248,82.104 Z" id="Fill-33" fill="#B73C1B"></path>
                        <path d="M123.726,94.104 L127.694,94.104 L127.694,101.48 L123.726,101.48 L123.726,94.104 Z" id="Fill-34" fill="#B73C1B"></path>
                        <path d="M129.988,94.104 L133.954,94.104 L133.954,101.48 L129.988,101.48 L129.988,94.104 Z" id="Fill-35" fill="#B73C1B"></path>
                        <path d="M136.248,94.104 L140.216,94.104 L140.216,101.48 L136.248,101.48 L136.248,94.104 Z" id="Fill-36" fill="#B73C1B"></path>
                        <path d="M123.726,106.102 L127.694,106.102 L127.694,113.478 L123.726,113.478 L123.726,106.102 Z" id="Fill-37" fill="#B73C1B"></path>
                        <path d="M129.988,106.102 L133.954,106.102 L133.954,113.478 L129.988,113.478 L129.988,106.102 Z" id="Fill-38" fill="#B73C1B"></path>
                        <path d="M136.248,106.102 L140.216,106.102 L140.216,113.478 L136.248,113.478 L136.248,106.102 Z" id="Fill-39" fill="#B73C1B"></path>
                        <path d="M123.726,118.106 L127.694,118.106 L127.694,125.482 L123.726,125.482 L123.726,118.106 Z" id="Fill-40" fill="#B73C1B"></path>
                        <path d="M129.988,118.106 L133.954,118.106 L133.954,125.482 L129.988,125.482 L129.988,118.106 Z" id="Fill-41" fill="#B73C1B"></path>
                        <path d="M136.248,118.106 L140.216,118.106 L140.216,125.482 L136.248,125.482 L136.248,118.106 Z" id="Fill-42" fill="#B73C1B"></path>
                        <path d="M145.966,34.384 L192.972,34.384 L192.972,147.778 L145.966,147.778 L145.966,34.384 Z" id="Fill-43" fill="#DBB13F"></path>
                        <path d="M411.966,0.284 L458.972,0.284 L458.972,113.678 L411.966,113.678 L411.966,0.284 Z" id="Fill-43-Copy" fill="#DBB13F"></path>
                        <path d="M1.75,137.588 L78.976,137.588 L78.976,148.126 L1.75,148.126 L1.75,137.588 Z" id="Fill-44" fill="#65727A"></path>
                        <path d="M113.488,30.656 C113.488,34.25 110.574,37.16 106.984,37.16 C103.392,37.16 100.48,34.25 100.48,30.656 C100.48,27.068 103.392,24.154 106.984,24.154 C110.574,24.154 113.488,27.068 113.488,30.656" id="Fill-45" fill="#65727A"></path>
                    </g>
                    <g id="NY-CITY" transform="translate(286.000000, 0.500000)">
                        <path d="M112.884,142.996 L128.076,142.996 L128.076,243.408 L112.884,243.408 L112.884,142.996 Z" id="Fill-1" fill="#6B82A2"></path>
                        <path d="M102.346,1.562 L106.032,1.562 L106.032,45.536 L102.346,45.536 L102.346,1.562 Z" id="Fill-2" fill="#E4CC98"></path>
                        <path d="M95.492,51.038 L112.884,51.038 L112.884,132.822 L95.492,132.822 L95.492,51.038 Z" id="Fill-3" fill="#EEDEBD"></path>
                        <path d="M112.884,51.038 L95.492,51.038 L102.346,23.548 L106.032,23.548 L112.884,51.038" id="Fill-4" fill="#D2AA53"></path>
                        <path d="M92.212,64.44 L116.168,64.44 L116.168,177.082 L92.212,177.082 L92.212,64.44 Z" id="Fill-5" fill="#D2AA53"></path>
                        <path d="M88.478,93.05 L119.9,93.05 L119.9,246.222 L88.478,246.222 L88.478,93.05 Z" id="Fill-6" fill="#E4CC98"></path>
                        <path d="M92.212,97.37 L97.276,97.37 L97.276,103.602 L92.212,103.602 L92.212,97.37 Z" id="Fill-7" fill="#BA9953"></path>
                        <path d="M101.22,97.37 L106.282,97.37 L106.282,103.602 L101.22,103.602 L101.22,97.37 Z" id="Fill-8" fill="#BA9953"></path>
                        <path d="M110.226,97.37 L115.29,97.37 L115.29,103.602 L110.226,103.602 L110.226,97.37 Z" id="Fill-9" fill="#BA9953"></path>
                        <path d="M92.212,108.568 L97.276,108.568 L97.276,114.804 L92.212,114.804 L92.212,108.568 Z" id="Fill-10" fill="#BA9953"></path>
                        <path d="M101.22,108.568 L106.282,108.568 L106.282,114.804 L101.22,114.804 L101.22,108.568 Z" id="Fill-11" fill="#BA9953"></path>
                        <path d="M110.226,108.568 L115.29,108.568 L115.29,114.804 L110.226,114.804 L110.226,108.568 Z" id="Fill-12" fill="#BA9953"></path>
                        <path d="M92.212,119.766 L97.276,119.766 L97.276,126.002 L92.212,126.002 L92.212,119.766 Z" id="Fill-13" fill="#BA9953"></path>
                        <path d="M101.22,119.766 L106.282,119.766 L106.282,126.002 L101.22,126.002 L101.22,119.766 Z" id="Fill-14" fill="#BA9953"></path>
                        <path d="M110.226,119.766 L115.29,119.766 L115.29,126.002 L110.226,126.002 L110.226,119.766 Z" id="Fill-15" fill="#BA9953"></path>
                        <path d="M92.212,130.968 L97.276,130.968 L97.276,137.204 L92.212,137.204 L92.212,130.968 Z" id="Fill-16" fill="#BA9953"></path>
                        <path d="M101.22,130.968 L106.282,130.968 L106.282,137.204 L101.22,137.204 L101.22,130.968 Z" id="Fill-17" fill="#BA9953"></path>
                        <path d="M110.226,130.968 L115.29,130.968 L115.29,137.204 L110.226,137.204 L110.226,130.968 Z" id="Fill-18" fill="#BA9953"></path>
                        <path d="M92.212,142.168 L97.276,142.168 L97.276,148.4 L92.212,148.4 L92.212,142.168 Z" id="Fill-19" fill="#BA9953"></path>
                        <path d="M101.22,142.168 L106.282,142.168 L106.282,148.4 L101.22,148.4 L101.22,142.168 Z" id="Fill-20" fill="#BA9953"></path>
                        <path d="M110.226,142.168 L115.29,142.168 L115.29,148.4 L110.226,148.4 L110.226,142.168 Z" id="Fill-21" fill="#BA9953"></path>
                        <path d="M92.212,153.366 L97.276,153.366 L97.276,159.602 L92.212,159.602 L92.212,153.366 Z" id="Fill-22" fill="#BA9953"></path>
                        <path d="M101.22,153.366 L106.282,153.366 L106.282,159.602 L101.22,159.602 L101.22,153.366 Z" id="Fill-23" fill="#BA9953"></path>
                        <path d="M110.226,153.366 L115.29,153.366 L115.29,159.602 L110.226,159.602 L110.226,153.366 Z" id="Fill-24" fill="#BA9953"></path>
                        <path d="M92.212,164.566 L97.276,164.566 L97.276,170.802 L92.212,170.802 L92.212,164.566 Z" id="Fill-25" fill="#BA9953"></path>
                        <path d="M101.22,164.566 L106.282,164.566 L106.282,170.802 L101.22,170.802 L101.22,164.566 Z" id="Fill-26" fill="#BA9953"></path>
                        <path d="M110.226,164.566 L115.29,164.566 L115.29,170.802 L110.226,170.802 L110.226,164.566 Z" id="Fill-27" fill="#BA9953"></path>
                        <path d="M92.212,175.766 L97.276,175.766 L97.276,182.002 L92.212,182.002 L92.212,175.766 Z" id="Fill-28" fill="#BA9953"></path>
                        <path d="M101.22,175.766 L106.282,175.766 L106.282,182.002 L101.22,182.002 L101.22,175.766 Z" id="Fill-29" fill="#BA9953"></path>
                        <path d="M110.226,175.766 L115.29,175.766 L115.29,182.002 L110.226,182.002 L110.226,175.766 Z" id="Fill-30" fill="#BA9953"></path>
                        <path d="M92.212,186.968 L97.276,186.968 L97.276,193.2 L92.212,193.2 L92.212,186.968 Z" id="Fill-31" fill="#BA9953"></path>
                        <path d="M101.22,186.968 L106.282,186.968 L106.282,193.2 L101.22,193.2 L101.22,186.968 Z" id="Fill-32" fill="#BA9953"></path>
                        <path d="M110.226,186.968 L115.29,186.968 L115.29,193.2 L110.226,193.2 L110.226,186.968 Z" id="Fill-33" fill="#BA9953"></path>
                        <path d="M92.212,198.162 L97.276,198.162 L97.276,204.398 L92.212,204.398 L92.212,198.162 Z" id="Fill-34" fill="#BA9953"></path>
                        <path d="M101.22,198.162 L106.282,198.162 L106.282,204.398 L101.22,204.398 L101.22,198.162 Z" id="Fill-35" fill="#BA9953"></path>
                        <path d="M110.226,198.162 L115.29,198.162 L115.29,204.398 L110.226,204.398 L110.226,198.162 Z" id="Fill-36" fill="#BA9953"></path>
                        <path d="M92.212,209.364 L97.276,209.364 L97.276,215.6 L92.212,215.6 L92.212,209.364 Z" id="Fill-37" fill="#BA9953"></path>
                        <path d="M101.22,209.364 L106.282,209.364 L106.282,215.6 L101.22,215.6 L101.22,209.364 Z" id="Fill-38" fill="#BA9953"></path>
                        <path d="M110.226,209.364 L115.29,209.364 L115.29,215.6 L110.226,215.6 L110.226,209.364 Z" id="Fill-39" fill="#BA9953"></path>
                        <path d="M92.212,220.566 L97.276,220.566 L97.276,226.802 L92.212,226.802 L92.212,220.566 Z" id="Fill-40" fill="#BA9953"></path>
                        <path d="M101.22,220.566 L106.282,220.566 L106.282,226.802 L101.22,226.802 L101.22,220.566 Z" id="Fill-41" fill="#BA9953"></path>
                        <path d="M110.226,220.566 L115.29,220.566 L115.29,226.802 L110.226,226.802 L110.226,220.566 Z" id="Fill-42" fill="#BA9953"></path>
                        <path d="M92.212,231.766 L97.276,231.766 L97.276,237.996 L92.212,237.996 L92.212,231.766 Z" id="Fill-43" fill="#BA9953"></path>
                        <path d="M101.22,231.766 L106.282,231.766 L106.282,237.996 L101.22,237.996 L101.22,231.766 Z" id="Fill-44" fill="#BA9953"></path>
                        <path d="M110.226,231.766 L115.29,231.766 L115.29,237.996 L110.226,237.996 L110.226,231.766 Z" id="Fill-45" fill="#BA9953"></path>
                        <path d="M1.64,131.644 L48.646,131.644 L48.646,245.038 L1.64,245.038 L1.64,131.644 Z" id="Fill-46" fill="#DBB13F"></path>
                        <path d="M89.194,208.338 L128.768,208.338 L128.768,253.582 L89.194,253.582 L89.194,208.338 Z" id="Fill-47" fill="#24386D"></path>
                        <path d="M16.874,131.644 L48.648,131.644 L48.648,245.038 L16.874,245.038 L16.874,131.644 Z" id="Fill-48" fill="#B9752F"></path>
                        <path d="M48.646,119.262 L98.276,119.262 L98.276,250.72 L48.646,250.72 L48.646,119.262 Z" id="Fill-49" fill="#24386D"></path>
                        <path d="M60.6,76.964 C57.084,74.912 53.008,73.722 48.642,73.722 C44.28,73.722 40.204,74.912 36.688,76.964 L36.688,92.028 L60.6,92.028 L60.6,76.964" id="Fill-50" fill="#408BB8"></path>
                        <path d="M36.688,78.292 L60.6,78.292 L60.6,97.37 L36.688,97.37 L36.688,78.292 Z" id="Fill-51" fill="#4B6375"></path>
                        <path d="M30.328,87.832 L66.958,87.832 L66.958,236.342 L30.328,236.342 L30.328,87.832 Z" id="Fill-52" fill="#408BB8"></path>
                        <path d="M30.328,92.736 L48.646,92.736 L48.646,96.934 L30.328,96.934 L30.328,92.736 Z" id="Fill-53" fill="#4BDCDC"></path>
                        <path d="M30.328,101.504 L48.646,101.504 L48.646,105.7 L30.328,105.7 L30.328,101.504 Z" id="Fill-54" fill="#4BDCDC"></path>
                        <path d="M30.328,110.276 L48.646,110.276 L48.646,114.474 L30.328,114.474 L30.328,110.276 Z" id="Fill-55" fill="#4BDCDC"></path>
                        <path d="M30.328,119.044 L48.646,119.044 L48.646,123.242 L30.328,123.242 L30.328,119.044 Z" id="Fill-56" fill="#4BDCDC"></path>
                        <path d="M30.328,127.812 L48.646,127.812 L48.646,132.01 L30.328,132.01 L30.328,127.812 Z" id="Fill-57" fill="#4BDCDC"></path>
                        <path d="M30.328,136.582 L48.646,136.582 L48.646,140.78 L30.328,140.78 L30.328,136.582 Z" id="Fill-58" fill="#4BDCDC"></path>
                        <path d="M30.328,145.352 L48.646,145.352 L48.646,149.55 L30.328,149.55 L30.328,145.352 Z" id="Fill-59" fill="#4BDCDC"></path>
                        <path d="M30.328,154.12 L48.646,154.12 L48.646,158.318 L30.328,158.318 L30.328,154.12 Z" id="Fill-60" fill="#4BDCDC"></path>
                        <path d="M30.328,162.888 L48.646,162.888 L48.646,167.088 L30.328,167.088 L30.328,162.888 Z" id="Fill-61" fill="#4BDCDC"></path>
                        <path d="M30.328,171.658 L48.646,171.658 L48.646,175.856 L30.328,175.856 L30.328,171.658 Z" id="Fill-62" fill="#4BDCDC"></path>
                        <path d="M30.328,180.428 L48.646,180.428 L48.646,184.626 L30.328,184.626 L30.328,180.428 Z" id="Fill-63" fill="#4BDCDC"></path>
                        <path d="M30.328,189.196 L48.646,189.196 L48.646,193.394 L30.328,193.394 L30.328,189.196 Z" id="Fill-64" fill="#4BDCDC"></path>
                        <path d="M30.328,197.966 L48.646,197.966 L48.646,202.164 L30.328,202.164 L30.328,197.966 Z" id="Fill-65" fill="#4BDCDC"></path>
                        <path d="M30.328,206.734 L48.646,206.734 L48.646,210.932 L30.328,210.932 L30.328,206.734 Z" id="Fill-66" fill="#4BDCDC"></path>
                        <path d="M30.328,215.504 L48.646,215.504 L48.646,219.702 L30.328,219.702 L30.328,215.504 Z" id="Fill-67" fill="#4BDCDC"></path>
                        <path d="M30.328,224.274 L48.646,224.274 L48.646,228.47 L30.328,228.47 L30.328,224.274 Z" id="Fill-68" fill="#4BDCDC"></path>
                    </g>
                </g>
            </g>
        </g>
    </g>
</svg>