<?xml version="1.0" encoding="UTF-8" standalone="no"?>
<svg width="241px" height="116px" viewBox="0 0 241 116" version="1.1" xmlns="http://www.w3.org/2000/svg" xmlns:xlink="http://www.w3.org/1999/xlink" xmlns:sketch="http://www.bohemiancoding.com/sketch/ns">
    <!-- Generator: Sketch 3.3.3 (12081) - http://www.bohemiancoding.com/sketch -->
    <title>cloudJOINT</title>
    <desc>Created with Sketch.</desc>
    <defs></defs>
    <g id="Page-1" stroke="none" stroke-width="1" fill="none" fill-rule="evenodd" sketch:type="MSPage">
        <g id="HIGH-RES-DESKTOP" sketch:type="MSArtboardGroup" transform="translate(0.000000, -97.000000)" fill="#FFFFFF">
            <g id="top-header" sketch:type="MSLayerGroup" transform="translate(-6.000000, -80.000000)">
                <g id="BANNER" sketch:type="MSShapeGroup">
                    <path d="M94.64,201.6084 C101.476207,186.745689 117.945862,176.910533 134.254138,177.951956 C150.562414,178.993378 165.651379,190.844044 170.546552,206.4564 C177.575517,200.243778 189.037931,199.839778 196.488276,205.540667 C203.938621,211.237067 206.561034,222.423378 202.423448,230.844533 C210.120345,220.062222 227.15931,217.575378 237.608621,225.709244 C248.062414,233.8476 249.855517,250.990667 241.315862,261.122089 C232.776207,271.253511 215.598276,272.357778 205.834828,263.406933 C204.969655,272.600178 197.90931,280.419822 189.450345,284.1052 C180.986897,287.786089 171.366897,287.880356 162.244483,286.502267 C156.788966,285.6808 151.27069,284.293733 146.725172,281.160489 C142.184138,278.027244 138.741379,272.860533 138.884828,267.3392 C138.566552,280.294133 127.148966,291.996667 114.22069,292.616133 C101.292414,293.2356 88.8124138,282.673244 87.2613793,269.808089 C86.3244828,281.393911 73.3289655,290.214578 62.14,287.1352 C50.9465517,284.060311 44.2448276,270.256978 48.3958621,259.402844 C41.7524138,271.163733 24.83,275.603244 13.277931,268.618533 C1.73034483,261.638311 -2.22793103,244.576044 5.06551724,233.210178 C12.3589655,221.844311 29.5010345,218.360933 40.6406897,225.978578 C35.4541379,212.018133 42.7027586,194.637156 56.2675862,188.5188 C69.827931,182.395956 87.6334483,188.469422 94.64,201.6084" id="cloudJOINT"></path>
                </g>
            </g>
        </g>
    </g>
</svg>