<?xml version="1.0" encoding="UTF-8" standalone="no"?>
<svg width="247px" height="131px" viewBox="0 0 247 131" version="1.1" xmlns="http://www.w3.org/2000/svg" xmlns:xlink="http://www.w3.org/1999/xlink" xmlns:sketch="http://www.bohemiancoding.com/sketch/ns">
    <!-- Generator: Sketch 3.3.3 (12081) - http://www.bohemiancoding.com/sketch -->
    <title>cloud6</title>
    <desc>Created with Sketch.</desc>
    <defs></defs>
    <g id="Page-1" stroke="none" stroke-width="1" fill="none" fill-rule="evenodd" sketch:type="MSPage">
        <g id="HIGH-RES-DESKTOP" sketch:type="MSArtboardGroup" transform="translate(-1248.000000, -428.000000)" fill="#FFFFFF">
            <g id="top-header" sketch:type="MSLayerGroup" transform="translate(-6.000000, -80.000000)">
                <g id="BANNER" sketch:type="MSShapeGroup">
                    <path d="M1498.01982,586.820876 C1491.94267,595.982922 1479.15643,597.06724 1468.16854,597.223831 C1474.40515,600.736785 1476.67596,609.278376 1474.28408,616.029513 C1471.88925,622.777694 1465.72055,627.68224 1458.97013,630.072467 C1452.22266,632.462694 1444.90232,632.651785 1437.75029,632.368149 C1432.03635,632.140649 1426.16886,631.58224 1421.08094,628.973376 C1415.99302,626.364513 1411.81461,621.264967 1411.84414,615.544967 C1409.46112,626.931785 1398.29014,635.80724 1386.66736,635.54724 C1375.04459,635.290194 1364.27816,625.930194 1362.40009,614.451785 C1359.60366,623.271103 1353.53241,631.198149 1345.26122,635.337467 C1336.99003,639.476785 1326.54253,639.456103 1318.74972,634.477694 C1310.95395,629.496331 1306.4891,619.418376 1308.88099,610.483831 C1304.36889,613.757467 1299.62647,616.972013 1294.20487,618.272013 C1288.78327,619.569058 1282.48169,618.58224 1278.73146,614.45474 C1274.98418,610.32724 1275.12001,602.793149 1279.827,599.806103 C1274.72136,599.599285 1269.48875,598.352467 1265.47275,595.191103 C1261.45675,592.02974 1258.91722,586.684967 1260.07773,581.703603 C1261.24119,576.728149 1266.73366,572.872467 1271.61487,574.379285 C1264.86445,573.436785 1258.37683,569.383149 1255.48295,563.208149 C1252.58907,557.033149 1253.95923,548.849058 1259.34245,544.659513 C1264.7227,540.472922 1273.73803,541.637013 1277.18116,547.525422 C1271.76842,539.483149 1272.22908,527.945649 1278.26785,520.361331 C1284.30366,512.779967 1295.4392,509.748603 1304.48406,513.229058 C1313.52892,516.706558 1319.76553,526.421103 1319.17199,536.09724 C1320.97623,522.488603 1332.53995,510.773831 1346.11758,508.800194 C1359.6952,506.826558 1374.11441,514.765422 1379.71614,527.295649 C1379.83426,516.807013 1393.72489,513.403376 1401.93407,512.401785 C1410.52418,511.352922 1419.50407,512.652922 1427.35003,516.352013 C1434.33965,519.649285 1439.15294,529.346103 1434.43119,536.543376 C1438.28182,530.143831 1444.25858,524.707467 1451.53167,523.011558 C1458.80181,521.312694 1467.30038,524.066331 1471.03585,530.536785 C1474.77132,537.004285 1472.06938,546.736558 1465.03547,549.242013 C1475.09614,550.048603 1485.52888,552.595422 1492.94076,559.452922 C1500.35265,566.307467 1503.60088,578.406331 1498.01982,586.820876" id="cloud6"></path>
                </g>
            </g>
        </g>
    </g>
</svg>