<?xml version="1.0" encoding="UTF-8" standalone="no"?>
<svg width="282px" height="187px" viewBox="0 0 282 187" version="1.1" xmlns="http://www.w3.org/2000/svg" xmlns:xlink="http://www.w3.org/1999/xlink" xmlns:sketch="http://www.bohemiancoding.com/sketch/ns">
    <!-- Generator: Sketch 3.3.3 (12081) - http://www.bohemiancoding.com/sketch -->
    <title>cloud4</title>
    <desc>Created with Sketch.</desc>
    <defs></defs>
    <g id="Page-1" stroke="none" stroke-width="1" fill="none" fill-rule="evenodd" sketch:type="MSPage">
        <g id="HIGH-RES-DESKTOP" sketch:type="MSArtboardGroup" transform="translate(-1766.000000, -96.000000)" fill="#FFFFFF">
            <g id="top-header" sketch:type="MSLayerGroup" transform="translate(-6.000000, -80.000000)">
                <g id="BANNER" sketch:type="MSShapeGroup">
                    <path d="M1982.83517,357.781434 C1987.71126,355.84013 1992.11244,352.660477 1996.50952,349.848651 C2000.11235,347.543608 2004.9475,343.395347 2009.3323,342.802738 C2013.83992,342.189695 2017.81122,348.23839 2021.71291,350.596564 C2044.24284,364.214303 2076.23428,359.972043 2095.72637,342.855869 C2114.14171,326.691956 2121.53569,298.78213 2112.5491,276.009608 C2103.56251,253.237086 2078.28543,237.722999 2053.99093,241.004825 C2042.88359,203.42526 2004.75098,175.629869 1965.50886,176.520825 C1926.26675,177.415869 1889.44016,206.911434 1880.06053,244.956912 C1868.00745,238.15213 1852.15093,238.71613 1840.6178,246.362825 C1829.08468,254.009521 1822.41126,268.383347 1824.02025,282.111434 C1805.52712,276.062738 1783.24693,285.86326 1775.23884,303.572043 C1767.23484,321.276738 1774.60835,344.441608 1791.38195,354.287086 C1799.4883,359.044303 1809.3019,360.368477 1818.49729,358.717347 C1829.33032,356.771956 1835.90957,351.033869 1843.62698,343.705956 C1842.63211,344.65413 1857.73531,355.357869 1859.31973,356.212043 C1865.60011,359.616477 1872.58468,361.794825 1879.74119,362.203521 C1895.5363,363.102651 1908.56378,354.822477 1919.28628,343.992043 C1936.03122,360.049695 1960.78425,366.543869 1982.83517,357.781434" id="cloud4"></path>
                </g>
            </g>
        </g>
    </g>
</svg>