<?xml version="1.0" encoding="UTF-8" standalone="no"?>
<svg width="589px" height="230px" viewBox="0 0 589 230" version="1.1" xmlns="http://www.w3.org/2000/svg" xmlns:xlink="http://www.w3.org/1999/xlink" xmlns:sketch="http://www.bohemiancoding.com/sketch/ns">
    <!-- Generator: Sketch 3.3.3 (12081) - http://www.bohemiancoding.com/sketch -->
    <title>cloud2</title>
    <desc>Created with Sketch.</desc>
    <defs></defs>
    <g id="Page-1" stroke="none" stroke-width="1" fill="none" fill-rule="evenodd" sketch:type="MSPage">
        <g id="HIGH-RES-DESKTOP" sketch:type="MSArtboardGroup" transform="translate(0.000000, -492.000000)" fill="#FFFFFF">
            <g id="top-header" sketch:type="MSLayerGroup" transform="translate(-6.000000, -80.000000)">
                <g id="BANNER" sketch:type="MSShapeGroup">
                    <path d="M594.751219,800.484022 C593.946908,795.600422 593.408772,790.589222 592.077898,785.810022 C590.729665,780.955422 588.253083,776.593822 584.081083,773.641622 C575.713937,767.708222 567.144267,769.523622 558.163762,771.913222 C559.234248,761.125222 558.117471,751.160822 549.055956,743.667222 C540.428422,736.533222 528.363762,734.648222 517.31751,736.405622 C506.79782,738.081822 497.788384,743.180022 488.310248,747.286422 C492.887296,740.506222 493.894131,731.440822 490.584306,723.912422 C486.927296,715.606822 478.218753,709.795222 469.163024,709.621222 C459.441859,709.429822 451.427685,715.369022 446.752267,723.547022 C450.617587,712.793822 450.125743,700.718222 443.945859,690.893022 C437.494015,680.644422 425.521937,674.136822 413.434131,674.316622 C401.69351,674.490622 391.150675,680.841622 384.357432,690.127422 C402.711918,659.689022 394.512578,617.569422 368.404306,594.195422 C341.728966,570.311022 300.361937,566.378622 267.81918,581.255622 C235.276422,596.126822 211.876189,627.713622 202.860966,662.409222 C189.505937,646.140222 164.815335,640.908622 145.980578,650.159622 C126.434092,659.764422 117.644539,681.531822 120.283141,702.435022 C111.470442,688.306222 94.145937,679.983222 77.8282671,686.044222 C60.1276457,692.609822 53.3691214,711.703422 56.8467525,729.045422 C36.3918011,709.940222 7.05471367,729.828422 1.7080729,752.518022 C-1.07518924,764.321022 0.105237945,776.657622 1.31459717,788.727422 C1.62127678,791.807222 2.00317969,795.066822 3.90112144,797.508622 C4.3929661,798.140822 4.98317969,799.121022 5.96108261,799.121022 C25.9936263,799.121022 39.9620146,799.561822 47.4322671,799.585022 C94.1517234,799.712622 140.876966,799.840222 187.596422,799.967822 C247.451024,800.136022 307.305626,800.298422 367.160228,800.466622 C419.243685,800.611622 471.327141,800.750822 523.416384,800.895822 C547.186947,800.959622 570.998015,801.470022 594.751219,800.484022" id="cloud2"></path>
                </g>
            </g>
        </g>
    </g>
</svg>