<?xml version="1.0" encoding="UTF-8" standalone="no"?>
<svg width="239px" height="53px" viewBox="0 0 239 53" version="1.1" xmlns="http://www.w3.org/2000/svg" xmlns:xlink="http://www.w3.org/1999/xlink" xmlns:sketch="http://www.bohemiancoding.com/sketch/ns">
    <!-- Generator: Sketch 3.3.3 (12081) - http://www.bohemiancoding.com/sketch -->
    <title>cloud5</title>
    <desc>Created with Sketch.</desc>
    <defs></defs>
    <g id="Page-1" stroke="none" stroke-width="1" fill="none" fill-rule="evenodd" sketch:type="MSPage">
        <g id="HIGH-RES-DESKTOP" sketch:type="MSArtboardGroup" transform="translate(-580.000000, 0.000000)" fill="#FFFFFF">
            <g id="top-header" sketch:type="MSLayerGroup" transform="translate(-6.000000, -80.000000)">
                <g id="BANNER" sketch:type="MSShapeGroup">
                    <path d="M824.019822,80.8208762 C817.942669,89.9829216 805.156434,91.0672398 794.16854,91.2238307 C800.405152,94.7367853 802.675963,103.278376 800.284081,110.029513 C797.889246,116.777694 791.720552,121.68224 784.970128,124.072467 C778.222657,126.462694 770.902316,126.651785 763.750293,126.368149 C758.036352,126.140649 752.168857,125.58224 747.08094,122.973376 C741.993022,120.364513 737.81461,115.264967 737.84414,109.544967 C735.461116,120.931785 724.29014,129.80724 712.667363,129.54724 C701.044587,129.290194 690.278163,119.930194 688.400093,108.451785 C685.603657,117.271103 679.53241,125.198149 671.261222,129.337467 C662.990034,133.476785 652.542528,133.456103 644.749716,128.477694 C636.953952,123.496331 632.489105,113.418376 634.880987,104.483831 C630.368893,107.757467 625.626469,110.972013 620.204869,112.272013 C614.783269,113.569058 608.481693,112.58224 604.731457,108.45474 C600.984175,104.32724 601.12001,96.7931489 605.826999,93.8061035 C600.721363,93.5992853 595.488752,92.3524671 591.472752,89.1911035 C587.456752,86.0297398 584.917222,80.6849671 586.077728,75.7036035 C587.241187,70.7281489 592.733657,66.8724671 597.614869,68.3792853 C590.864446,67.4367853 584.376834,63.3831489 581.482952,57.2081489 C578.589069,51.0331489 579.959234,42.849058 585.342446,38.6595125 C590.722705,34.4729216 599.738034,35.6370125 603.181163,41.5254216 C597.768422,33.4831489 598.229081,21.9456489 604.267846,14.3613307 C610.303657,6.77996709 621.439199,3.74860345 630.484057,7.229058 C639.528916,10.706558 645.765528,20.4211035 645.171987,30.0972398 C646.976234,16.4886035 658.539952,4.77383073 672.117575,2.80019436 C685.695199,0.826558 700.11441,8.76542164 705.71614,21.2956489 C705.834257,10.8070125 719.724893,7.40337618 727.934069,6.40178527 C736.524175,5.35292164 745.504069,6.65292164 753.350034,10.3520125 C760.339646,13.6492853 765.15294,23.3461035 760.431187,30.5433762 C764.281822,24.1438307 770.258575,18.7074671 777.531669,17.011558 C784.80181,15.3126944 793.300375,18.0663307 797.035846,24.5367853 C800.771316,31.0042853 798.069375,40.736558 791.035469,43.2420125 C801.09614,44.0486035 811.528881,46.5954216 818.940763,53.4529216 C826.352646,60.3074671 829.600881,72.4063307 824.019822,80.8208762" id="cloud5"></path>
                </g>
            </g>
        </g>
    </g>
</svg>