<?xml version="1.0" encoding="UTF-8" standalone="no"?>
<svg width="467px" height="233px" viewBox="0 0 467 233" version="1.1" xmlns="http://www.w3.org/2000/svg" xmlns:xlink="http://www.w3.org/1999/xlink" xmlns:sketch="http://www.bohemiancoding.com/sketch/ns">
    <!-- Generator: Sketch 3.3.3 (12081) - http://www.bohemiancoding.com/sketch -->
    <title>MT FUJI</title>
    <desc>Created with Sketch.</desc>
    <defs></defs>
    <g id="Page-1" stroke="none" stroke-width="1" fill="none" fill-rule="evenodd" sketch:type="MSPage">
        <g id="HIGH-RES-DESKTOP" sketch:type="MSArtboardGroup" transform="translate(-551.000000, -1854.000000)">
            <g id="FOOTER" sketch:type="MSLayerGroup" transform="translate(-287.000000, 1533.000000)">
                <g id="MT-FUJI" transform="translate(837.000000, 319.500000)" sketch:type="MSShapeGroup">
                    <path d="M309.459553,76.0297207 L467.946704,234.519497 L226.301061,220.865866 L208.393799,76.0297207 L309.459553,76.0297207" id="Fill-1" fill="#957A5C"></path>
                    <path d="M143.145196,76.0297207 L1.01089385,218.169274 L226.301061,218.200782 L226.301061,76.0297207 L143.145196,76.0297207" id="Fill-2" fill="#957A5C"></path>
                    <path d="M143.145196,76.0297207 L115.428324,103.751844 L115.428324,131.463464 L143.147821,103.751844 L143.147821,131.463464 L170.864693,103.751844 L170.864693,131.463464 L198.58419,103.751844 L198.58419,131.463464 L226.301061,103.751844 L309.459553,103.751844 L309.459553,76.0297207 L143.145196,76.0297207" id="Fill-3" fill="#7C6257"></path>
                    <path d="M337.17905,103.751844 L309.459553,76.0297207 L226.301061,76.0297207 L226.301061,103.751844 L254.020559,131.463464 L254.020559,103.751844 L254.02581,103.751844 L281.745307,131.463464 L281.745307,103.757095 L309.459553,131.463464 L309.459553,103.751844 L309.464804,103.751844 L337.17905,131.463464 L337.17905,103.751844" id="Fill-4" fill="#6E5145"></path>
                    <path d="M203.26581,71.353352 L170.864693,76.0297207 L170.864693,103.751844 L203.26581,71.353352" id="Fill-5" fill="#FFFFFF"></path>
                    <path d="M179.177654,67.7193855 L143.147821,76.0297207 L143.147821,103.751844 L179.177654,67.7193855" id="Fill-6" fill="#FFFFFF"></path>
                    <path d="M226.301061,1.62005587 C220.343352,1.62005587 214.952793,4.04882682 211.06676,7.96636872 L170.720279,48.3102235 L226.301061,48.3102235 L226.301061,1.62005587" id="Fill-7" fill="#BCE0E4"></path>
                    <path d="M226.301061,1.62005587 C232.261397,1.62005587 237.646704,4.04882682 241.540615,7.96636872 L281.884469,48.3102235 L226.301061,48.3102235 L226.301061,1.62005587" id="Fill-8" fill="#9AD0D6"></path>
                    <path d="M143.145196,76.0297207 L170.864693,76.0297207 L170.864693,48.3154749 L143.145196,76.0297207" id="Fill-9" fill="#BCE0E4"></path>
                    <path d="M223.189609,72.9182682 L254.020559,76.0297207 L254.020559,103.751844 L223.189609,72.9182682" id="Fill-10" fill="#FFFFFF"></path>
                    <path d="M170.864693,76.0297207 L198.58419,76.0297207 L198.58419,48.3154749 L170.864693,76.0297207" id="Fill-11" fill="#BCE0E4"></path>
                    <path d="M232.032961,70.3004469 L198.58419,76.0297207 L198.58419,103.751844 L232.032961,70.3004469" id="Fill-12" fill="#FFFFFF"></path>
                    <path d="M198.58419,48.3102235 L170.864693,48.3102235 L170.864693,76.0297207 L198.58419,48.3102235" id="Fill-13" fill="#FFFFFF"></path>
                    <path d="M198.58419,76.0297207 L226.301061,76.0297207 L226.301061,48.3154749 L198.58419,76.0297207" id="Fill-14" fill="#BCE0E4"></path>
                    <path d="M226.301061,48.3102235 L198.58419,48.3102235 L198.58419,76.0297207 L226.301061,48.3102235" id="Fill-15" fill="#FFFFFF"></path>
                    <path d="M249.53324,71.5424022 L281.734804,76.0297207 L281.734804,103.751844 L249.53324,71.5424022" id="Fill-16" fill="#FFFFFF"></path>
                    <path d="M277.415531,71.7025698 L309.459553,76.0297207 L309.459553,103.751844 L277.415531,71.7025698" id="Fill-17" fill="#FFFFFF"></path>
                    <path d="M226.301061,20.593352 L198.58419,20.593352 L198.58419,48.3102235 L226.301061,20.593352" id="Fill-18" fill="#FFFFFF"></path>
                    <path d="M309.459553,76.0297207 L281.740056,76.0297207 L281.740056,48.3154749 L309.459553,76.0297207" id="Fill-19" fill="#9AD0D6"></path>
                    <path d="M281.734804,76.0297207 L254.020559,76.0297207 L254.020559,48.3154749 L281.734804,76.0297207" id="Fill-20" fill="#9AD0D6"></path>
                    <path d="M254.020559,48.3102235 L281.734804,48.3102235 L281.734804,76.0297207 L254.020559,48.3102235" id="Fill-21" fill="#FFFFFF"></path>
                    <path d="M254.020559,76.0297207 L226.301061,76.0297207 L226.301061,48.3154749 L254.020559,76.0297207" id="Fill-22" fill="#9AD0D6"></path>
                    <path d="M226.301061,48.3102235 L254.020559,48.3102235 L254.020559,76.0297207 L226.301061,48.3102235" id="Fill-23" fill="#FFFFFF"></path>
                    <path d="M226.301061,20.593352 L254.020559,20.593352 L254.020559,48.3102235 L226.301061,20.593352" id="Fill-24" fill="#FFFFFF"></path>
                </g>
            </g>
        </g>
    </g>
</svg>