<?xml version="1.0" encoding="UTF-8" standalone="no"?>
<svg width="154px" height="218px" viewBox="0 0 154 218" version="1.1" xmlns="http://www.w3.org/2000/svg" xmlns:xlink="http://www.w3.org/1999/xlink" xmlns:sketch="http://www.bohemiancoding.com/sketch/ns">
    <!-- Generator: Sketch 3.3.3 (12081) - http://www.bohemiancoding.com/sketch -->
    <title>NY STATUE</title>
    <desc>Created with Sketch.</desc>
    <defs></defs>
    <g id="Page-1" stroke="none" stroke-width="1" fill="none" fill-rule="evenodd" sketch:type="MSPage">
        <g id="HIGH-RES-DESKTOP" sketch:type="MSArtboardGroup" transform="translate(-1157.000000, -1822.000000)">
            <g id="FOOTER" sketch:type="MSLayerGroup" transform="translate(-287.000000, 1533.000000)">
                <g id="NY-STATUE" transform="translate(1443.000000, 288.500000)" sketch:type="MSShapeGroup">
                    <path d="M83.6722632,125.758343 L124.631421,125.758343 L124.631421,217.856836 L83.6722632,217.856836 L83.6722632,125.758343 Z" id="Fill-1" fill="#1F3857"></path>
                    <path d="M28.4351579,103.068448 L71.7584737,103.068448 L71.7584737,217.858463 L28.4351579,217.858463 L28.4351579,103.068448 Z" id="Fill-2" fill="#1F3857"></path>
                    <path d="M33.5028421,108.62094 L67.3058947,108.62094 L67.3058947,112.803612 L33.5028421,112.803612 L33.5028421,108.62094 Z" id="Fill-3" fill="#305079"></path>
                    <path d="M33.5028421,116.000403 L67.3058947,116.000403 L67.3058947,120.184701 L33.5028421,120.184701 L33.5028421,116.000403 Z" id="Fill-4" fill="#305079"></path>
                    <path d="M33.5028421,123.381493 L67.3058947,123.381493 L67.3058947,127.565791 L33.5028421,127.565791 L33.5028421,123.381493 Z" id="Fill-5" fill="#305079"></path>
                    <path d="M33.5028421,130.762582 L67.3058947,130.762582 L67.3058947,134.946881 L33.5028421,134.946881 L33.5028421,130.762582 Z" id="Fill-6" fill="#305079"></path>
                    <path d="M33.5028421,138.143672 L67.3058947,138.143672 L67.3058947,142.32797 L33.5028421,142.32797 L33.5028421,138.143672 Z" id="Fill-7" fill="#305079"></path>
                    <path d="M33.5028421,145.524761 L67.3058947,145.524761 L67.3058947,149.70906 L33.5028421,149.70906 L33.5028421,145.524761 Z" id="Fill-8" fill="#305079"></path>
                    <path d="M33.5028421,152.905851 L67.3058947,152.905851 L67.3058947,157.090149 L33.5028421,157.090149 L33.5028421,152.905851 Z" id="Fill-9" fill="#305079"></path>
                    <path d="M33.5028421,160.28694 L67.3058947,160.28694 L67.3058947,164.471239 L33.5028421,164.471239 L33.5028421,160.28694 Z" id="Fill-10" fill="#305079"></path>
                    <path d="M33.5028421,167.669657 L67.3058947,167.669657 L67.3058947,171.853955 L33.5028421,171.853955 L33.5028421,167.669657 Z" id="Fill-11" fill="#305079"></path>
                    <path d="M33.5028421,175.050746 L67.3058947,175.050746 L67.3058947,179.235045 L33.5028421,179.235045 L33.5028421,175.050746 Z" id="Fill-12" fill="#305079"></path>
                    <path d="M33.5028421,182.431836 L67.3058947,182.431836 L67.3058947,186.616134 L33.5028421,186.616134 L33.5028421,182.431836 Z" id="Fill-13" fill="#305079"></path>
                    <path d="M33.5028421,189.812925 L67.3058947,189.812925 L67.3058947,193.997224 L33.5028421,193.997224 L33.5028421,189.812925 Z" id="Fill-14" fill="#305079"></path>
                    <path d="M33.5028421,197.194015 L67.3058947,197.194015 L67.3058947,201.378313 L33.5028421,201.378313 L33.5028421,197.194015 Z" id="Fill-15" fill="#305079"></path>
                    <path d="M33.5028421,204.575104 L67.3058947,204.575104 L67.3058947,208.759403 L33.5028421,208.759403 L33.5028421,204.575104 Z" id="Fill-16" fill="#305079"></path>
                    <path d="M33.5028421,211.956194 L67.3058947,211.956194 L67.3058947,216.140493 L33.5028421,216.140493 L33.5028421,211.956194 Z" id="Fill-17" fill="#305079"></path>
                    <path d="M53.6153158,202.321896 L102.071579,202.321896 L102.071579,195.456522 L77.8426316,193.333463 L53.6153158,195.456522 L53.6153158,202.321896" id="Fill-18" fill="#C29C3F"></path>
                    <path d="M55.3186842,24.2565672 L50.7127368,24.2565672 L50.7127368,47.7501343 L58.7629474,47.7501343 L58.7629474,27.6941343 L55.3186842,24.2565672" id="Fill-19" fill="#1EAFAF"></path>
                    <path d="M58.7629474,47.7501343 L55.3186842,43.7138806 L50.7127368,47.7501343 L50.7127368,57.1713134 L58.7629474,57.1713134 L58.7629474,47.7501343" id="Fill-20" fill="#4B608C"></path>
                    <path d="M59.6423684,76.1161642 L52.9855263,70.1423134 L52.9855263,55.2499851 L60.3994211,55.2499851 L59.6423684,76.1161642" id="Fill-21" fill="#513554"></path>
                    <path d="M59.4416842,58.3198806 L68.6894737,57.249403 L64.0508947,52.622597 L58.9783158,55.2825224 L59.4416842,58.3198806" id="Fill-22" fill="#513554"></path>
                    <path d="M50.7127368,17.6124478 L55.3186842,17.6124478 L55.3186842,30.9006866 L50.7127368,30.9006866 L50.7127368,17.6124478 Z" id="Fill-23" fill="#513554"></path>
                    <path d="M58.7629474,21.1346119 L47.2064737,21.1346119 L47.2064737,15.2795224 L52.9561579,15.2795224 L58.7629474,21.1346119" id="Fill-24" fill="#1EAFAF"></path>
                    <path d="M53.0116316,15.2795224 L58.7613158,15.2795224 L58.7613158,21.1362388 L53.0116316,21.1362388 L53.0116316,15.2795224 Z" id="Fill-25" fill="#4B608C"></path>
                    <path d="M47.2064737,23.252791 L52.9855263,23.252791 L52.9855263,29.0135224 L47.2064737,29.0135224 L47.2064737,23.252791 Z" id="Fill-26" fill="#1EAFAF"></path>
                    <path d="M73.3378421,57.3226119 L62.3246842,64.1961194 L59.4775789,71.1444627 L59.4775789,105.839 L73.3378421,105.839 L73.3378421,57.3226119" id="Fill-27" fill="#1EAFAF"></path>
                    <path d="M84.0932105,50.8574478 L78.957,65.6830746 L96.9157895,63.6397313 L84.0932105,50.8574478" id="Fill-28" fill="#513554"></path>
                    <path d="M103.494316,75.4247463 L75.2761579,79.8547015 L87.2291053,108.18006 L108.469,86.9998955 L103.494316,75.4247463" id="Fill-29" fill="#513554"></path>
                    <path d="M90.0044211,139.292239 L62.3246842,139.305254 L64.3706842,134.707731 L62.3246842,132.900284 L62.3246842,61.5410746 L93.2871579,61.5410746 L90.0044211,113.407179 L90.0044211,139.292239" id="Fill-30" fill="#1EAFAF"></path>
                    <path d="M83.3638947,68.2161045 L96.4377368,68.2161045 L96.4377368,80.0482985 L83.3638947,80.0482985 L83.3638947,68.2161045 Z" id="Fill-31" fill="#1EAFAF"></path>
                    <path d="M62.3246842,33.5183134 L71.3946316,42.5571791 L80.4596842,33.5183134 L62.3246842,33.5183134" id="Fill-32" fill="#1EAFAF"></path>
                    <path d="M75.2761579,33.5183134 L84.3412105,42.5571791 L93.4078947,33.5183134 L75.2761579,33.5183134" id="Fill-33" fill="#4B608C"></path>
                    <path d="M90.0044211,85.4966716 L93.2855263,85.4966716 L93.2855263,113.407179 L90.0044211,115.177209 L90.0044211,85.4966716" id="Fill-34" fill="#4B608C"></path>
                    <path d="M80.4596842,113.407179 L83.7407895,113.407179 L83.7407895,140.317164 L80.4596842,140.317164 L80.4596842,113.407179 Z" id="Fill-35" fill="#4B608C"></path>
                    <path d="M86.8701579,113.407179 L93.2855263,113.407179 L93.2855263,139.292239 L86.8701579,142.085567 L86.8701579,113.407179" id="Fill-36" fill="#4B608C"></path>
                    <path d="M71.3946316,37.5480597 L84.2155789,37.5480597 L84.2155789,24.7625224 L71.3946316,37.5480597" id="Fill-37" fill="#4B608C"></path>
                    <path d="M71.2706316,37.5480597 L84.3428421,37.5480597 L84.3428421,58.9852687 L71.2706316,58.9852687 L71.2706316,37.5480597 Z" id="Fill-38" fill="#513554"></path>
                    <path d="M73.3378421,39.7313134 L73.3378421,47.6297463 C73.3378421,50.079806 75.3365263,52.066209 77.7904211,52.066209 L77.8051053,52.066209 L77.8214211,52.066209 C80.2785789,52.066209 82.2723684,50.079806 82.2723684,47.6297463 L82.2723684,39.7313134 L73.3378421,39.7313134" id="Fill-39" fill="#1EAFAF"></path>
                    <path d="M73.3378421,39.7215522 L82.2723684,39.7215522 L82.2723684,42.5571791 L73.3378421,42.5571791 L73.3378421,39.7215522 Z" id="Fill-40" fill="#FFFFFF"></path>
                    <path d="M71.2706316,24.7625224 L71.2706316,37.5480597 L84.0932105,37.5480597 L71.2706316,24.7625224" id="Fill-41" fill="#1EAFAF"></path>
                    <path d="M47.3533158,12.0615821 L58.7629474,12.0615821 L58.7629474,0.684910448 L47.3533158,12.0615821" id="Fill-42" fill="#FF6E00"></path>
                    <path d="M72.2985263,76.1161642 L59.4775789,76.1161642 L59.4775789,88.9049552 L72.2985263,76.1161642" id="Fill-43" fill="#4B608C"></path>
                    <path d="M72.2985263,105.839 L59.4775789,105.839 L59.4775789,118.62291 L72.2985263,105.839" id="Fill-44" fill="#4B608C"></path>
                    <path d="M99.6927368,80.6697612 L86.8701579,80.6697612 L86.8701579,93.4552985 L99.6927368,80.6697612" id="Fill-45" fill="#4B608C"></path>
                    <path d="M93.2822632,113.407179 L80.4596842,113.407179 L80.4596842,126.19109 L93.2822632,113.407179" id="Fill-46" fill="#4B608C"></path>
                    <path d="M83.7407895,126.508328 L70.9198421,126.508328 L70.9198421,139.292239 L83.7407895,126.508328" id="Fill-47" fill="#4B608C"></path>
                    <path d="M68.7498421,86.2043582 L62.3246842,86.2043582 L62.3246842,92.6125821 L68.7498421,86.2043582" id="Fill-48" fill="#4B608C"></path>
                    <path d="M80.4482632,87.3512985 L87.8605263,87.3512985 L86.8701579,80.9479552 L80.4482632,87.3512985" id="Fill-49" fill="#4B608C"></path>
                    <path d="M68.7498421,132.900284 L62.3246842,132.900284 L62.3246842,139.305254 L68.7498421,132.900284" id="Fill-50" fill="#4B608C"></path>
                    <path d="M93.2855263,62.9027612 L62.3246842,62.9027612 L73.3378421,57.249403 L93.2855263,57.249403 L93.2855263,62.9027612" id="Fill-51" fill="#1EAFAF"></path>
                    <path d="M101.897,65.836 C101.897,61.0936866 98.0415789,57.249403 93.2855263,57.249403 C88.5294737,57.249403 84.6724211,61.0936866 84.6724211,65.836 C84.6724211,70.5783134 88.5294737,74.422597 93.2855263,74.422597 C98.0415789,74.422597 101.897,70.5783134 101.897,65.836" id="Fill-52" fill="#1EAFAF"></path>
                    <path d="M101.898632,65.836 C101.898632,61.0936866 98.0415789,57.249403 93.2871579,57.249403 L93.2871579,65.836 L101.898632,65.836" id="Fill-53" fill="#4B608C"></path>
                    <path d="M98.0905263,91.7373284 L95.17,88.8268657 L110.213158,73.828791 L113.133684,76.7376269 L98.0905263,91.7373284" id="Fill-54" fill="#513554"></path>
                    <path d="M95.3103158,88.9635224 L87.0561579,80.733209 L102.097684,65.7351343 L110.351842,73.9638209 L95.3103158,88.9635224" id="Fill-55" fill="#3BF3CE"></path>
                    <path d="M109.576842,84.4912687 C109.576842,86.6728955 107.801684,88.4412985 105.612105,88.4412985 C103.424158,88.4412985 101.649,86.6728955 101.649,84.4912687 C101.649,82.3063881 103.424158,80.5363582 105.612105,80.5363582 C107.801684,80.5363582 109.576842,82.3063881 109.576842,84.4912687" id="Fill-56" fill="#1EAFAF"></path>
                    <path d="M62.3246842,139.292239 L93.2871579,139.292239 L93.2871579,145.967269 L62.3246842,145.967269 L62.3246842,139.292239 Z" id="Fill-57" fill="#4B608C"></path>
                    <path d="M59.1757368,142.632194 L96.4361053,142.632194 L96.4361053,149.305597 L59.1757368,149.305597 L59.1757368,142.632194 Z" id="Fill-58" fill="#1EAFAF"></path>
                    <path d="M59.4775789,57.249403 L59.4775789,71.1444627 L73.4112632,57.249403 L59.4775789,57.249403" id="Fill-59" fill="#4B608C"></path>
                    <path d="M64.0508947,52.622597 L52.9349474,63.704806 L47.7644737,58.5508955 L58.8804211,47.4686866 L64.0508947,52.622597" id="Fill-60" fill="#1EAFAF"></path>
                    <path d="M58.9,159.397045 L96.7901579,159.397045 L96.7901579,193.030866 L58.9,193.030866 L58.9,159.397045 Z" id="Fill-61" fill="#C29C3F"></path>
                    <path d="M96.7885263,150.507851 L77.8426316,151.905328 L58.9,150.507851 L58.9,147.740552 L96.7885263,147.740552 L96.7885263,150.507851" id="Fill-62" fill="#FFFFFF"></path>
                    <path d="M58.9,150.507851 L96.7901579,150.507851 L96.7901579,154.649851 L58.9,154.649851 L58.9,150.507851 Z" id="Fill-63" fill="#C29C3F"></path>
                    <path d="M53.6153158,154.649851 L102.071579,154.649851 L102.071579,159.397045 L53.6153158,159.397045 L53.6153158,154.649851 Z" id="Fill-64" fill="#E4CC98"></path>
                    <path d="M58.9,159.397045 L96.7901579,159.397045 L96.7901579,161.562403 L58.9,161.562403 L58.9,159.397045 Z" id="Fill-65" fill="#6B5032"></path>
                    <path d="M58.9,183.595045 L96.7901579,183.595045 L96.7901579,185.757149 L58.9,185.757149 L58.9,183.595045 Z" id="Fill-66" fill="#E4CC98"></path>
                    <path d="M58.9,185.758776 L96.7901579,185.758776 L96.7901579,187.922507 L58.9,187.922507 L58.9,185.758776 Z" id="Fill-67" fill="#6B5032"></path>
                    <path d="M64.0345789,165.406687 L69.9327368,165.406687 L69.9327368,180.90909 L64.0345789,180.90909 L64.0345789,165.406687 Z" id="Fill-68" fill="#6B5032"></path>
                    <path d="M74.896,165.406687 L80.7908947,165.406687 L80.7908947,180.90909 L74.896,180.90909 L74.896,165.406687 Z" id="Fill-69" fill="#6B5032"></path>
                    <path d="M85.7541579,165.406687 L91.6523158,165.406687 L91.6523158,180.90909 L85.7541579,180.90909 L85.7541579,165.406687 Z" id="Fill-70" fill="#6B5032"></path>
                    <path d="M96.7885263,191.213657 L102.071579,195.456522 L53.6153158,195.456522 L58.9,191.213657 L96.7885263,191.213657" id="Fill-71" fill="#E4CC98"></path>
                    <path d="M45.1278421,200.667373 L110.559053,200.667373 L110.559053,214.188254 L45.1278421,214.188254 L45.1278421,200.667373 Z" id="Fill-72" fill="#E4CC98"></path>
                    <path d="M1.40478947,213.579806 L154.282105,213.579806 L154.282105,217.856836 L1.40478947,217.856836 L1.40478947,213.579806 Z" id="Fill-73" fill="#C29C3F"></path>
                    <path d="M8.94757895,200.667373 L45.1278421,200.667373 L45.1278421,214.188254 L8.94757895,214.188254 L8.94757895,200.667373 Z" id="Fill-74" fill="#C29C3F"></path>
                </g>
            </g>
        </g>
    </g>
</svg>