<?xml version="1.0" encoding="UTF-8" standalone="no"?>
<svg width="227px" height="138px" viewBox="0 0 227 138" version="1.1" xmlns="http://www.w3.org/2000/svg" xmlns:xlink="http://www.w3.org/1999/xlink" xmlns:sketch="http://www.bohemiancoding.com/sketch/ns">
    <!-- Generator: Sketch 3.3.3 (12081) - http://www.bohemiancoding.com/sketch -->
    <title>PLANE2</title>
    <desc>Created with Sketch.</desc>
    <defs></defs>
    <g id="Page-1" stroke="none" stroke-width="1" fill="none" fill-rule="evenodd" sketch:type="MSPage">
        <g id="HIGH-RES-DESKTOP" sketch:type="MSArtboardGroup" transform="translate(-478.000000, -142.000000)">
            <g id="top-header" sketch:type="MSLayerGroup" transform="translate(-6.000000, -80.000000)">
                <g id="BANNER" sketch:type="MSShapeGroup">
                    <g id="PLANES" transform="translate(484.000000, 222.000000)">
                        <g id="PLANE2" transform="translate(113.500000, 69.000000) scale(-1, 1) translate(-113.500000, -69.000000) translate(0.000000, 0.500000)">
                            <path d="M3.91978983,43.7530281 L13.7415797,38.490073 L18.6532441,32.8761517 L27.7732576,25.5081685 L39.7003763,20.5954101 L55.1348373,18.490382 L72.6738576,19.1923146 L83.5483119,13.227427 L99.6853186,5.50770787 L109.507108,0.595719101 L119.679786,0.244752809 L120.380793,3.40344944 L116.522563,10.7714326 L105.648108,19.1923146 L122.135234,19.8934775 L144.234261,21.2973427 L168.790275,24.4545 L182.821953,25.1572022 L197.554637,14.2803258 L210.884539,5.15674157 L221.057217,2.70151685 L223.863553,7.96447191 L219.303546,18.8413483 L208.77921,35.6823427 L216.49721,43.0510955 L223.863553,47.612118 L226.319,53.576236 L223.863553,59.5411236 L215.796203,58.1380281 L190.889302,49.7179157 L164.229498,53.2260393 L143.182366,57.4368652 L129.852464,57.4368652 L143.884142,70.0678034 L161.423163,83.7508708 L179.663959,97.4354775 L197.554637,113.925506 L217.549875,133.224034 L217.198986,136.731388 L204.219973,136.381191 L188.433854,131.469202 L175.104722,123.750253 L150.900366,107.258685 L125.993464,92.5227191 L117.925346,93.2246517 L105.998997,94.6277472 L93.7209898,92.8736854 L85.3027525,90.0674944 L83.5483119,83.7508708 L83.5483119,78.1369494 L86.3546475,72.874764 L90.9146542,70.7689663 L84.2500881,64.453882 L70.9201864,67.9627753 L57.2393966,69.0149045 L48.8203898,67.2608427 L44.2603831,65.1550449 L33.3859288,66.2079438 L17.2496915,64.8048483 L4.97245424,60.9449888 L0.411677966,53.2260393 L0.762566102,45.5070899 L3.91978983,43.7530281" id="Fill-1" fill="#FFFFFF"></path>
                            <path d="M99.8130542,25.885927 C108.453675,26.0313933 115.660732,26.3223258 123.299475,26.9588371 C129.466949,27.4722022 135.71522,26.9557584 142.068142,27.4945225 C146.310349,27.8547247 150.677983,28.0286685 155.045617,28.3526966 C158.723017,28.6266966 172.437664,30.1467809 175.315563,30.6055 C176.572142,30.806382 182.816566,31.6314607 184.644878,31.1427247 C185.839898,30.8217753 187.453522,29.1092753 188.613146,28.2457135 C192.622966,25.2640393 196.010268,22.3339326 200.304031,19.5562191 C204.283071,16.983236 208.151305,13.8915 212.636671,11.5117022 C214.068695,10.7512753 216.278675,9.52289326 217.356732,9.47286517 C220.089197,9.34894944 221.662037,12.4429944 220.359288,14.7288933 C219.739847,15.8156573 218.830308,16.7469494 218.213176,17.8398708 C214.482681,24.4551236 210.199692,30.7294157 206.309142,37.4708933 C205.713556,38.5045506 204.561627,40.2447584 204.593176,41.0113427 C204.641654,42.1666067 207.418749,43.9753146 208.454485,44.7657584 C211.254664,46.9000337 214.281844,48.9765843 217.248234,51.2024494 C218.645631,52.249191 220.470864,53.1958764 221.538919,54.4196404 C223.541136,56.7155449 222.484624,58.4911573 218.749512,57.8531067 C217.100492,57.5698708 215.883925,56.9456742 214.782014,56.6724438 C208.705339,55.1669831 202.891061,52.9257247 196.979058,50.8799607 C195.247702,50.2811629 192.9954,48.7810899 191.401783,48.6271573 C190.378359,48.5286404 189.070224,48.9942865 187.862892,49.164382 C186.554756,49.3475618 176.980742,50.7021685 174.671498,50.9877135 C167.819176,51.8351124 161.170769,53.281309 154.509281,54.098691 C149.886946,54.6659326 145.372339,55.3224551 140.780783,56.1359888 C134.574064,57.2358371 127.887953,56.914118 122.334532,58.7112809 C129.833227,65.9399551 136.988729,72.1580618 145.296929,78.4308146 C153.52818,84.645073 178.22578,105.710747 179.850176,107.000702 C181.199864,108.072843 192.509851,117.619742 196.742824,120.671455 C199.50222,122.660264 209.028525,130.654753 212.851359,134.444573 C213.262268,134.851725 213.72781,136.358725 213.480803,136.952135 C206.482278,136.715079 198.187929,134.830174 192.475224,132.084787 C191.365617,131.55141 190.436841,130.562393 189.364939,130.045949 C182.925064,126.947287 177.012292,122.972747 171.132607,119.105191 C156.23679,109.307382 140.670746,100.278466 125.552546,90.5707079 C121.400369,94.6075899 110.449736,94.182736 101.957627,93.5747022 C97.8970203,93.283 92.3559119,93.3838258 89.5172576,91.9661067 C86.3508,90.3821404 86.5524068,83.9847022 87.9082508,81.1307921 C88.6261864,79.6191742 90.1143831,78.2599494 91.4471424,77.6980955 C92.9945898,77.0454213 94.3088814,77.6342135 96.1664339,77.9120618 C99.3259661,78.3861742 102.57322,77.9736348 105.925895,78.2345506 C100.578698,74.7733764 95.5539186,71.6477753 89.9458644,68.150427 C88.4938339,67.246073 84.583278,64.8247135 84.583278,64.8247135 C84.583278,64.8247135 78.1603322,65.7737079 76.3466407,66.1423764 C73.7449898,66.6719045 70.6731797,66.9967022 68.2077288,67.2183652 C62.4888678,67.730191 56.3829525,69.0609382 50.7010271,67.3715281 C48.6549492,66.7634944 47.037478,64.8316404 44.8652034,65.067927 C39.183278,65.6813483 30.4049186,66.2716798 23.2378746,65.1472022 C20.8932339,64.780073 18.5609051,64.2051348 16.0515932,63.5378371 C11.9786746,62.4564607 7.1547322,60.7339551 5.32718983,58.2810393 C3.73357288,56.1429157 2.87020339,54.3742303 4.01674576,51.6527022 C4.6669661,50.1087584 8.41977627,46.7968989 10.0457119,45.9456517 C12.4980814,44.6618539 15.0212441,43.8067584 16.9103458,42.2982191 C21.9351254,38.2875056 26.0965356,33.557927 31.9254339,30.2837809 C39.6457424,25.9475 50.7618169,24.4535843 62.0641085,24.5936629 C66.5994915,24.6498483 70.6701017,25.1131854 74.7168576,24.5990506 C76.6267356,24.3550674 79.174522,22.5086461 81.1067153,21.7520674 C83.4244237,20.8446348 92.5398203,15.9234101 94.8513729,14.6865618 C99.7414915,12.0689382 104.353054,10.0085506 108.826108,7.46789326 C109.385529,7.14925281 110.298146,6.85447191 110.966064,6.6843764 C112.015651,6.41730337 115.596864,6.28953933 115.900044,7.32781461 C116.050864,7.84194944 114.318739,9.63526404 113.89321,10.2325225 C109.896471,15.8418258 103.679749,20.2281348 99.8130542,25.885927 L99.8130542,25.885927 Z M106.354502,10.0093202 C96.4988542,14.7027247 87.2664949,20.0041629 77.7194136,24.5990506 C81.5922644,25.1316573 85.7128915,25.4372135 89.8389051,25.4572247 C92.3497559,25.468 97.8824,25.885927 97.8824,25.885927 C97.8824,25.885927 100.227041,23.4368596 100.992685,22.5602135 C105.345698,17.5766461 110.692895,13.0710393 114.184078,7.64953371 C110.639031,7.18696629 108.679905,8.90177528 106.354502,10.0093202 L106.354502,10.0093202 Z M216.175563,52.2745899 C212.961397,49.9063371 210.129668,47.9621685 206.846247,45.5161798 C205.989034,44.8781292 202.898756,42.7461629 202.770251,41.5470281 C202.676373,40.6619157 204.333088,38.3667809 204.915593,37.2561573 C205.780502,35.608309 206.617708,34.3876236 207.382583,33.1807921 C211.026895,27.4221742 214.25722,21.8906067 217.784569,16.0165393 C218.321675,15.1237303 219.465139,13.7983708 219.392807,12.797809 C219.308163,11.6040618 217.608356,10.7089438 216.49798,11.2961966 C208.574525,15.4923989 200.833441,21.6681742 193.761814,27.0665899 C191.33099,28.9207079 189.073302,31.009573 186.683261,32.8583034 C184.437115,34.5962022 183.187461,34.2159888 180.248003,33.8242303 C179.054522,33.6649101 177.870275,33.6279663 176.816841,33.3947584 C170.107644,31.9100787 163.812434,31.4706011 156.224478,30.9279888 C138.300712,29.6434213 118.650976,28.422736 100.026973,27.4945225 C85.0434339,26.7479494 67.5259593,26.1268315 52.5162576,26.9588371 C42.586739,27.5083764 35.5574339,29.6572753 29.3507153,33.7164775 C27.6863051,34.8047809 25.8441424,35.8368989 24.7391525,37.3639101 C28.5612169,37.6802416 33.8183831,37.9550112 37.3949797,37.5786461 C37.952861,37.519382 39.1532678,36.9767697 40.2898068,37.2561573 C43.2338814,37.9827191 41.539461,42.5283483 40.3975356,43.5850955 C36.2268915,47.4457247 26.5959356,47.6927865 19.9129017,46.5898596 C18.5832203,46.369736 15.9146237,45.0774719 14.7650034,45.1944607 C14.1217085,45.259882 9.63172542,47.9113708 8.82837627,48.4786124 C7.08778644,49.707764 5.63036949,51.4525899 5.32718983,52.2745899 C4.42072881,54.7305843 6.55683729,56.4684831 8.11505763,56.8871798 C12.5011593,58.067073 18.2177119,57.8053876 23.6664814,57.4228652 C28.1864746,57.1065337 32.4040576,56.9487528 36.5362271,56.6724438 C46.2510576,56.023618 55.6942576,55.4609944 64.5280203,54.5266236 C72.4622475,53.687691 80.4095559,52.6047753 88.3368576,51.8458876 C96.1641254,51.0946966 103.779783,49.5499831 111.5024,48.6271573 C127.267742,46.7453315 143.136197,43.9214382 159.334763,42.8346742 C164.192563,42.5091067 168.208539,42.5514382 172.956302,42.2982191 C175.892681,42.1419775 178.335817,42.5237303 182.822722,42.2982191 C184.824939,42.1973933 188.270722,42.1812303 188.291498,43.5850955 C189.794315,45.0235955 191.579536,46.3728146 193.654854,47.0177921 C202.31702,49.7131517 210.339739,54.4573539 220.359288,56.028236 C219.579793,54.1933596 217.636827,53.3505787 216.175563,52.2745899 L216.175563,52.2745899 Z M22.4868508,38.7577697 C20.7439525,40.5549326 18.9271831,42.2774382 17.0165356,43.9068146 C18.8109898,44.5802697 20.9363254,44.922 23.0224169,45.3022135 C24.1112475,43.136382 25.6802407,41.4515899 26.562078,39.0802584 C25.1569864,38.8147247 23.9719695,38.967118 22.4868508,38.7577697 L22.4868508,38.7577697 Z M40.6114542,40.9035899 C41.2909153,37.7856854 38.0452,39.5004944 35.6782441,39.5089607 C35.5674373,41.3045843 35.0234068,43.2010337 34.9279898,44.6580056 C37.2880203,44.3255112 40.1697661,42.9324213 40.6114542,40.9035899 L40.6114542,40.9035899 Z M27.7417085,39.6159438 C26.512061,41.286882 25.3793695,43.3688202 24.6314237,45.5161798 C27.7747966,45.7332247 31.232122,45.739382 33.5329017,44.9804944 C33.8868678,43.2864663 34.5409356,41.2753371 34.2839254,39.6159438 C32.8880678,40.1331573 28.4334814,38.6777247 27.7417085,39.6159438 L27.7417085,39.6159438 Z M176.495193,43.2641461 C170.652444,43.3611236 163.59082,43.0409438 157.618797,43.9068146 C152.517837,44.6472303 147.35378,44.8357978 142.282831,45.5161798 C123.209444,48.0760787 103.857502,51.0446685 84.9049254,53.3467303 C69.0387797,55.2739663 51.9945424,56.6339607 35.6782441,57.8531067 C25.6987085,58.5981404 16.8210847,59.7333933 7.25784407,57.9593202 C11.6870373,62.1547528 22.2113729,60.747809 30.4241559,60.2128933 C40.4806407,59.5571404 49.8484305,58.5019326 59.4878508,57.4228652 C63.7392915,56.9487528 67.9838068,56.5723876 71.8204915,55.9227921 C72.6484644,55.7811742 73.3394678,55.7095955 73.9666034,55.7072865 C75.6464034,55.6988202 76.1334915,56.4623258 77.2900373,57.3166517 C81.3868102,60.3375787 86.2038271,63.0914326 90.2675119,65.7906404 C97.9000983,70.8596404 105.137166,75.2590337 112.575071,80.1648652 C125.058532,88.3994888 137.813624,95.5750562 150.326325,103.657287 C155.272617,106.853697 160.423593,109.915416 165.340644,113.204955 C173.714251,118.805022 183.135136,124.080292 191.509512,129.831983 C196.488122,133.251596 204.482369,134.534624 211.350081,135.4105 C209.844956,133.202337 207.526478,131.622989 205.451159,129.939736 C199.076692,124.766831 192.585261,119.90641 186.253885,114.707337 C177.914905,107.858107 169.782149,100.460876 161.158458,94.0026348 C152.65019,87.6321348 144.486654,80.2926292 135.956071,73.4079944 C128.708231,67.5593258 121.364973,61.2580955 113.862431,55.4925506 C112.999061,54.8298708 111.209224,53.1712472 110.752146,52.8102753 C109.670241,51.9597978 112.802841,51.2778764 113.540783,51.2024494 C120.745532,50.4597247 128.755939,49.7162303 136.813285,48.7349101 C146.699712,47.529618 156.993969,45.8871573 166.306356,45.1944607 C171.67202,44.7957753 176.983051,44.5002247 181.749281,44.2285337 C183.221319,44.1454101 185.942241,44.0799888 186.683261,43.5850955 C183.379064,43.1171404 179.864027,43.2079607 176.495193,43.2641461 L176.495193,43.2641461 Z M187.326556,44.9804944 C184.888037,44.6872528 181.760054,45.0451461 178.961414,45.3022135 C175.950393,45.5769831 172.840878,45.9371854 169.845247,46.0526348 C162.742071,46.3266348 155.079475,47.4795899 147.752376,48.3054382 C136.152292,49.6130955 123.774251,50.9815562 112.575071,52.5970787 C113.229139,53.4875787 114.112515,54.0879157 115.14902,54.8491124 C115.98238,55.461764 116.944244,56.7778876 117.830698,56.9949326 C119.574366,57.4205562 122.500742,56.3822809 124.372146,56.1359888 C145.266919,53.3852135 168.213925,49.6269494 189.364939,46.4821067 C188.767814,45.6616461 188.142217,45.0782416 187.326556,44.9804944 L187.326556,44.9804944 Z M77.5054949,60.1051404 C76.3474102,59.297764 74.9884881,57.9246854 73.7511458,57.6376011 C71.4796068,57.1111517 68.7163627,57.5783371 66.0300678,57.7453539 C49.6114271,58.765927 32.8757559,62.1532135 15.9446339,61.9292416 C23.4525627,63.7872079 31.7723051,64.6299888 39.9681593,63.967309 C41.5186847,63.8418539 43.2546576,63.2630674 44.7944102,63.3238708 C46.2125831,63.3785169 47.5499593,64.2613202 49.0843254,64.8247135 C51.4766746,65.7052079 55.3541424,66.0969663 58.0927627,65.8983933 C65.7761356,65.341927 73.5880136,63.697927 81.2590746,62.5719101 C80.4103254,61.439736 78.8344068,61.0341236 77.5054949,60.1051404 L77.5054949,60.1051404 Z M88.980922,81.4525112 C87.7643559,83.9462191 87.7304983,90.0696573 90.1605525,90.892427 C92.0604271,91.5358652 94.4597017,90.0342528 95.200722,88.9621124 C97.2367966,86.0166124 96.8151153,80.0794326 94.1280508,78.4485169 C92.1266034,78.7263652 89.9350915,79.4952584 88.980922,81.4525112 L88.980922,81.4525112 Z M94.9868034,91.1071629 C103.130332,91.4119494 110.986071,92.2408764 118.580953,91.5358652 C120.123783,91.3934775 123.859664,90.7608146 123.728851,89.4985674 C123.676525,88.9859719 121.148746,87.8407135 120.511607,87.4597303 C117.018115,85.3693258 113.790098,83.3497303 110.752146,81.3455281 C109.697942,80.6505225 108.907675,79.6699719 107.964278,79.4144438 C106.286786,78.959573 104.300729,79.4637022 102.493963,79.306691 C100.496363,79.1342865 98.3417864,78.8695225 96.5950407,78.9849719 C99.0497186,82.533118 97.520739,89.0082921 94.9868034,91.1071629 L94.9868034,91.1071629 Z" id="Fill-2" fill="#000000"></path>
                            <path d="M154.271508,36.5134326 C155.32879,36.3348708 156.162919,38.1920674 155.666597,39.0879551 C155.096403,40.1154551 152.10462,40.4425618 152.019976,38.766236 C151.967651,37.7433539 153.347349,36.6696742 154.271508,36.5134326 L154.271508,36.5134326 Z M153.306566,38.6584831 C153.505095,39.1579944 154.367695,38.9786629 154.593156,38.5515 C154.73859,38.2782697 154.706271,37.7518202 154.486966,37.6933258 C153.913695,37.5409326 153.094186,38.1258764 153.306566,38.6584831 L153.306566,38.6584831 Z" id="Fill-3" fill="#000000"></path>
                            <path d="M144.212715,37.2561573 C146.815136,36.7705 147.847793,40.127 145.177658,40.3671348 C143.166976,40.5480056 141.608756,37.7425843 144.212715,37.2561573 L144.212715,37.2561573 Z M144.104986,38.4368202 C143.527868,39.0741011 145.8248,39.6082472 145.713993,38.7577697 C145.657051,38.3159831 144.499736,38.0019607 144.104986,38.4368202 L144.104986,38.4368202 Z" id="Fill-4" fill="#000000"></path>
                            <path d="M160.300475,39.8314494 C158.97541,36.5634607 164.852786,36.2309663 163.731637,39.5089607 C163.373054,40.5626292 161.029183,40.6465225 160.300475,39.8314494 L160.300475,39.8314494 Z M161.372376,38.5438034 C161.273112,38.7339101 161.258492,39.0063708 161.372376,39.1880112 C161.659397,39.640573 163.202227,39.2780618 162.659736,38.5438034 C162.481983,38.3044382 161.511654,38.2805787 161.372376,38.5438034 L161.372376,38.5438034 Z" id="Fill-5" fill="#000000"></path>
                            <path d="M169.845247,37.4708933 C170.458532,37.327736 170.824041,37.2807865 171.132607,37.4708933 C173.018631,38.6346236 168.984956,40.9874831 168.558658,38.8655225 C168.382444,37.9904157 169.188871,37.6248258 169.845247,37.4708933" id="Fill-6" fill="#000000"></path>
                            <path d="M177.996471,37.5786461 C180.774336,37.3369719 177.243139,40.9905618 176.816841,38.6507865 C176.675254,37.8741966 177.31701,37.6379101 177.996471,37.5786461" id="Fill-7" fill="#000000"></path>
                            <path d="M116.650298,37.6856292 C117.293593,37.526309 118.410895,37.3908483 118.903369,37.5786461 C120.483136,38.1805225 119.539739,40.5156798 118.687912,41.0113427 C115.359092,42.9493539 113.023685,38.5838258 116.650298,37.6856292 L116.650298,37.6856292 Z M115.900044,39.9384326 C116.357892,40.8743427 120.013746,39.6782865 118.473993,38.6507865 C117.519824,38.0142753 115.304458,38.7200562 115.900044,39.9384326 L115.900044,39.9384326 Z" id="Fill-8" fill="#000000"></path>
                            <path d="M136.921014,37.7926124 C137.68281,37.8080056 138.809346,38.5599663 138.850129,39.4019775 C138.947085,41.3415281 134.442481,41.6670955 134.347064,39.6159438 C134.290122,38.412191 135.335092,37.7618258 136.921014,37.7926124 L136.921014,37.7926124 Z M137.670498,39.4019775 C137.692044,38.6500169 135.332783,38.4699157 135.526695,39.5089607 C135.669051,40.273236 137.650492,40.1447022 137.670498,39.4019775 L137.670498,39.4019775 Z" id="Fill-9" fill="#000000"></path>
                            <path d="M184.538688,37.6856292 C184.874956,37.9457753 184.946519,38.5091685 184.644878,38.8655225 C184.383251,39.1756966 183.637614,39.0587079 183.466017,38.7577697 C183.012017,37.9596292 183.829986,37.1368596 184.538688,37.6856292" id="Fill-10" fill="#000000"></path>
                            <path d="M104.400763,38.6669494 C106.092875,38.0296685 107.783447,39.2372697 107.724966,40.4910506 C107.600308,43.1594719 102.252342,43.4019157 103.005675,40.1685618 C103.033376,40.0569607 103.585871,38.9740449 104.400763,38.6669494 L104.400763,38.6669494 Z M104.508492,41.4562079 C105.906658,42.4967921 107.783447,39.4604719 105.472664,39.7398596 C104.45001,39.8637753 103.777475,40.9128258 104.508492,41.4562079 L104.508492,41.4562079 Z" id="Fill-11" fill="#000000"></path>
                            <path d="M126.839136,38.1143315 C128.498159,37.6979438 129.456176,38.2975112 129.627003,39.4019775 C130.043298,42.0773258 125.741071,42.3113034 125.230129,40.5818708 C124.809217,39.158764 125.948064,38.3383034 126.839136,38.1143315 L126.839136,38.1143315 Z M126.409759,40.1531685 C126.709861,41.2153034 129.9802,40.0338708 128.232685,38.9725056 C127.555532,38.560736 126.172756,39.307309 126.409759,40.1531685 L126.409759,40.1531685 Z" id="Fill-12" fill="#000000"></path>
                            <path d="M94.1280508,38.5438034 C97.0221085,38.5068596 96.5858068,43.3095562 93.2700678,43.0486404 C90.2552,42.8123539 91.0670136,38.5822865 94.1280508,38.5438034 L94.1280508,38.5438034 Z M92.6267729,40.259382 C91.5464068,42.0196011 95.0045017,43.1032865 94.8790746,40.5818708 C94.8444475,39.8860955 93.1354068,39.4312247 92.6267729,40.259382 L92.6267729,40.259382 Z" id="Fill-13" fill="#000000"></path>
                            <path d="M67.9599525,39.6159438 C69.5912746,39.2403483 71.5242373,39.999236 71.8204915,41.225309 C72.7969763,45.2606517 66.0716203,45.4884719 65.922339,41.9765 C65.8761695,40.8974326 66.5202339,39.9476685 67.9599525,39.6159438 L67.9599525,39.6159438 Z M70.640861,42.5129551 C71.1140983,40.9174438 69.3842814,40.1146854 68.1738712,40.4748876 C64.9043017,41.4485112 69.7713356,45.4461404 70.640861,42.5129551 L70.640861,42.5129551 Z" id="Fill-14" fill="#000000"></path>
                            <path d="M81.4737627,39.7236966 C82.9542644,39.5582191 84.4978644,40.0808202 84.6910068,41.4400449 C84.9226237,43.0709607 83.352861,44.2108315 82.3309763,44.3362865 C79.0029254,44.7457472 77.8240644,40.131618 81.4737627,39.7236966 L81.4737627,39.7236966 Z M82.5456644,43.1563933 C84.1985322,42.6037753 83.4136508,40.0354101 81.1513458,40.7958371 C79.3284203,41.4100281 81.0036034,43.6720674 82.5456644,43.1563933 L82.5456644,43.1563933 Z" id="Fill-15" fill="#000000"></path>
                            <path d="M53.1595525,39.8314494 C55.1940881,39.3173146 57.3909864,39.6159438 57.4502373,41.4400449 C57.564122,44.9889607 52.7224814,45.5754438 51.7652339,42.7269213 C51.2704508,41.2545562 51.8675763,40.1570169 53.1595525,39.8314494 L53.1595525,39.8314494 Z M52.8386746,41.0113427 C52.2746373,41.8356517 53.2795932,43.408073 53.9105763,43.5850955 C55.4295525,44.0122584 57.387139,42.4044326 56.3775661,41.0113427 C55.8827831,40.3286517 53.2441966,40.4156236 52.8386746,41.0113427 L52.8386746,41.0113427 Z" id="Fill-16" fill="#000000"></path>
                        </g>
                    </g>
                </g>
            </g>
        </g>
    </g>
</svg>