<?xml version="1.0" encoding="UTF-8" standalone="no"?>
<svg width="166px" height="245px" viewBox="0 0 166 245" version="1.1" xmlns="http://www.w3.org/2000/svg" xmlns:xlink="http://www.w3.org/1999/xlink" xmlns:sketch="http://www.bohemiancoding.com/sketch/ns">
    <!-- Generator: Sketch 3.3.3 (12081) - http://www.bohemiancoding.com/sketch -->
    <title>tree3</title>
    <desc>Created with Sketch.</desc>
    <defs></defs>
    <g id="Page-1" stroke="none" stroke-width="1" fill="none" fill-rule="evenodd" sketch:type="MSPage">
        <g id="HIGH-RES-DESKTOP" sketch:type="MSArtboardGroup" transform="translate(-1600.000000, -1765.000000)">
            <g id="FOOTER" sketch:type="MSLayerGroup" transform="translate(-287.000000, 1533.000000)">
                <g id="TREES" transform="translate(569.000000, 232.000000)" sketch:type="MSShapeGroup">
                    <g id="tree3" transform="translate(1318.000000, 0.500000)">
                        <path d="M143.658867,106.195361 C143.658867,81.7020672 126.260217,61.2624538 103.118378,56.4988151 C106.853635,51.0077899 109.037331,44.3813445 109.037331,37.2453697 C109.037331,18.2820588 93.6245139,2.90852101 74.6116037,2.90852101 C55.5992074,2.90852101 40.1863901,18.2820588 40.1863901,37.2453697 C40.1863901,40.9827731 40.7928297,44.5766471 41.899839,47.9449748 C29.276644,54.3187059 20.6179195,67.3706555 20.6179195,82.447395 C20.6179195,89.9483445 22.7661548,96.9454034 26.4726316,102.873168 C12.5466192,109.837933 2.98183282,124.199076 2.98183282,140.796202 C2.98183282,164.217639 22.01787,183.204529 45.5004458,183.204529 C56.9971022,183.204529 67.4211827,178.64542 75.0741424,171.25058 C76.9212136,179.306681 84.1450402,185.318513 92.7816656,185.318513 C102.8167,185.318513 110.952241,177.204487 110.952241,167.195361 C110.952241,162.555261 109.201789,158.324731 106.326854,155.118899 C127.849808,149.20395 143.658867,129.542471 143.658867,106.195361" id="Fill-1" fill="#DFEF9E"></path>
                        <path d="M92.7821796,187.881538 C84.456483,187.881538 77.1699567,183.04921 73.8802786,175.732286 C65.8655108,182.230067 55.9291517,185.767555 45.5004458,185.767555 C20.6389907,185.767555 0.412687307,165.593471 0.412687307,140.796202 C0.412687307,124.584555 8.97068111,109.907134 22.9239319,101.87 C19.7272755,95.9125042 18.0482601,89.2517143 18.0482601,82.4479076 C18.0482601,67.5398151 25.9617833,54.0234454 38.8450279,46.6762773 C38.029418,43.5996218 37.6167307,40.4368487 37.6167307,37.2453697 C37.6167307,16.8990504 54.2126192,0.345495798 74.6116037,0.345495798 C95.0111022,0.345495798 111.606991,16.8990504 111.606991,37.2453697 C111.606991,43.4417395 110.071876,49.4556218 107.139895,54.8343866 C129.99239,61.1824874 146.228526,82.2321008 146.228526,106.195361 C146.228526,128.874546 131.722799,149.054269 110.528248,156.49063 C112.47605,159.698513 113.521901,163.391832 113.521901,167.195361 C113.521901,178.601849 104.218192,187.881538 92.7821796,187.881538 L92.7821796,187.881538 Z M75.0741424,168.687555 C75.3177461,168.687555 75.5634056,168.721899 75.8044396,168.793151 C76.6935418,169.05663 77.3724458,169.77684 77.5790464,170.679025 C79.2097523,177.789882 85.4617337,182.755487 92.7821796,182.755487 C101.384372,182.755487 108.382582,175.775345 108.382582,167.195361 C108.382582,163.365176 106.972353,159.683647 104.411944,156.827412 C103.818867,156.166664 103.610724,155.246538 103.862037,154.395613 C104.112836,153.544689 104.787115,152.883941 105.644353,152.648143 C126.513585,146.912605 141.089207,127.810378 141.089207,106.195361 C141.089207,83.4444118 124.901895,63.5999328 102.598793,59.009042 C101.759028,58.8362941 101.060594,58.2560252 100.737331,57.4630252 C100.415096,56.6700252 100.510173,55.7683529 100.991728,55.0599328 C104.573833,49.7934286 106.467672,43.6334538 106.467672,37.2453697 C106.467672,19.725042 92.1772817,5.47154622 74.6116037,5.47154622 C57.0464396,5.47154622 42.7560495,19.725042 42.7560495,37.2453697 C42.7560495,40.6131849 43.2895108,43.944605 44.3415294,47.1468487 C44.736743,48.3499328 44.1924892,49.6601513 43.0608111,50.2317059 C30.8025077,56.4214118 23.1875789,68.7654538 23.1875789,82.4479076 C23.1875789,89.2050672 25.0773065,95.7987059 28.6532446,101.516303 C29.0356099,102.128353 29.1425077,102.872655 28.9466997,103.566723 C28.7508916,104.261303 28.2708793,104.840546 27.6248669,105.164 C14.0092693,111.973445 5.55149226,125.627193 5.55149226,140.796202 C5.55149226,162.766966 23.4728111,180.641504 45.5004458,180.641504 C55.9224706,180.641504 65.7899628,176.652924 73.2856594,169.409815 C73.7723529,168.939756 74.4157957,168.687555 75.0741424,168.687555 L75.0741424,168.687555 Z" id="Fill-2" fill="#A3BF5E"></path>
                        <path d="M73.0841981,243.060908 C71.6647183,243.060908 70.5140248,241.913697 70.5140248,240.497882 L70.5140248,195.901244 C70.5140248,195.191798 70.8090217,194.514647 71.3286068,194.029723 L84.0499628,182.155739 C85.0865635,181.189479 86.71213,181.24279 87.6824334,182.276714 C88.651709,183.309613 88.5977461,184.931496 87.5616594,185.899294 L75.6533437,197.013084 L75.6533437,240.497882 C75.6533437,241.913697 74.5031641,243.060908 73.0841981,243.060908" id="Fill-3" fill="#A3BF5E"></path>
                        <path d="M73.3185511,211.279908 C72.926935,211.279908 72.5301796,211.190202 72.157065,211.001563 L55.4542786,202.54358 C54.7897647,202.207311 54.304613,201.599361 54.1242229,200.878126 L49.7301053,183.29321 C49.3867988,181.919429 50.2250217,180.529244 51.6023591,180.186824 C52.9745573,179.842353 54.3739938,180.680462 54.7167864,182.053731 L58.8272136,198.502714 L74.4841486,206.431176 C75.748935,207.071933 76.25413,208.614361 75.6117152,209.876908 C75.1584272,210.76679 74.2554489,211.279908 73.3185511,211.279908" id="Fill-4" fill="#A3BF5E"></path>
                        <path d="M41.9054923,50.5059496 C41.0292384,50.5059496 40.1755975,50.0599832 39.6945573,49.2557059 C38.9693994,48.0413445 39.3635851,46.4722605 40.5800619,45.7464118 C40.9989164,45.4957479 50.9820433,39.6407731 63.1534923,41.4646218 C64.5570402,41.6747899 65.5237461,42.9798824 65.3125201,44.3798067 C65.102322,45.7797311 63.7897399,46.7449664 62.3903034,46.5337731 C52.0849412,44.9908319 43.3028731,50.0948403 43.2155046,50.1471261 C42.8038452,50.3901008 42.3515851,50.5059496 41.9054923,50.5059496" id="Fill-5" fill="#A3BF5E"></path>
                        <path d="M26.4823963,105.430555 C25.5974056,105.430555 24.7360557,104.976899 24.2596409,104.161857 C23.5463034,102.943908 23.9481981,101.383538 25.1657028,100.665891 C25.4452817,100.501345 32.1320495,96.6455294 42.1927802,97.7973529 C43.6024954,97.9588235 44.6144272,99.2295714 44.4530526,100.63616 C44.2901362,102.042235 43.0130155,103.050529 41.6068978,102.890084 C33.3423591,101.94484 27.8232446,105.054815 27.7687678,105.086084 C27.3632755,105.319319 26.9197523,105.430555 26.4823963,105.430555" id="Fill-6" fill="#A3BF5E"></path>
                        <path d="M103.911375,155.992378 C103.850217,155.834496 102.334632,152.08479 95.4592508,149.228042 C94.1492384,148.683655 93.5294365,147.182748 94.0757461,145.87663 C94.6210279,144.57 96.1268483,143.950773 97.4353189,144.496185 C106.467158,148.249479 108.550638,153.683605 108.75878,154.291042 L103.895443,155.947269 L103.911375,155.992378" id="Fill-7" fill="#A3BF5E"></path>
                        <path d="M69.3823467,92.0136303 C69.1803715,92.0136303 68.9758266,91.9900504 68.7712817,91.9403277 C67.3929164,91.605084 66.5474985,90.2184874 66.8836099,88.8426555 C70.5335542,73.9181597 82.6859876,66.9959412 83.2014613,66.7088824 C84.4415789,66.0178908 86.0065015,66.4607815 86.6982539,67.6961597 C87.3900062,68.93 86.9490526,70.4888319 85.7140743,71.1803361 C85.5701734,71.2623529 74.9759814,77.3859328 71.8764582,90.0575294 C71.5907121,91.2288319 70.5397214,92.0136303 69.3823467,92.0136303" id="Fill-8" fill="#A3BF5E"></path>
                        <path d="M73.5806563,81.0044118 C73.4860929,81.0044118 73.3915294,80.9992857 73.2959381,80.988521 C72.8976409,80.9449496 63.4659628,79.8095294 56.3706192,70.4970336 C55.511839,69.3698151 55.7318019,67.7617731 56.8614241,66.9052101 C57.9920743,66.0491597 59.6042786,66.2690672 60.462031,67.3952605 C66.1713003,74.888521 73.560613,75.8573445 73.8715418,75.8952773 C75.2756037,76.064437 76.2854799,77.3336471 76.1235913,78.7345966 C75.9719814,80.0402017 74.8675418,81.0044118 73.5806563,81.0044118" id="Fill-9" fill="#A3BF5E"></path>
                        <path d="M94.7320372,128.279924 C93.5890526,128.279924 92.5462848,127.514092 92.2466625,126.359193 C89.7972632,116.929824 81.5013746,111.858622 81.4176037,111.808899 C80.2011269,111.07895 79.8089969,109.504227 80.5408359,108.290891 C81.272161,107.07858 82.8519876,106.68695 84.0669226,107.416387 C84.4821796,107.665513 94.2515108,113.639924 97.2215232,125.07358 C97.577678,126.443773 96.7517895,127.84216 95.3785635,128.197395 C95.1627121,128.253269 94.944805,128.279924 94.7320372,128.279924" id="Fill-10" fill="#A3BF5E"></path>
                        <path d="M90.983418,120.227924 C89.7191455,120.227924 88.6183034,119.297546 88.4409969,118.013471 C88.2482724,116.610983 89.2314241,115.318193 90.6365139,115.125454 C93.1424458,114.781496 100.294322,113.464613 103.261765,111.524403 C104.447406,110.748319 106.041622,111.078437 106.819201,112.262555 C107.597294,113.446672 107.266322,115.035235 106.079139,115.811319 C101.611015,118.732143 92.3741176,120.06184 91.3349474,120.203832 C91.216743,120.220235 91.0990526,120.227924 90.983418,120.227924" id="Fill-11" fill="#A3BF5E"></path>
                        <path d="M97.6465449,243.602218 L12.8472693,243.602218 C11.4283034,243.602218 10.2781238,242.454496 10.2781238,241.039193 C10.2781238,239.623378 11.4283034,238.476168 12.8472693,238.476168 L97.6465449,238.476168 C99.0660248,238.476168 100.216204,239.623378 100.216204,241.039193 C100.216204,242.454496 99.0660248,243.602218 97.6465449,243.602218" id="Fill-12" fill="#A3BF5E"></path>
                        <path d="M163.429827,243.602218 L119.231684,243.602218 C117.812204,243.602218 116.662025,242.454496 116.662025,241.039193 C116.662025,239.623378 117.812204,238.476168 119.231684,238.476168 L163.429827,238.476168 C164.848793,238.476168 165.999486,239.623378 165.999486,241.039193 C165.999486,242.454496 164.848793,243.602218 163.429827,243.602218" id="Fill-13" fill="#A3BF5E"></path>
                    </g>
                </g>
            </g>
        </g>
    </g>
</svg>