<?xml version="1.0" encoding="UTF-8" standalone="no"?>
<svg width="178px" height="203px" viewBox="0 0 178 203" version="1.1" xmlns="http://www.w3.org/2000/svg" xmlns:xlink="http://www.w3.org/1999/xlink" xmlns:sketch="http://www.bohemiancoding.com/sketch/ns">
    <!-- Generator: Sketch 3.3.3 (12081) - http://www.bohemiancoding.com/sketch -->
    <title>tree2</title>
    <desc>Created with Sketch.</desc>
    <defs></defs>
    <g id="Page-1" stroke="none" stroke-width="1" fill="none" fill-rule="evenodd" sketch:type="MSPage">
        <g id="HIGH-RES-DESKTOP" sketch:type="MSArtboardGroup" transform="translate(-521.000000, -2071.000000)">
            <g id="FOOTER" sketch:type="MSLayerGroup" transform="translate(-287.000000, 1533.000000)">
                <g id="TREES" transform="translate(569.000000, 232.000000)" sketch:type="MSShapeGroup">
                    <g id="tree2" transform="translate(239.000000, 306.500000)">
                        <path d="M88.7417252,201.805044 C87.5967857,201.805044 86.6683107,200.875757 86.6683107,199.729817 L86.6683107,157.810229 C86.6683107,156.663874 87.5967857,155.735002 88.7417252,155.735002 C89.8866647,155.735002 90.8151397,156.663874 90.8151397,157.810229 L90.8151397,199.729817 C90.8151397,200.875757 89.8866647,201.805044 88.7417252,201.805044" id="Fill-1" fill="#A3BF5E"></path>
                        <path d="M128.759454,76.5684089 C129.115252,74.6633505 129.308909,72.7097317 129.308909,70.7154384 C129.308909,60.8639204 124.795086,51.9483297 117.503302,45.5047496 C117.684103,44.3521685 117.784457,43.1767599 117.784457,41.9797689 C117.784457,35.0563962 114.653601,28.7833998 109.583688,24.206694 C109.852402,23.0229844 109.994638,21.7990155 109.994638,20.5447482 C109.994638,10.3541381 100.682519,2.09307405 89.1949736,2.09307405 C77.707428,2.09307405 68.3953089,10.3541381 68.3953089,20.5447482 C68.3953089,21.7990155 68.5375451,23.0229844 68.8062596,24.206694 C63.7363466,28.7833998 60.6054907,35.0563962 60.6054907,41.9797689 C60.6054907,43.1767599 60.7058439,44.3521685 60.8866457,45.5047496 C53.5948616,51.9483297 49.0810383,60.8639204 49.0810383,70.7154384 C49.0810383,72.5657109 49.2406912,74.3827798 49.5475566,76.1566839 C40.0517329,84.8879943 34.2088509,96.7670093 34.2088509,109.857542 C34.2088509,136.668646 58.7095605,158.403329 88.9324794,158.403329 C119.155398,158.403329 143.655693,136.668646 143.655693,109.857542 C143.655693,96.9716267 137.994028,85.25946 128.759454,76.5684089" id="Fill-2" fill="#DFEF9E"></path>
                        <path d="M88.9324794,160.478556 C57.6143829,160.478556 32.1354364,137.770176 32.1354364,109.857542 C32.1354364,96.9844931 37.5225819,84.7875534 47.3306618,75.3925853 C47.115856,73.845711 47.0076238,72.2768393 47.0076238,70.7154384 C47.0076238,60.9340631 51.1457444,51.7374867 58.6867529,44.7003916 C58.5839116,43.7839713 58.5320762,42.8729466 58.5320762,41.9801839 C58.5320762,35.072168 61.37141,28.5443336 66.5545315,23.476214 C66.3998548,22.5062529 66.3214797,21.5242554 66.3214797,20.5447482 C66.3214797,9.22604461 76.582808,0.017846953 89.1949736,0.017846953 C101.807554,0.017846953 112.068053,9.22604461 112.068053,20.5447482 C112.068053,21.5246705 111.990092,22.5062529 111.835416,23.476214 C117.018537,28.5443336 119.857871,35.072168 119.857871,41.9801839 C119.857871,42.8725316 119.806036,43.7835563 119.703194,44.7003916 C127.244203,51.7374867 131.382323,60.9340631 131.382323,70.7154384 C131.382323,72.4050883 131.25004,74.1217162 130.987545,75.8325334 C140.503688,85.1656597 145.729108,97.2057123 145.729108,109.857542 C145.729108,137.770176 120.250161,160.478556 88.9324794,160.478556 L88.9324794,160.478556 Z M89.1949736,4.16830114 C78.8693695,4.16830114 70.4683087,11.5146051 70.4683087,20.5447482 C70.4683087,21.6184707 70.5893961,22.6959286 70.8282535,23.7472387 C70.9945413,24.4793788 70.7523665,25.2447225 70.1950327,25.7477576 C65.348219,30.1231664 62.6789052,35.8881473 62.6789052,41.9801839 C62.6789052,43.022778 62.7647445,44.1002359 62.9347645,45.1826744 C63.0446555,45.883271 62.7896255,46.5909235 62.2588314,47.0603398 C55.0980871,53.3885373 51.1544528,61.7894717 51.1544528,70.7154384 C51.1544528,72.4175397 51.3012505,74.129187 51.5906992,75.8026501 C51.7109572,76.4982663 51.4696118,77.2071638 50.9504288,77.6848811 C41.4915119,86.3825729 36.2822654,97.8083582 36.2822654,109.857542 C36.2822654,135.481616 59.9009444,156.328102 88.9324794,156.328102 C117.9636,156.328102 141.582279,135.481616 141.582279,109.857542 C141.582279,98.0096553 136.523977,86.7241553 127.339165,78.0800043 C126.824129,77.5956463 126.591492,76.8817682 126.721288,76.1869822 C127.062572,74.3591222 127.235494,72.5183957 127.235494,70.7154384 C127.235494,61.7890566 123.29186,53.3885373 116.131116,47.0603398 C115.599907,46.5909235 115.345292,45.883271 115.455183,45.1826744 C115.624788,44.0994058 115.711042,43.0219479 115.711042,41.9801839 C115.711042,35.8881473 113.041728,30.1231664 108.194915,25.7477576 C107.637581,25.2447225 107.395406,24.4793788 107.562108,23.7472387 C107.800551,22.6963437 107.921224,21.6188858 107.921224,20.5447482 C107.921224,11.5146051 99.5209924,4.16830114 89.1949736,4.16830114 L89.1949736,4.16830114 Z" id="Fill-3" fill="#A3BF5E"></path>
                        <path d="M128.759454,76.5684089 C128.759454,76.5684089 124.300784,71.8024424 111.694424,69.1619234" id="Fill-4" fill="#DFEF9E"></path>
                        <path d="M128.759869,78.643221 C128.211243,78.643221 127.664277,78.4269823 127.257058,77.9986554 C127.168316,77.9081755 122.856443,73.6203413 111.269788,71.1931557 C110.148486,70.958655 109.430255,69.8587847 109.664551,68.7369169 C109.899261,67.6150492 110.998171,66.8957754 112.118644,67.1311062 C125.215989,69.8741414 130.07234,74.9356203 130.273047,75.1497837 C131.055553,75.9865153 131.012426,77.299719 130.176426,78.0829097 C129.776671,78.4576957 129.267441,78.643221 128.759869,78.643221" id="Fill-5" fill="#A3BF5E"></path>
                        <path d="M60.8866457,45.5047496 C60.8866457,45.5047496 65.4701357,41.0479919 75.2753128,38.5626999" id="Fill-6" fill="#DFEF9E"></path>
                        <path d="M60.8866457,47.5799767 C60.3458992,47.5799767 59.8059821,47.3695487 59.3991781,46.9507679 C58.6013282,46.1285629 58.6204037,44.8149441 59.4418905,44.0163967 C59.6450851,43.8184201 64.5408314,39.1425184 74.7660822,36.5509748 C75.8757737,36.269574 77.0041258,36.9423626 77.2852808,38.0530242 C77.5664358,39.1641008 76.8942349,40.2930243 75.7841288,40.5744251 C66.6225395,42.8966042 62.3728692,46.952428 62.3309862,46.9931025 C61.9283291,47.3849054 61.4070727,47.5799767 60.8866457,47.5799767" id="Fill-7" fill="#A3BF5E"></path>
                        <path d="M109.583688,24.206694 C109.583688,24.206694 105.390829,19.7681982 97.1618614,16.3511293" id="Fill-8" fill="#DFEF9E"></path>
                        <path d="M109.584102,26.281921 C109.035062,26.281921 108.487681,26.0652673 108.080047,25.6356953 C108.012869,25.5655527 104.005373,21.4395861 96.367329,18.2678091 C95.3094729,17.828691 94.8077066,16.6142681 95.2464411,15.5554872 C95.6851757,14.4971214 96.8981231,13.9949165 97.9563939,14.4340345 C106.495544,17.9801826 110.906941,22.5867717 111.090231,22.781428 C111.876884,23.6140091 111.840392,24.9272128 111.008123,25.714554 C110.60754,26.0939055 110.095406,26.281921 109.584102,26.281921" id="Fill-9" fill="#A3BF5E"></path>
                        <path d="M81.8409871,80.2482016 C81.8409871,80.2482016 64.7423673,82.5413275 60.8866457,99.2888252" id="Fill-10" fill="#DFEF9E"></path>
                        <path d="M60.8883044,101.364467 C60.7340424,101.364467 60.5772922,101.347035 60.4205421,101.310927 C59.3050451,101.053598 58.6087925,99.9396165 58.8658959,98.8227292 C60.5772922,91.3888507 65.0488179,85.460342 71.796538,81.677618 C76.8407408,78.8499136 81.3752982,78.2165543 81.5656377,78.1912365 C82.7002101,78.0380848 83.743967,78.8362171 83.8961556,79.9726115 C84.0479295,81.1069306 83.2533971,82.1503548 82.1204834,82.3043366 C81.47109,82.3948165 66.3824381,84.6593043 62.9069808,99.7549212 C62.6859548,100.714506 61.8321227,101.364467 60.8883044,101.364467" id="Fill-11" fill="#A3BF5E"></path>
                        <path d="M70.8203745,82.5413275 C70.8203745,82.5413275 69.2346271,70.8706654 78.9523061,63.8808855" id="Fill-12" fill="#DFEF9E"></path>
                        <path d="M70.8178864,84.6169697 C69.7965224,84.6169697 68.9074423,83.8620021 68.7656207,82.8210682 C68.6942953,82.2939605 67.1338435,69.8259961 77.7418467,62.1953861 C78.6723951,61.5263329 79.9674498,61.7392512 80.635504,62.669783 C81.3039728,63.6003148 81.0920698,64.8969167 80.1619361,65.566385 C71.5564366,71.7559573 72.8606143,82.1574105 72.8751282,82.2615869 C73.0293903,83.3975662 72.2344432,84.4430657 71.0998707,84.5974626 C71.0049084,84.610329 70.9107753,84.6169697 70.8178864,84.6169697" id="Fill-13" fill="#A3BF5E"></path>
                        <path d="M111.694424,116.769708 C111.694424,116.769708 116.499769,130.516012 103.372567,138.204729" id="Fill-14" fill="#DFEF9E"></path>
                        <path d="M103.374641,140.280371 C102.662215,140.280371 101.968866,139.913056 101.58321,139.253134 C101.004728,138.26408 101.336889,136.992381 102.325493,136.413808 C113.773229,129.708749 109.905067,117.946362 109.735047,117.448307 C109.364735,116.366699 109.937412,115.185895 111.016832,114.811939 C112.098325,114.437568 113.274365,115.00535 113.651312,116.084053 C113.705221,116.238035 118.853924,131.54159 104.419642,139.996065 C104.090798,140.188646 103.730024,140.280371 103.374641,140.280371" id="Fill-15" fill="#A3BF5E"></path>
                        <path d="M112.384456,125.19015 C112.384456,125.19015 123.675442,124.924106 128.759454,118.400422" id="Fill-16" fill="#DFEF9E"></path>
                        <path d="M112.383212,127.265377 C111.26108,127.265377 110.337996,126.368049 110.311456,125.23871 C110.284502,124.094015 111.18934,123.143561 112.332621,123.115753 C112.436291,123.112847 122.71628,122.780396 127.124359,117.124157 C127.828906,116.221018 129.131425,116.05915 130.034604,116.764313 C130.937369,117.46906 131.09868,118.773132 130.394134,119.677101 C124.771034,126.892666 112.934325,127.252925 112.432974,127.264962 C112.416386,127.265377 112.399799,127.265377 112.383212,127.265377" id="Fill-17" fill="#A3BF5E"></path>
                        <path id="Fill-20" fill="#F4FFD2" d="M107.962692,199.729817 L2.4876827,199.729817"></path>
                        <path d="M107.962277,201.805044 L2.4876827,201.805044 C1.34274322,201.805044 0.414268214,200.875757 0.414268214,199.729817 C0.414268214,198.583461 1.34274322,197.654589 2.4876827,197.654589 L107.962277,197.654589 C109.107632,197.654589 110.035692,198.583461 110.035692,199.729817 C110.035692,200.875757 109.107632,201.805044 107.962277,201.805044" id="Fill-21" fill="#A3BF5E"></path>
                        <path id="Fill-22" fill="#F4FFD2" d="M174.995768,199.729817 L132.765706,199.729817"></path>
                        <path d="M174.995768,201.805044 L132.765706,201.805044 C131.620766,201.805044 130.692291,200.875757 130.692291,199.729817 C130.692291,198.583461 131.620766,197.654589 132.765706,197.654589 L174.995768,197.654589 C176.140707,197.654589 177.069182,198.583461 177.069182,199.729817 C177.069182,200.875757 176.140707,201.805044 174.995768,201.805044" id="Fill-23" fill="#A3BF5E"></path>
                    </g>
                </g>
            </g>
        </g>
    </g>
</svg>