<?xml version="1.0" encoding="UTF-8" standalone="no"?>
<svg width="202px" height="179px" viewBox="0 0 202 179" version="1.1" xmlns="http://www.w3.org/2000/svg" xmlns:xlink="http://www.w3.org/1999/xlink" xmlns:sketch="http://www.bohemiancoding.com/sketch/ns">
    <!-- Generator: Sketch 3.3.3 (12081) - http://www.bohemiancoding.com/sketch -->
    <title>tree1</title>
    <desc>Created with Sketch.</desc>
    <defs></defs>
    <g id="Page-1" stroke="none" stroke-width="1" fill="none" fill-rule="evenodd" sketch:type="MSPage">
        <g id="HIGH-RES-DESKTOP" sketch:type="MSArtboardGroup" transform="translate(-282.000000, -1792.000000)">
            <g id="FOOTER" sketch:type="MSLayerGroup" transform="translate(-287.000000, 1533.000000)">
                <g id="TREES" transform="translate(569.000000, 232.000000)" sketch:type="MSShapeGroup">
                    <g id="tree1" transform="translate(0.000000, 27.500000)">
                        <path d="M71.3803242,176.611306 C70.3640692,176.611306 69.5406157,175.787872 69.5406157,174.772463 L69.5406157,54.7467686 C69.5406157,53.830657 70.2150528,53.0546653 71.1220291,52.9259463 C71.3339636,52.8954215 92.6664882,49.593595 104.347902,28.8371033 C104.845727,27.9518843 105.967213,27.6374421 106.853217,28.1357686 C107.738852,28.6337273 108.053075,29.754686 107.554514,30.639905 C100.972404,42.3367851 91.5858434,48.7580248 84.871275,52.0848595 C79.7664517,54.6140041 75.4372495,55.7827727 73.2200328,56.2678595 L73.2200328,174.772463 C73.2200328,175.787872 72.3962113,176.611306 71.3803242,176.611306" id="Fill-1" fill="#A3BF5E"></path>
                        <path d="M66.5963461,71.4004339 C63.7569399,71.4004339 59.8880328,71.1415248 55.5702368,70.1356777 C47.4935483,68.2545413 36.2853078,63.2937107 28.7553807,50.3442107 C28.2446776,49.4659793 28.5430783,48.3406074 29.4213552,47.8305124 C30.3007359,47.3196818 31.4259016,47.6183099 31.9366047,48.4961736 C45.0927286,71.1220331 70.6440729,67.5138554 70.8990565,67.4745041 C71.9094244,67.3244545 72.8417887,68.0114463 72.9952204,69.0150868 C73.1482842,70.0194628 72.4580255,70.956905 71.4539126,71.1102645 C71.3078397,71.1323306 69.4846885,71.4004339 66.5963461,71.4004339" id="Fill-2" fill="#A3BF5E"></path>
                        <path d="M85.3415046,51.3044545 C84.9386084,51.3044545 84.5331366,51.1724256 84.1942623,50.9006446 C83.8351512,50.6126818 75.4085501,43.7067231 75.9924736,31.3051983 C76.040306,30.2908926 76.8950346,29.5152686 77.9164408,29.5546198 C78.931224,29.6024298 79.7153078,30.4637438 79.6674754,31.4780496 C79.1740656,41.9576157 86.2017523,47.7926322 86.5012568,48.0357273 C87.2879162,48.6745413 87.4111767,49.8311736 86.7742696,50.6196694 C86.4103752,51.070186 85.8783315,51.3044545 85.3415046,51.3044545" id="Fill-3" fill="#A3BF5E"></path>
                        <path d="M49.0863679,67.9025868 C48.5561639,67.9025868 48.0307432,67.674938 47.6664809,67.234719 C47.0236867,66.4568884 47.128918,65.3076116 47.8982842,64.6585 C48.107275,64.475719 52.2020984,60.7428678 50.9978251,50.8719587 C50.8745647,49.863905 51.5924189,48.9470579 52.6013151,48.8238554 C53.6164663,48.7024917 54.52749,49.418905 54.6500146,50.4265909 C56.1217814,62.4868264 50.4970565,67.2828967 50.2571585,67.4814917 C49.9138689,67.7646736 49.4988306,67.9025868 49.0863679,67.9025868" id="Fill-4" fill="#A3BF5E"></path>
                        <path d="M71.3803242,56.7187438 C70.3640692,56.7187438 69.5406157,55.8953099 69.5406157,54.8799008 L69.5406157,46.7889917 C69.5406157,45.7732149 70.3640692,44.9501488 71.3803242,44.9501488 C72.3962113,44.9501488 73.2200328,45.7732149 73.2200328,46.7889917 L73.2200328,54.8799008 C73.2200328,55.8953099 72.3962113,56.7187438 71.3803242,56.7187438" id="Fill-5" fill="#A3BF5E"></path>
                        <path d="M72.0124481,134.176694 C71.0771403,134.176694 70.277235,133.466901 70.1837778,132.517322 C70.0844335,131.506694 70.8239964,130.606764 71.8351002,130.507467 C72.1791257,130.472897 99.4509654,127.521921 106.011734,108.040851 C106.335523,107.077665 107.381213,106.559847 108.341909,106.884955 C109.304812,107.208959 109.822874,108.251583 109.49835,109.214033 C106.445905,118.278058 98.9936138,125.472347 87.9465319,130.01907 C79.7348087,133.399231 72.4984991,134.138079 72.1942113,134.167868 C72.1335009,134.173752 72.0727905,134.176694 72.0124481,134.176694" id="Fill-6" fill="#A3BF5E"></path>
                        <path d="M67.9194645,127.35569 C65.3556466,127.35569 61.6000656,127.115169 57.3959636,126.067397 C47.2437158,123.536781 39.3377523,117.464186 34.5320656,108.506079 C34.0515337,107.61093 34.3882004,106.496591 35.2841384,106.017021 C36.1782368,105.53745 37.2945719,105.873223 37.7747359,106.768372 C48.1930055,126.189864 70.7169253,123.56326 70.9443133,123.534574 C71.9535774,123.406591 72.8730638,124.119326 73.0014754,125.126645 C73.1298871,126.134331 72.416816,127.054855 71.4086557,127.182839 C71.293122,127.19755 69.9979672,127.35569 67.9194645,127.35569" id="Fill-7" fill="#A3BF5E"></path>
                        <path d="M121.668758,15.821405 C121.668758,23.5018843 115.439505,29.7285744 107.755042,29.7285744 C100.070947,29.7285744 93.841694,23.5018843 93.841694,15.821405 C93.841694,8.14055785 100.070947,1.91423554 107.755042,1.91423554 C115.439505,1.91423554 121.668758,8.14055785 121.668758,15.821405" id="Fill-8" fill="#DFEF9E"></path>
                        <path d="M107.755042,31.5670496 C99.068674,31.5670496 92.0019854,24.503686 92.0019854,15.821405 C92.0019854,7.13912397 99.068674,0.075392562 107.755042,0.075392562 C116.44141,0.075392562 123.508466,7.13912397 123.508466,15.821405 C123.508466,24.503686 116.44141,31.5670496 107.755042,31.5670496 L107.755042,31.5670496 Z M107.755042,3.75307851 C101.097505,3.75307851 95.6810346,9.167 95.6810346,15.821405 C95.6810346,22.4758099 101.097505,27.8893636 107.755042,27.8893636 C114.412947,27.8893636 119.829049,22.4758099 119.829049,15.821405 C119.829049,9.167 114.412947,3.75307851 107.755042,3.75307851 L107.755042,3.75307851 Z" id="Fill-9" fill="#A3BF5E"></path>
                        <path d="M40.2307468,36.7183843 C40.2307468,43.7585785 34.5206594,49.4663471 27.4764153,49.4663471 C20.4325392,49.4663471 14.7224517,43.7585785 14.7224517,36.7183843 C14.7224517,29.6774545 20.4325392,23.9700537 27.4764153,23.9700537 C34.5206594,23.9700537 40.2307468,29.6774545 40.2307468,36.7183843" id="Fill-10" fill="#DFEF9E"></path>
                        <path d="M27.4764153,51.3051901 C19.4291621,51.3051901 12.8823752,44.7614835 12.8823752,36.7180165 C12.8823752,28.6749174 19.4291621,22.1312107 27.4764153,22.1312107 C35.5236685,22.1312107 42.0700874,28.6749174 42.0700874,36.7180165 C42.0700874,44.7614835 35.5236685,51.3051901 27.4764153,51.3051901 L27.4764153,51.3051901 Z M27.4764153,25.8088967 C21.4583607,25.8088967 16.5617923,30.7027934 16.5617923,36.7180165 C16.5617923,42.7336074 21.4583607,47.6275041 27.4764153,47.6275041 C33.4948379,47.6275041 38.3910383,42.7336074 38.3910383,36.7180165 C38.3910383,30.7027934 33.4948379,25.8088967 27.4764153,25.8088967 L27.4764153,25.8088967 Z" id="Fill-11" fill="#A3BF5E"></path>
                        <path d="M82.7265428,26.4745579 C82.7265428,29.4185455 80.338969,31.8049959 77.3935956,31.8049959 C74.4482222,31.8049959 72.0606485,29.4185455 72.0606485,26.4745579 C72.0606485,23.5305702 74.4482222,21.1441198 77.3935956,21.1441198 C80.338969,21.1441198 82.7265428,23.5305702 82.7265428,26.4745579" id="Fill-12" fill="#DFEF9E"></path>
                        <path d="M77.3932277,33.6442066 C73.4382222,33.6442066 70.2205719,30.4277025 70.2205719,26.4745579 C70.2205719,22.5214132 73.4382222,19.3052769 77.3932277,19.3052769 C81.3482332,19.3052769 84.5662514,22.5214132 84.5662514,26.4745579 C84.5662514,30.4277025 81.3482332,33.6442066 77.3932277,33.6442066 L77.3932277,33.6442066 Z M77.3932277,22.9829628 C75.4670528,22.9829628 73.8999891,24.549657 73.8999891,26.4745579 C73.8999891,28.3998264 75.4670528,29.9661529 77.3932277,29.9661529 C79.3197705,29.9661529 80.8868342,28.3998264 80.8868342,26.4745579 C80.8868342,24.549657 79.3197705,22.9829628 77.3932277,22.9829628 L77.3932277,22.9829628 Z" id="Fill-13" fill="#A3BF5E"></path>
                        <path d="M58.1303752,45.3226983 C58.1303752,48.266686 55.7428015,50.6531364 52.7974281,50.6531364 C49.8520546,50.6531364 47.4644809,48.266686 47.4644809,45.3226983 C47.4644809,42.3787107 49.8520546,39.9922603 52.7974281,39.9922603 C55.7428015,39.9922603 58.1303752,42.3787107 58.1303752,45.3226983" id="Fill-14" fill="#DFEF9E"></path>
                        <path d="M52.7974281,52.4919793 C48.8424226,52.4919793 45.6247723,49.275843 45.6247723,45.3226983 C45.6247723,41.3695537 48.8424226,38.1534174 52.7974281,38.1534174 C56.7524335,38.1534174 59.9700838,41.3695537 59.9700838,45.3226983 C59.9700838,49.275843 56.7524335,52.4919793 52.7974281,52.4919793 L52.7974281,52.4919793 Z M52.7974281,41.8311033 C50.8712532,41.8311033 49.3041894,43.3974298 49.3041894,45.3226983 C49.3041894,47.2479669 50.8712532,48.8146612 52.7974281,48.8146612 C54.7236029,48.8146612 56.2906667,47.2479669 56.2906667,45.3226983 C56.2906667,43.3974298 54.7236029,41.8311033 52.7974281,41.8311033 L52.7974281,41.8311033 Z" id="Fill-15" fill="#A3BF5E"></path>
                        <path d="M129.750965,87.3895413 C129.750965,99.5314215 119.903005,109.374748 107.755042,109.374748 C95.6070783,109.374748 85.7594863,99.5314215 85.7594863,87.3895413 C85.7594863,75.2472934 95.6070783,65.4039669 107.755042,65.4039669 C119.903005,65.4039669 129.750965,75.2472934 129.750965,87.3895413" id="Fill-16" fill="#DFEF9E"></path>
                        <path d="M107.755042,111.213591 C94.6121639,111.213591 83.9197778,100.526236 83.9197778,87.3895413 C83.9197778,74.2524793 94.6121639,63.565124 107.755042,63.565124 C120.89792,63.565124 131.590306,74.2524793 131.590306,87.3895413 C131.590306,100.526236 120.89792,111.213591 107.755042,111.213591 L107.755042,111.213591 Z M107.755042,67.2428099 C96.6409945,67.2428099 87.5991949,76.2807231 87.5991949,87.3895413 C87.5991949,98.4983595 96.6409945,107.535905 107.755042,107.535905 C118.869089,107.535905 127.910889,98.4983595 127.910889,87.3895413 C127.910889,76.2807231 118.869089,67.2428099 107.755042,67.2428099 L107.755042,67.2428099 Z" id="Fill-17" fill="#A3BF5E"></path>
                        <path d="M52.8581384,87.9356777 C52.8581384,98.8168471 44.0334244,107.637409 33.147133,107.637409 C22.2612095,107.637409 13.4361275,98.8168471 13.4361275,87.9356777 C13.4361275,77.054876 22.2612095,68.2339463 33.147133,68.2339463 C44.0334244,68.2339463 52.8581384,77.054876 52.8581384,87.9356777" id="Fill-18" fill="#DFEF9E"></path>
                        <path d="M33.1475009,109.476252 C21.2644554,109.476252 11.5964189,99.8131322 11.5964189,87.9356777 C11.5964189,76.0585909 21.2644554,66.3951033 33.1475009,66.3951033 C45.0301785,66.3951033 54.697847,76.0585909 54.697847,87.9356777 C54.697847,99.8131322 45.0301785,109.476252 33.1475009,109.476252 L33.1475009,109.476252 Z M33.1475009,70.0727893 C23.292918,70.0727893 15.2758361,78.0860992 15.2758361,87.9356777 C15.2758361,97.785624 23.292918,105.798566 33.1475009,105.798566 C43.0017158,105.798566 51.0184299,97.785624 51.0184299,87.9356777 C51.0184299,78.0860992 43.0017158,70.0727893 33.1475009,70.0727893 L33.1475009,70.0727893 Z" id="Fill-19" fill="#A3BF5E"></path>
                        <path id="Fill-20" fill="#F4FFD2" d="M2.20728233,175.875769 L117.74098,175.875769"></path>
                        <path d="M117.74098,177.714612 L2.20728233,177.714612 C1.19102732,177.714612 0.36757377,176.891178 0.36757377,175.875769 C0.36757377,174.859992 1.19102732,174.036926 2.20728233,174.036926 L117.74098,174.036926 C118.756867,174.036926 119.580689,174.859992 119.580689,175.875769 C119.580689,176.891178 118.756867,177.714612 117.74098,177.714612" id="Fill-21" fill="#A3BF5E"></path>
                        <path id="Fill-22" fill="#F4FFD2" d="M132.090707,175.875769 L163.733694,175.875769"></path>
                        <path d="M163.733694,177.714612 L132.090707,177.714612 C131.074452,177.714612 130.250998,176.891178 130.250998,175.875769 C130.250998,174.859992 131.074452,174.036926 132.090707,174.036926 L163.733694,174.036926 C164.749581,174.036926 165.573403,174.859992 165.573403,175.875769 C165.573403,176.891178 164.749581,177.714612 163.733694,177.714612" id="Fill-23" fill="#A3BF5E"></path>
                        <path id="Fill-24" fill="#F4FFD2" d="M175.87577,175.875769 L200.159923,175.875769"></path>
                        <path d="M200.159923,177.714612 L175.87577,177.714612 C174.859515,177.714612 174.036062,176.891178 174.036062,175.875769 C174.036062,174.859992 174.859515,174.036926 175.87577,174.036926 L200.159923,174.036926 C201.175811,174.036926 201.999632,174.859992 201.999632,175.875769 C201.999632,176.891178 201.175811,177.714612 200.159923,177.714612" id="Fill-25" fill="#A3BF5E"></path>
                    </g>
                </g>
            </g>
        </g>
    </g>
</svg>